<svg xmlns="http://www.w3.org/2000/svg" width="112.098" height="105" viewBox="0 0 112.098 105">
  <g id="Grupo_136916" data-name="Grupo 136916" transform="translate(1495.127 105.531)">
    <path id="Trazado_190031" data-name="Trazado 190031" d="M-1495.127-13.626V-92.444a4.6,4.6,0,0,1,3.53-2.708c11.647-2.127,23.279-4.336,34.915-6.518q10.044-1.884,20.087-3.768a3.53,3.53,0,0,1,4.52,3.632c.014.948,0,1.9,0,2.845v7.394h44.739c3.048,0,4.3,1.262,4.3,4.324q0,34.2,0,68.4c0,3.11-1.25,4.344-4.4,4.344h-44.646c0,3.553.023,6.944-.008,10.333a3.513,3.513,0,0,1-4.4,3.556q-27.285-5.107-54.575-10.193C-1492.9-11.146-1494.365-11.825-1495.127-13.626Zm7.056-3.775,48.921,9.165V-97.842l-48.921,9.173Zm56.046-18.119c3.333,0,6.543,0,9.752,0a7.047,7.047,0,0,1,1.415.083,3.486,3.486,0,0,1,2.782,3.672,3.474,3.474,0,0,1-3.511,3.232c-3.1.042-6.2.014-9.3.015h-1.118v6.93h41.885V-84.5H-1432v6.944c3.392,0,6.708-.008,10.024,0,2.328.007,3.91,1.442,3.9,3.511s-1.587,3.482-3.93,3.49c-2.955.01-5.911,0-8.866,0h-1.154v7.006h1.226c3.029,0,6.057-.019,9.085.008a3.5,3.5,0,0,1,3.64,3.442,3.507,3.507,0,0,1-3.647,3.549c-1.568.028-3.138.007-4.707.007H-1432v7.006c3.42,0,6.771-.011,10.122,0a3.524,3.524,0,0,1,3.813,3.491,3.526,3.526,0,0,1-3.8,3.506c-2.992.017-5.984,0-8.976,0h-1.179Z" transform="translate(0)" fill="#6836bf"/>
    <path id="Trazado_190032" data-name="Trazado 190032" d="M-1416.341,23.92c.534-.682,1.025-1.3,1.511-1.928q4.331-5.568,8.661-11.138a3.476,3.476,0,0,1,3.627-1.493,3.37,3.37,0,0,1,2.725,2.678,3.675,3.675,0,0,1-.917,3.239q-5.147,6.6-10.273,13.21c-.2.257-.387.523-.634.857,1.156,1.327,2.3,2.643,3.446,3.955,2.5,2.856,5.018,5.688,7.483,8.57a3.48,3.48,0,0,1-1.777,5.841,3.582,3.582,0,0,1-3.662-1.428q-4.13-4.745-8.28-9.472c-.5-.575-1.009-1.146-1.6-1.815-.31.379-.582.7-.839,1.028q-3.964,5.092-7.926,10.186a3.412,3.412,0,0,1-3.616,1.485,3.365,3.365,0,0,1-2.744-2.646,3.678,3.678,0,0,1,.911-3.242q4.442-5.691,8.862-11.4c.2-.256.383-.524.611-.836l-8.145-9.315c-.48-.549-.976-1.086-1.432-1.654a3.458,3.458,0,0,1,.27-4.915,3.425,3.425,0,0,1,4.982.329c2.681,2.983,5.3,6.025,7.941,9.041C-1416.919,23.325-1416.667,23.575-1416.341,23.92Z" transform="translate(-46.364 -83.327)" fill="#6836bf"/>
    <path id="Trazado_190033" data-name="Trazado 190033" d="M-1181.426,3.456c-1.166,0-2.333.025-3.5-.006A3.5,3.5,0,0,1-1188.5-.057a3.491,3.491,0,0,1,3.591-3.482q3.388-.049,6.778,0A3.5,3.5,0,0,1-1174.5-.093a3.512,3.512,0,0,1-3.646,3.546C-1179.239,3.476-1180.333,3.457-1181.426,3.456Z" transform="translate(-222.549 -74.008)" fill="#6836bf"/>
    <path id="Trazado_190034" data-name="Trazado 190034" d="M-1181.4,47.574c1.13,0,2.26-.028,3.389.006a3.5,3.5,0,0,1,3.508,3.455,3.463,3.463,0,0,1-3.437,3.521q-3.551.085-7.106,0a3.465,3.465,0,0,1-3.453-3.506,3.492,3.492,0,0,1,3.492-3.47C-1183.8,47.544-1182.6,47.574-1181.4,47.574Z" transform="translate(-222.549 -111.113)" fill="#6836bf"/>
    <path id="Trazado_190035" data-name="Trazado 190035" d="M-1181.515,98.674c1.166,0,2.333-.027,3.5.007a3.5,3.5,0,0,1,3.516,3.447,3.48,3.48,0,0,1-3.538,3.536q-3.443.064-6.887,0a3.486,3.486,0,0,1-3.571-3.5,3.505,3.505,0,0,1,3.593-3.483C-1183.775,98.652-1182.645,98.673-1181.515,98.674Z" transform="translate(-222.549 -148.203)" fill="#6836bf"/>
    <path id="Trazado_190036" data-name="Trazado 190036" d="M-1181.547,156.757c-1.13,0-2.26.025-3.389-.007a3.5,3.5,0,0,1-3.561-3.518,3.494,3.494,0,0,1,3.6-3.47q3.389-.046,6.778,0a3.5,3.5,0,0,1,3.615,3.459,3.514,3.514,0,0,1-3.658,3.534C-1179.288,156.777-1180.418,156.758-1181.547,156.757Z" transform="translate(-222.549 -185.272)" fill="#6836bf"/>
  </g>
</svg>
