<svg xmlns="http://www.w3.org/2000/svg" width="85" height="85" viewBox="0 0 85 85">
  <g id="Grupo_137122" data-name="Grupo 137122" transform="translate(-264.873 -5126)">
    <circle id="Elipse_6346" data-name="Elipse 6346" cx="42.5" cy="42.5" r="42.5" transform="translate(264.873 5126)" fill="#b13e8d"/>
    <g id="Grupo_136902" data-name="Grupo 136902" transform="translate(1951.517 6866.186)">
      <path id="Trazado_197851" data-name="Trazado 197851" d="M-1660.783-1619.609a7.371,7.371,0,0,1-2.877-1.473,6.058,6.058,0,0,1-1.754-3c-.366-1.416-.738-2.83-1.1-4.247a.973.973,0,0,1,.587-1.3c.56-.161,1.045.141,1.23.826.371,1.371.71,2.752,1.069,4.126a3.8,3.8,0,0,0,3.694,3.163,12,12,0,0,0,2.547-.436q2.026-.425,4.042-.9a4.132,4.132,0,0,0,2.979-5.332c-1.878-5.082-3.8-10.15-5.7-15.223-.028-.074-.069-.143-.125-.256-2.246.644-4.482,1.276-6.711,1.929a9.465,9.465,0,0,0-1.913.682,3.907,3.907,0,0,0-1.86,4.612c.276,1.1.567,2.193.847,3.291.176.69-.056,1.213-.594,1.36-.562.154-1.031-.14-1.208-.844a33.214,33.214,0,0,1-1.053-4.568,5.746,5.746,0,0,1,4.381-6.1c2.566-.764,5.166-1.42,7.709-2.25a23.4,23.4,0,0,0,3.444-1.65c.147-.076.217-.419.218-.639.015-2.522.013-5.044.009-7.565a3.847,3.847,0,0,1,2.179-3.79,3.456,3.456,0,0,1,1.3-.341,29.04,29.04,0,0,1,2.974-.018,3.735,3.735,0,0,1,3.654,3.773c.026.991,0,1.983,0,3.094a16.17,16.17,0,0,0,1.49-.8c.13-.087.155-.4.156-.6.01-2.853,0-5.705.008-8.558a4.286,4.286,0,0,1,1.624-3.645,4.085,4.085,0,0,1,1.356-.707,7.77,7.77,0,0,1,4.338.036,4.25,4.25,0,0,1,2.805,4.308q.005,9.209,0,18.418v.714c.074.041.109.077.138.073,1.5-.218,1.5-.219,1.5-1.718q0-13.24,0-26.479c0-2.263,1.157-3.986,3.248-4.374,1.79-.332,3.67-.51,5.277.769a4.3,4.3,0,0,1,1.594,3.476c.016.744.011,1.489,0,2.233-.011.811-.371,1.263-.975,1.25s-.935-.46-.942-1.284c-.008-.806.013-1.613-.009-2.418a2.278,2.278,0,0,0-2.326-2.309q-.806-.022-1.612,0a2.28,2.28,0,0,0-2.323,2.184c-.017.206-.021.413-.021.619q0,13.116,0,26.231v.775a10.58,10.58,0,0,0,.995-.543c1.673-1.173,3.346-2.348,4.99-3.561a1.1,1.1,0,0,0,.294-.793c.017-5.147.011-10.294.016-15.441a1.585,1.585,0,0,1,.1-.842c.2-.285.562-.63.854-.63s.65.347.852.632a1.593,1.593,0,0,1,.1.842q.008,6.915,0,13.829v.648a16.751,16.751,0,0,1,2.542-.845,4.225,4.225,0,0,1,4.534,2.4,4.115,4.115,0,0,1-.815,5.106c-1.356,1.267-2.836,2.4-4.269,3.588-1.943,1.607-3.9,3.192-5.836,4.811a15.559,15.559,0,0,1-6.674,2.916c-6.09,1.452-12.166,2.966-18.247,4.457a.689.689,0,0,0-.116.042,18.5,18.5,0,0,1-.225,2.524,5.261,5.261,0,0,1-3.913,4.144c-2.081.576-4.207.995-6.312,1.486a.842.842,0,0,0-.2.115Zm6.384-24.76,5.506,14.687c.124-.019.183-.024.24-.038,6.262-1.532,12.512-3.115,18.791-4.575a14.838,14.838,0,0,0,6.559-3.266c2.371-2.058,4.845-4,7.263-6a16.153,16.153,0,0,0,1.869-1.708,2.25,2.25,0,0,0,.327-2.607,2.333,2.333,0,0,0-2.357-1.489,3.751,3.751,0,0,0-1.706.592c-2.632,1.785-5.211,3.647-7.835,5.444a9.361,9.361,0,0,1-4.78,1.725c-2.7.143-5.411.114-8.118.122a2.085,2.085,0,0,1-2.117-1.416,2.124,2.124,0,0,1,.836-2.456c.441-.374.9-.734,1.346-1.1a7.237,7.237,0,0,0,2.554-4.333,1.725,1.725,0,0,0-.016-.731c-.315-1.31-1.557-1.773-2.887-1.069q-5.306,2.807-10.6,5.629Zm21.423.934c.011-.237.029-.438.029-.64q0-9.266,0-18.533c0-.206-.008-.413-.026-.619a2.187,2.187,0,0,0-1.894-2.056,11.389,11.389,0,0,0-1.728-.077,2.363,2.363,0,0,0-2.633,2.641q-.009,3.781,0,7.562c0,.178.02.357.033.566.187-.048.324-.085.462-.119a3.644,3.644,0,0,1,4.613,3.672,8.008,8.008,0,0,1-1.274,3.831,12.485,12.485,0,0,1-3.171,3.187c-.175.143-.323.32-.585.584Zm-18.015-4.891c2.081-1.1,4.063-2.149,6.038-3.21a.526.526,0,0,0,.251-.373c0-1.4.025-2.81-.065-4.209a1.738,1.738,0,0,0-1.721-1.567c-.908-.031-1.818-.031-2.726,0a1.805,1.805,0,0,0-1.766,1.739C-1651.011-1653.447-1650.992-1650.949-1650.992-1648.326Z" transform="translate(-2.765 -48.32)" fill="#fff"/>
      <path id="Trazado_197852" data-name="Trazado 197852" d="M-1644.033-1725.684c-.4-.032-.645-.03-.884-.073a2.675,2.675,0,0,1-2.25-3.115,2.831,2.831,0,0,1,2.729-2.556q3.875-.03,7.751,0a2.6,2.6,0,0,1,2.651,2.627q.039,3.937,0,7.875a2.812,2.812,0,0,1-2.512,2.707,2.59,2.59,0,0,1-2.92-1.847,14.468,14.468,0,0,1-.355-1.649c-.135.12-.271.233-.4.356q-3.285,3.159-6.568,6.321a2.979,2.979,0,0,1-3.98.585c-.879-.452-1.757-.909-2.765-1.43a5.042,5.042,0,0,1-.435.577q-6.35,6.409-12.71,12.808c-1.206,1.213-2.291,1.462-3.553.83a2.843,2.843,0,0,1-.933-4.448c.119-.143.249-.276.38-.408q7.205-7.264,14.412-14.527a2.97,2.97,0,0,1,4.111-.656c.769.4,1.531.811,2.313,1.182a.651.651,0,0,0,.581-.04C-1647.613-1722.224-1645.879-1723.9-1644.033-1725.684Zm8.147.805c0-1.2.008-2.4,0-3.6-.007-.787-.3-1.094-1.089-1.1q-3.565-.016-7.129,0c-.725,0-1.192.416-1.195.994s.46.98,1.188.989c.785.01,1.571,0,2.356,0a.941.941,0,0,1,.985.691c.157.489-.128.82-.453,1.132q-3.687,3.544-7.364,7.1a1.157,1.157,0,0,1-1.51.21c-1.057-.56-2.121-1.107-3.185-1.651-.82-.419-.966-.394-1.616.261q-7.23,7.279-14.457,14.561c-.72.725-.811,1.266-.3,1.756q.684.661,1.7-.358,6.7-6.754,13.406-13.509c.635-.64.9-.681,1.692-.274.991.507,1.979,1.021,2.969,1.529.871.447,1.087.413,1.8-.271l8.49-8.163a.977.977,0,0,1,1.164-.317,1.008,1.008,0,0,1,.576,1.064c-.012.826-.009,1.653,0,2.479.007.8.359,1.229.992,1.229s.987-.427.992-1.229C-1635.881-1722.523-1635.886-1723.7-1635.886-1724.879Z" transform="translate(0)" fill="#fff"/>
      <path id="Trazado_197853" data-name="Trazado 197853" d="M-1608.033-1309.42a3.682,3.682,0,0,1,3.64-3.685,3.71,3.71,0,0,1,3.688,3.65,3.682,3.682,0,0,1-3.684,3.7A3.647,3.647,0,0,1-1608.033-1309.42Zm3.625,1.77a1.791,1.791,0,0,0,1.827-1.786,1.812,1.812,0,0,0-1.794-1.767,1.792,1.792,0,0,0-1.786,1.766A1.781,1.781,0,0,0-1604.408-1307.65Z" transform="translate(-55.902 -366.347)" fill="#fff"/>
    </g>
  </g>
</svg>
