<svg xmlns="http://www.w3.org/2000/svg" width="85" height="85" viewBox="0 0 85 85">
  <g id="Grupo_137124" data-name="Grupo 137124" transform="translate(-810 -5298)">
    <circle id="Elipse_6351" data-name="Elipse 6351" cx="42.5" cy="42.5" r="42.5" transform="translate(810 5298)" fill="#b13e8d"/>
    <g id="Grupo_136907" data-name="Grupo 136907" transform="translate(1801.114 6837.892)">
      <path id="Trazado_197881" data-name="Trazado 197881" d="M-922.583-1510.218c-.084.16-.164.322-.252.479a2.052,2.052,0,0,1-2.2,1.017,2.019,2.019,0,0,1-1.611-1.854,4.054,4.054,0,0,0-2.312-3.766,4.931,4.931,0,0,0-1.7-.427c-.873-.07-1.756-.018-2.709-.018,0,.741.021,1.463-.005,2.184a2,2,0,0,1-2.021,1.875,2,2,0,0,1-2.028-1.868c-.024-.541-.007-1.084-.008-1.627,0-.167,0-.335,0-.537h-9.255v.953c0,2.171-.607,3.084-2.046,3.079s-2.02-.918-2.02-3.1v-.933H-959.9c0,.67.008,1.356,0,2.042a2.028,2.028,0,0,1-1.7,1.983,2.022,2.022,0,0,1-2.257-1.394,2.332,2.332,0,0,1-.1-.646c-.013-.643,0-1.287,0-2.01-1.8.058-3.639-.339-5.18,1a4.1,4.1,0,0,0-1.425,3.236q-.015,15.683,0,31.366a4.1,4.1,0,0,0,4.323,4.25c2.762.01,5.524,0,8.286.005a2.011,2.011,0,0,1,2.02,1.773,2.04,2.04,0,0,1-1.56,2.244,2.63,2.63,0,0,1-.605.045c-2.813,0-5.626.009-8.439,0a8.085,8.085,0,0,1-8-6.955,8.652,8.652,0,0,1-.093-1.262q-.008-15.784,0-31.569a8.054,8.054,0,0,1,6.547-8.04,24.4,24.4,0,0,1,3.643-.167c.135-.005.27,0,.485,0,0-.5.036-.985-.007-1.465a2.309,2.309,0,0,1,1.532-2.6h1.017a2.309,2.309,0,0,1,1.532,2.6c-.044.479-.007.966-.007,1.437h9.153c0-.191,0-.357,0-.523,0-.508-.006-1.017,0-1.525a2.164,2.164,0,0,1,1.523-1.993h1.017a2.309,2.309,0,0,1,1.532,2.6c-.044.479-.007.966-.007,1.437h9.255c0-.192,0-.358,0-.523,0-.508-.006-1.017,0-1.525a2.163,2.163,0,0,1,1.523-1.993h1.017a2.309,2.309,0,0,1,1.532,2.6c-.044.479-.007.966-.007,1.465.961,0,1.843-.024,2.722,0a7.9,7.9,0,0,1,7.225,4.588,16.852,16.852,0,0,1,.832,2.525Z" fill="#fff"/>
      <path id="Trazado_197882" data-name="Trazado 197882" d="M-804.258-1378.559a14.293,14.293,0,0,1-.933,2.385,5.782,5.782,0,0,1-5.1,2.9c-1.321.025-2.644.009-3.965,0a2.009,2.009,0,0,1-2.1-2.057,2.008,2.008,0,0,1,2.1-2.007c.982-.005,1.964,0,3.066,0-.341-.4-.6-.762-.912-1.074a12.832,12.832,0,0,0-8.515-4.026,12.894,12.894,0,0,0-12.627,6.707,13.188,13.188,0,0,0,.824,14.229,13.162,13.162,0,0,0,8.281,5.252,13.157,13.157,0,0,0,8.58-1.208,4.076,4.076,0,0,1,1.123-.443,1.97,1.97,0,0,1,2.254,1.381,2.013,2.013,0,0,1-.991,2.423,16.559,16.559,0,0,1-4.675,1.768,17.069,17.069,0,0,1-13.393-2.486,16.792,16.792,0,0,1-7.368-10.672,16.775,16.775,0,0,1,1.913-12.433,16.51,16.51,0,0,1,9.824-7.869c6.562-1.934,12.4-.48,17.4,4.212.378.354.715.751,1.151,1.212,0-1.007.038-1.915-.009-2.818a2.093,2.093,0,0,1,1.628-2.259,2.056,2.056,0,0,1,2.374,1.433c.011.026.049.041.074.061Z" transform="translate(-118.325 -118.948)" fill="#fff"/>
      <path id="Trazado_197883" data-name="Trazado 197883" d="M-593.944-1256.315c-.048.1-.1.2-.144.3a2.073,2.073,0,0,1-2.32,1.3,2.059,2.059,0,0,1-1.637-2.036,2.061,2.061,0,0,1,1.638-1.986,2.076,2.076,0,0,1,2.319,1.3c.042.1.1.2.144.3Z" transform="translate(-328.638 -230.515)" fill="#fff"/>
      <path id="Trazado_197884" data-name="Trazado 197884" d="M-736.69-1309.408c0,1-.008,2,0,3a1.954,1.954,0,0,1-.683,1.576c-1.117.961-2.234,1.924-3.386,2.844a2,2,0,0,1-2.784-.306,1.991,1.991,0,0,1,.14-2.757c.7-.66,1.453-1.273,2.206-1.876a1.058,1.058,0,0,0,.447-.939c-.026-1.508-.013-3.016-.009-4.525a2.011,2.011,0,0,1,2.024-2.134,2.01,2.01,0,0,1,2.04,2.118C-736.686-1311.408-736.69-1310.408-736.69-1309.408Z" transform="translate(-201.248 -181.861)" fill="#fff"/>
      <path id="Trazado_197885" data-name="Trazado 197885" d="M-616.189-1199.306a2.1,2.1,0,0,1,2.05,2.042,2.1,2.1,0,0,1-2.031,2.057,2.089,2.089,0,0,1-2.071-2.064A2.087,2.087,0,0,1-616.189-1199.306Z" transform="translate(-311.016 -282.407)" fill="#fff"/>
    </g>
  </g>
</svg>
