<svg xmlns="http://www.w3.org/2000/svg" width="85" height="85" viewBox="0 0 85 85">
  <g id="Grupo_137127" data-name="Grupo 137127" transform="translate(-810 -5439)">
    <circle id="Elipse_6352" data-name="Elipse 6352" cx="42.5" cy="42.5" r="42.5" transform="translate(810 5439)" fill="#b13e8d"/>
    <g id="Grupo_136908" data-name="Grupo 136908" transform="translate(2342.171 6654.373)">
      <path id="Trazado_197886" data-name="Trazado 197886" d="M-1449.4-1134.366h-7.742c0,.846,0,1.683,0,2.52,0,1.077-.265,1.337-1.361,1.337h-16.686c-1.016,0-1.3-.28-1.3-1.274,0-1.653-.006-3.305,0-4.958a4.43,4.43,0,0,1,4.368-4.407,2.7,2.7,0,0,0,2.126-.9c-.159-.131-.307-.253-.454-.376a5.569,5.569,0,0,1-2.163-4.578,16.213,16.213,0,0,1,.261-3.53,5.711,5.711,0,0,1,6.286-4.136,5.818,5.818,0,0,1,5.051,5.725,21.448,21.448,0,0,1-.056,2.837,5.749,5.749,0,0,1-2.619,4.064l.939.687c.1-.051.154-.059.168-.087a4.594,4.594,0,0,1,4.343-2.628,2.235,2.235,0,0,0,1.8-.9,5.421,5.421,0,0,1-2.54-3.945,15.269,15.269,0,0,1,.1-4.263,5.725,5.725,0,0,1,6.277-4.4,5.82,5.82,0,0,1,5.136,5.769,21.594,21.594,0,0,1-.064,2.835,5.694,5.694,0,0,1-2.564,4,2.171,2.171,0,0,0,1.738.9,4.671,4.671,0,0,1,4.467,2.766l1.059-.711a5.656,5.656,0,0,1-2.461-3.328,10.558,10.558,0,0,1,.047-5.315,5.783,5.783,0,0,1,6.285-4,5.814,5.814,0,0,1,5.04,5.734,21.4,21.4,0,0,1-.059,2.836,5.7,5.7,0,0,1-2.568,4.021,2.3,2.3,0,0,0,1.955.914,4.527,4.527,0,0,1,4.558,4.732c-.071,1.589-.01,3.184-.014,4.776,0,.807-.332,1.145-1.128,1.145q-8.555,0-17.109,0c-.767,0-1.1-.339-1.11-1.1C-1449.4-1132.513-1449.4-1133.415-1449.4-1134.366Zm3.8-1.975c.029-.062.059-.1.059-.131.006-1.007.025-2.014.008-3.02a2.579,2.579,0,0,0-2.646-2.632,1.532,1.532,0,0,0-1.239.409,5.6,5.6,0,0,1-7.8-.06,1.331,1.331,0,0,0-.412-.337,2.68,2.68,0,0,0-3.216,1.781,33.13,33.13,0,0,0-.218,3.99Zm-17.345-2.417c-.147.1-.208.14-.268.184a5.606,5.606,0,0,1-7.672-.414.87.87,0,0,0-.336-.231,2.694,2.694,0,0,0-3.25,2.072,13.887,13.887,0,0,0-.084,2.226c-.011.817,0,1.634,0,2.432h15.45v-1.889c-.914,0-1.8,0-2.677,0-.837,0-1.157-.328-1.16-1.173C-1462.944-1136.591-1462.942-1137.629-1462.942-1138.759Zm15.509,6.276h15.447c0-1.468.041-2.9-.014-4.322a2.278,2.278,0,0,0-1.44-2.136,2.2,2.2,0,0,0-2.643.3,4.952,4.952,0,0,1-4.768,1.217,19.608,19.608,0,0,1-2.74-1.127c0,.947,0,2.006,0,3.066,0,.76-.345,1.1-1.11,1.1-.9.006-1.8,0-2.73,0Zm-15.483-15.455h-.028c0-.322.01-.644,0-.966a3.912,3.912,0,0,0-3.67-3.848,3.821,3.821,0,0,0-3.979,3.282,14.48,14.48,0,0,0-.083,2.4,3.905,3.905,0,0,0,3.668,3.97,3.865,3.865,0,0,0,4-3.34A13.444,13.444,0,0,0-1462.916-1147.938Zm19.3.01.028,0c0,.322-.008.644,0,.965a3.912,3.912,0,0,0,3.655,3.864,3.816,3.816,0,0,0,3.99-3.267,14.42,14.42,0,0,0,.087-2.465,3.9,3.9,0,0,0-3.652-3.923,3.861,3.861,0,0,0-4.013,3.323A13.551,13.551,0,0,0-1443.618-1147.928Zm-13.5-2.9h-.021c0,.322-.008.644,0,.966a3.913,3.913,0,0,0,3.656,3.862,3.819,3.819,0,0,0,3.99-3.268,14.449,14.449,0,0,0,.087-2.4,3.907,3.907,0,0,0-3.715-3.986,3.9,3.9,0,0,0-3.99,3.505A10.573,10.573,0,0,0-1457.114-1150.828Zm15.119,10.707c.971,1.124,3.69,1.073,4.539-.009-.277-.318-.537-.65-.835-.943a.722.722,0,0,0-.454-.158c-.655-.018-1.311-.021-1.966,0a.715.715,0,0,0-.448.175C-1441.456-1140.766-1441.719-1140.437-1442-1140.121Zm-13.573-2.9c1.179,1.185,3.829,1,4.543.01a2.195,2.195,0,0,0-2.245-1.105,2.321,2.321,0,0,0-2.154.932A2.124,2.124,0,0,1-1455.568-1143.025Zm-8.964,2.92c-.285-.332-.555-.681-.866-.988a.739.739,0,0,0-.466-.132c-.639-.016-1.279-.017-1.918-.008a.655.655,0,0,0-.421.11c-.317.323-.6.679-.894,1.022A3.6,3.6,0,0,0-1464.532-1140.1Z" transform="translate(-35.135 -39.818)" fill="#fff"/>
      <path id="Trazado_197887" data-name="Trazado 197887" d="M-1502.917-958.5c0,.211,0,.348,0,.486-.012,1.248-.22,1.449-1.492,1.449h-4.314c0,.262,0,.494,0,.726,0,.889-.314,1.208-1.187,1.208q-3.658,0-7.316,0c-.846,0-1.169-.323-1.17-1.163q0-3.9,0-7.8,0-6.5,0-13c0-.965.292-1.257,1.258-1.257h12.757c1.25,0,1.454.205,1.464,1.476,0,.121,0,.241,0,.459h.65c3.245,0,6.49.008,9.734-.008a1.514,1.514,0,0,1,1.172.491q3.436,3.488,6.9,6.944a.778.778,0,0,0,.625.065c4.207-1.135,8.41-2.289,12.615-3.433,2.383-.648,4.755-1.352,7.159-1.908a4.639,4.639,0,0,1,5.646,4.571c.006,1.649.189,1.667-1.62,2.287q-14.815,5.075-29.627,10.162a2.477,2.477,0,0,1-1.389,0c-1.2-.338-2.384-.727-3.544-1.176a8.892,8.892,0,0,0-3.593-.588C-1499.73-958.461-1501.281-958.5-1502.917-958.5Zm.043-15.481v13.547c1.915,0,3.787.022,5.659-.01a6.826,6.826,0,0,1,2.478.392c1.246.449,2.5.882,3.77,1.256a2.221,2.221,0,0,0,1.263,0q10.553-3.591,21.088-7.234c2.6-.9,5.205-1.786,7.8-2.7.189-.067.454-.328.444-.485a2.6,2.6,0,0,0-1.535-2.406,3.248,3.248,0,0,0-2.295-.108q-9.5,2.6-19.006,5.171a.625.625,0,0,0-.548.637,3.529,3.529,0,0,1-2.479,3.186,3.643,3.643,0,0,1-4.014-1.054c-1.178-1.187-2.358-2.373-3.552-3.545-.37-.363-.787-.676-1.138-.974l1.417-1.508c.168.159.316.293.457.433,1.426,1.424,2.846,2.854,4.276,4.274a1.8,1.8,0,0,0,2.59.112,1.8,1.8,0,0,0-.11-2.59q-3.049-3.065-6.115-6.111a.837.837,0,0,0-.5-.267C-1496.224-973.987-1499.527-973.983-1502.873-973.983Zm-7.824,17.389v-19.277h-5.734v19.277Zm5.806-1.936v-17.341h-3.8v17.341Z" transform="translate(0 -190.537)" fill="#fff"/>
      <path id="Trazado_197888" data-name="Trazado 197888" d="M-1362.626-1204.472l1.984-.269c.065.681.124,1.292.187,1.95l-1.855.243Z" transform="translate(-130.602 -0.309)" fill="#fff"/>
      <path id="Trazado_197889" data-name="Trazado 197889" d="M-1159.626-1000.17l-.271,1.986-1.931-.351.262-1.844Z" transform="translate(-298.955 -171.652)" fill="#fff"/>
      <path id="Trazado_197890" data-name="Trazado 197890" d="M-1269.963-1193.329l1.844.777-.818,1.778-1.726-.722Z" transform="translate(-207.707 -9.877)" fill="#fff"/>
      <path id="Trazado_197891" data-name="Trazado 197891" d="M-1167.379-976.1l.521-1.792,1.887.469-.535,1.923Z" transform="translate(-294.301 -190.508)" fill="#fff"/>
      <path id="Trazado_197892" data-name="Trazado 197892" d="M-1213.155-1152.479l1.409-1.277,1.338,1.356-1.339,1.249Z" transform="translate(-255.922 -43.056)" fill="#fff"/>
      <path id="Trazado_197893" data-name="Trazado 197893" d="M-1517.577-1001.495l1.954-.22.25,1.856-1.913.34C-1517.383-1000.179-1517.473-1000.786-1517.577-1001.495Z" transform="translate(-0.687 -170.531)" fill="#fff"/>
      <path id="Trazado_197894" data-name="Trazado 197894" d="M-1292.569-1198.6l.463-1.9,1.921.518-.571,1.866Z" transform="translate(-189.339 -3.865)" fill="#fff"/>
      <path id="Trazado_197895" data-name="Trazado 197895" d="M-1166.019-1071.135l1.881-.552.494,1.93-1.9.428Z" transform="translate(-295.441 -111.865)" fill="#fff"/>
      <path id="Trazado_197896" data-name="Trazado 197896" d="M-1517.774-1047.164l.256-1.971,1.931.294-.239,1.857Z" transform="translate(-0.522 -130.773)" fill="#fff"/>
      <path id="Trazado_197897" data-name="Trazado 197897" d="M-1313.141-1202.389l-1.838-.243.185-1.954,1.969.268Z" transform="translate(-170.55 -0.44)" fill="#fff"/>
      <path id="Trazado_197898" data-name="Trazado 197898" d="M-1386.422-1200.307l1.923-.515.451,1.891-1.8.5Z" transform="translate(-110.651 -3.595)" fill="#fff"/>
      <path id="Trazado_197899" data-name="Trazado 197899" d="M-1409.334-1192.992l1.844-.755.692,1.818-1.717.721Z" transform="translate(-91.441 -9.527)" fill="#fff"/>
      <path id="Trazado_197900" data-name="Trazado 197900" d="M-1429.808-1181.063l-1.038-1.665,1.727-1,.922,1.717Z" transform="translate(-73.405 -17.927)" fill="#fff"/>
      <path id="Trazado_197901" data-name="Trazado 197901" d="M-1248.951-1183.079l1.724,1.019-1.047,1.654-1.611-.951Z" transform="translate(-225.126 -18.471)" fill="#fff"/>
      <path id="Trazado_197902" data-name="Trazado 197902" d="M-1230.554-1168.394l1.151-1.58,1.58,1.227-1.256,1.508Z" transform="translate(-241.334 -29.459)" fill="#fff"/>
      <path id="Trazado_197903" data-name="Trazado 197903" d="M-1161.167-1047.485l1.941-.292c.084.665.16,1.272.247,1.963l-1.94.186Z" transform="translate(-299.51 -131.911)" fill="#fff"/>
      <path id="Trazado_197904" data-name="Trazado 197904" d="M-1449.1-1170.8l1.146,1.585-1.488,1.134-1.24-1.5Z" transform="translate(-56.772 -28.763)" fill="#fff"/>
      <path id="Trazado_197905" data-name="Trazado 197905" d="M-1512-1070.663l-1.914-.437.508-1.929,1.862.552Z" transform="translate(-3.762 -110.74)" fill="#fff"/>
      <path id="Trazado_197906" data-name="Trazado 197906" d="M-1506.912-1094.091l.755-1.845,1.782.789-.7,1.739Z" transform="translate(-9.629 -91.534)" fill="#fff"/>
      <path id="Trazado_197907" data-name="Trazado 197907" d="M-1482.389-1134.732l-1.589-1.136,1.205-1.589,1.519,1.235Z" transform="translate(-28.858 -56.722)" fill="#fff"/>
      <path id="Trazado_197908" data-name="Trazado 197908" d="M-1182.7-1116.329l.987,1.734-1.73.917-.921-1.625Z" transform="translate(-280.063 -74.436)" fill="#fff"/>
      <path id="Trazado_197909" data-name="Trazado 197909" d="M-1468.457-1153.984l1.4-1.435,1.324,1.431-1.379,1.268Z" transform="translate(-41.871 -41.662)" fill="#fff"/>
      <path id="Trazado_197910" data-name="Trazado 197910" d="M-1518.233-1022.593v-1.981h1.885v1.857Z" transform="translate(-0.137 -151.365)" fill="#fff"/>
      <path id="Trazado_197911" data-name="Trazado 197911" d="M-1173.746-1093.873l1.778-.792.75,1.848-1.842.675Z" transform="translate(-288.963 -92.6)" fill="#fff"/>
      <path id="Trazado_197912" data-name="Trazado 197912" d="M-1197.566-1135.043l1.525-1.229,1.209,1.582-1.589,1.132Z" transform="translate(-268.992 -57.715)" fill="#fff"/>
      <path id="Trazado_197913" data-name="Trazado 197913" d="M-1494.24-1116.53l-.936,1.615-1.73-.918,1.006-1.729Z" transform="translate(-18.019 -73.402)" fill="#fff"/>
      <path id="Trazado_197914" data-name="Trazado 197914" d="M-1157.089-1023.224v1.953l-1.88-.094v-1.859Z" transform="translate(-301.352 -152.497)" fill="#fff"/>
      <path id="Trazado_197915" data-name="Trazado 197915" d="M-1336-1205.11v1.865h-1.865v-1.865Z" transform="translate(-151.359)" fill="#fff"/>
    </g>
  </g>
</svg>
