<svg xmlns="http://www.w3.org/2000/svg" xmlns:xlink="http://www.w3.org/1999/xlink" width="88" height="88" viewBox="0 0 88 88">
  <defs>
    <filter id="Rect치ngulo_40821" x="0" y="0" width="88" height="88" filterUnits="userSpaceOnUse">
      <feOffset dy="3" input="SourceAlpha"/>
      <feGaussianBlur stdDeviation="3" result="blur"/>
      <feFlood flood-opacity="0.161"/>
      <feComposite operator="in" in2="blur"/>
      <feComposite in="SourceGraphic"/>
    </filter>
  </defs>
  <g id="Grupo_136999" data-name="Grupo 136999" transform="translate(-935.333 -281)">
    <g transform="matrix(1, 0, 0, 1, 935.33, 281)" filter="url(#Rect치ngulo_40821)">
      <path id="Rect치ngulo_40821-2" data-name="Rect치ngulo 40821" d="M10,0H60A10,10,0,0,1,70,10V70a0,0,0,0,1,0,0H10A10,10,0,0,1,0,60V10A10,10,0,0,1,10,0Z" transform="translate(9 6)" fill="#7fc733"/>
    </g>
    <g id="Grupo_133197" data-name="Grupo 133197" transform="translate(852.727 162.157)">
      <path id="Trazado_189984" data-name="Trazado 189984" d="M152.607,153.85c-.132,1.107-.213,2.222-.406,3.319A19.71,19.71,0,0,1,121,169.09a.705.705,0,0,0-.091-.054l-1.533,1.537c.106.132.269.321.418.521a2.579,2.579,0,0,1,.537,2.243,2.161,2.161,0,0,1-3.059,1.5.609.609,0,0,0-.817.171q-1.757,1.8-3.562,3.554a1.14,1.14,0,0,1-.785.331.83.83,0,0,1-.582-.519,1.024,1.024,0,0,1,.247-.8c1.137-1.186,2.31-2.338,3.474-3.5.144-.143.306-.268.415-.361l-2.834-2.848c-.037.033-.141.117-.235.211q-4.871,4.869-9.742,9.738a1.857,1.857,0,0,0-.611,1.97,2.136,2.136,0,0,0,1.633,1.514,1.783,1.783,0,0,0,1.742-.592q1.728-1.722,3.451-3.45a3.15,3.15,0,0,1,.331-.314.754.754,0,0,1,1.079,1.035,2.289,2.289,0,0,1-.311.334c-.97.971-1.956,1.927-2.906,2.917a5.535,5.535,0,0,1-2.433,1.658h-1.118c-.25-.094-.5-.181-.749-.282a3.5,3.5,0,0,1-1.2-5.854c3.248-3.2,6.452-6.441,9.677-9.662a5.129,5.129,0,0,1,.4-.334c-.577-1.611-.344-2.656.706-3.354,1.01-.673,2.121-.428,3.38.727l1.514-1.542c-.045-.064-.137-.2-.236-.335a19.71,19.71,0,0,1-3.812-9.662c-.081-.7.124-1.074.617-1.139s.828.231.887.81a18.12,18.12,0,0,0,15.939,16.195,18.114,18.114,0,1,0-15.813-20.777c-.058.368-.088.74-.131,1.11-.063.542-.389.871-.832.837a.774.774,0,0,1-.686-.946,18.7,18.7,0,0,1,2.545-8.015,19.222,19.222,0,0,1,14.007-9.6,19.577,19.577,0,0,1,22.4,16.368c.137.865.2,1.742.295,2.614Zm-33.551,18.841a5.774,5.774,0,0,0-.527-.755q-1.976-2-3.975-3.982a.9.9,0,0,0-1.336-.145c-.352.36-.3.816.171,1.285q1.358,1.366,2.723,2.725c.478.478.952.96,1.437,1.43a.7.7,0,0,0,.924.139A3.409,3.409,0,0,0,119.056,172.691Zm-.471-5.735-1.42,1.417.977.992,1.4-1.405Z" transform="translate(0)" fill="#12263f"/>
      <path id="Trazado_189985" data-name="Trazado 189985" d="M300.552,213.528c-.7,0-1.439,0-2.176,0-.574,0-.885-.264-.894-.731-.009-.485.316-.774.908-.78.722-.008,1.444,0,2.167,0,.854-5.441,3.982-8.58,9.454-9.461,0-.465,0-.966,0-1.467,0-1.23.169-1.593.743-1.6.593-.008.772.371.772,1.63v1.439c5.436.868,8.561,3.989,9.444,9.46.691,0,1.424,0,2.158,0a.827.827,0,0,1,.866.478.74.74,0,0,1-.728,1.033c-.772.017-1.544,0-2.291,0-.924,5.388-4.043,8.512-9.45,9.448,0,.7,0,1.458,0,2.212a.794.794,0,0,1-.514.841.74.74,0,0,1-1-.739c-.018-.772,0-1.545,0-2.312C304.622,222.067,301.48,218.946,300.552,213.528Zm17.23,4.181a8.528,8.528,0,0,0-1.14-11.287,8.635,8.635,0,0,0-12.2.44,8.45,8.45,0,0,0-.791,10.65c0-.467,0-.882,0-1.3a2.229,2.229,0,0,1,1.788-2.306c.778-.2,1.557-.4,2.411-.622a4.848,4.848,0,0,1-1.052-3.867,3.945,3.945,0,0,1,3.5-3.768,3.82,3.82,0,0,1,4.171,2.9,5.125,5.125,0,0,1-.766,4.609c-.024.03-.018.085-.03.151.778.2,1.546.38,2.306.588a2.255,2.255,0,0,1,1.811,2.348C317.784,216.713,317.782,217.175,317.782,217.71Zm-1.515-.024a9.849,9.849,0,0,0-.022-1.511,1.012,1.012,0,0,0-.482-.723,23.194,23.194,0,0,0-3.614-.882,15.311,15.311,0,0,0-6.351.8.79.79,0,0,0-.641.843c.015.892.023,1.784-.005,2.675a.854.854,0,0,0,.409.787,8.8,8.8,0,0,0,9.782.438c.668-.405,1.091-.838.933-1.668A4.146,4.146,0,0,1,316.267,217.686Zm-3.112-7.578-.032-.006c-.013-.268-.009-.538-.042-.8a2.379,2.379,0,0,0-2.288-2.142,2.35,2.35,0,0,0-2.442,2.021,6.9,6.9,0,0,0-.005,1.808,2.383,2.383,0,0,0,4.636.363A8.453,8.453,0,0,0,313.155,210.107Z" transform="translate(-177.707 -59.402)" fill="#12263f"/>
      <path id="Trazado_189986" data-name="Trazado 189986" d="M296.395,183.074c0,8.917-5.722,15.691-13.687,16.953a16.345,16.345,0,0,1-5.714-32.185c.512-.091,1.03-.162,1.548-.207.581-.05.908.192.95.652.043.483-.255.8-.847.851a13.221,13.221,0,0,0-4.7,1.239c-5.74,2.8-8.859,7.413-8.757,13.807a13.9,13.9,0,0,0,9.081,13.4,14.839,14.839,0,1,0,7.955-28.346c-.377-.057-.732-.144-.879-.563-.193-.551.252-1.038.905-.961a13.916,13.916,0,0,1,4.444,1.258C292.947,172,296.085,177.062,296.395,183.074Z" transform="translate(-147.058 -30.591)" fill="#12263f"/>
    </g>
  </g>
</svg>
