<svg xmlns="http://www.w3.org/2000/svg" xmlns:xlink="http://www.w3.org/1999/xlink" width="88" height="88" viewBox="0 0 88 88">
  <defs>
    <filter id="Rect치ngulo_40719" x="0" y="0" width="88" height="88" filterUnits="userSpaceOnUse">
      <feOffset dy="3" input="SourceAlpha"/>
      <feGaussianBlur stdDeviation="3" result="blur"/>
      <feFlood flood-opacity="0.161"/>
      <feComposite operator="in" in2="blur"/>
      <feComposite in="SourceGraphic"/>
    </filter>
  </defs>
  <g id="Grupo_133254" data-name="Grupo 133254" transform="translate(-1287.333 -344)">
    <g id="Grupo_137001" data-name="Grupo 137001">
      <g id="Grupo_133190" data-name="Grupo 133190" transform="translate(25 12)">
        <g id="Grupo_128459" data-name="Grupo 128459" transform="translate(1271.333 338)">
          <g transform="matrix(1, 0, 0, 1, -9, -6)" filter="url(#Rect치ngulo_40719)">
            <path id="Rect치ngulo_40719-2" data-name="Rect치ngulo 40719" d="M10,0H60A10,10,0,0,1,70,10V70a0,0,0,0,1,0,0H10A10,10,0,0,1,0,60V10A10,10,0,0,1,10,0Z" transform="translate(9 6)" fill="#b13e8d"/>
          </g>
        </g>
      </g>
      <g id="Grupo_133253" data-name="Grupo 133253" transform="translate(4740.845 691.88)">
        <path id="Trazado_190060" data-name="Trazado 190060" d="M-3383.512-288.28c-.266.319-.539.624-1.02.437s-.507-.578-.506-1q.007-2.843,0-5.686a1.777,1.777,0,0,0-1.487-2c-.973-.285-1.944-.576-2.924-.834a.646.646,0,0,0-.515.134c-.51.469-1.006.957-1.469,1.473a1.019,1.019,0,0,0-.209.629c-.015,2.031-.009,4.062-.009,6.093,0,.119,0,.237,0,.355-.028.554-.324.9-.771.895s-.747-.346-.748-.9c-.006-2.132-.009-4.265,0-6.4a.961.961,0,0,0-.33-.8c-.365-.327-.7-.689-1.046-1.036-.6-.6-.6-.6-1.468-.24,1.183,1.2,1.141,2.711,1.121,4.224-.018,1.32,0,2.64,0,3.96,0,.135.007.272-.005.406a.781.781,0,0,1-.774.781.764.764,0,0,1-.738-.812c-.016-.8-.006-1.591-.006-2.386,0-1.1.006-2.2,0-3.3a2.473,2.473,0,0,0-1.677-2.47c-1.611-.608-3.234-1.185-4.9-1.794l-1.541,2.309c-.178.267-.346.543-.54.8a1.561,1.561,0,0,1-2.4.215c-.392-.365-.75-.766-1.225-1.254-.015.324-.031.5-.031.675q0,3.427,0,6.854c0,.777-.249,1.155-.757,1.163s-.765-.37-.766-1.143q0-3.427,0-6.854v-.541l-.19-.132c-.312.367-.6.756-.941,1.1a1.584,1.584,0,0,1-2.656-.251c-.655-.963-1.294-1.938-1.966-2.945-1.741.647-3.483,1.24-5.179,1.943a2.364,2.364,0,0,0-1.4,2.391c0,1.76,0,3.52,0,5.28a3.648,3.648,0,0,1-.02.507.7.7,0,0,1-.681.639.682.682,0,0,1-.759-.537,2.111,2.111,0,0,1-.061-.551c0-1.76-.046-3.522.017-5.28a17.415,17.415,0,0,1,.426-2.419c-.593-.425-.593-.425-1.2.157-1.352,1.293-2.811,1.566-4.177.731a7.318,7.318,0,0,1-1.163-.975.473.473,0,0,0-.653-.11c-.667.364-1.354.692-2.036,1.028a1.821,1.821,0,0,0-1.089,1.79c.012,1.675,0,3.351,0,5.026a3.81,3.81,0,0,1-.007.406.781.781,0,0,1-.758.745.763.763,0,0,1-.748-.752c-.026-.473-.01-.947-.01-1.421q0-2.031,0-4.062a3.218,3.218,0,0,1,1.869-3.067c.613-.316,1.233-.62,1.872-.94-.568-.364-1.109-.689-1.623-1.05a6.372,6.372,0,0,1-.706-.653,1.583,1.583,0,0,1-.381-1.82,18.567,18.567,0,0,0,.487-3.3c.13-1.225.091-2.479.328-3.681a6.443,6.443,0,0,1,5.412-5.145,6.329,6.329,0,0,1,6.932,4.612,19.828,19.828,0,0,1,.429,3.3c.12,1.142.189,2.29.313,3.432a3.731,3.731,0,0,0,.285,1.019,1.175,1.175,0,0,1-.214,1.312,6.936,6.936,0,0,1-2.567,1.9.918.918,0,0,0,1.138.153c1.491-.631,3.026-1.162,4.547-1.722a1.278,1.278,0,0,0,.757-.631,11.641,11.641,0,0,1,1.185-1.376,2.562,2.562,0,0,0,.292-.708c.017-.045,0-.1,0-.151a3.675,3.675,0,0,0-1.128-3.236,8.2,8.2,0,0,1-2.114-5.875,13.869,13.869,0,0,0-.495-3.17,10.333,10.333,0,0,1,.429-7.049,6.8,6.8,0,0,1,6.159-4.058c3.872-.118,7.75-.041,11.626-.038a.785.785,0,0,1,.9.872c-.007,2.961-.009,5.922-.073,8.882a6.32,6.32,0,0,1-.437,2.02,4.8,4.8,0,0,0-.3,1.878,8.979,8.979,0,0,1-1.021,5,31.656,31.656,0,0,1-1.94,2.577,2.9,2.9,0,0,0-.289.646c-.018.044,0,.1,0,.151a3.171,3.171,0,0,0,1.274,3.314.244.244,0,0,1,.1.112c.19.763.877.832,1.457,1.047.887.329,1.781.638,2.663.981a1.434,1.434,0,0,0,1.124.038,6.619,6.619,0,0,1,.68-.2c1-.287,1.082-.4.923-1.423a.661.661,0,0,0-.23-.36,5.849,5.849,0,0,1-2.2-4.805,4.121,4.121,0,0,0-.41-1.894,4.694,4.694,0,0,1,3.865-6.543c2.583-.128,5.175-.073,7.763-.082.529,0,.862.272.862.741,0,1.589-.024,3.178-.083,4.765a2.562,2.562,0,0,1-.326,1.108,3.636,3.636,0,0,0-.39,1.951,5.576,5.576,0,0,1-2.191,4.787c-.459.36-.214.848-.2,1.271,0,.136.346.316.563.384.837.264,1.686.494,2.531.733a3.247,3.247,0,0,1,2.477,2.486c.01.045.054.081.082.121Zm-17.843-36.108a.494.494,0,0,0-.134-.037c-3.6,0-7.21-.054-10.812.029a5.534,5.534,0,0,0-5.211,4.371,9.6,9.6,0,0,0,.22,5.26,7.971,7.971,0,0,1,.406,2.827,8.444,8.444,0,0,0,.762,3.693,7.328,7.328,0,0,0,7.48,4.228,7.219,7.219,0,0,0,6.24-5.448,25.77,25.77,0,0,0,.3-3.624,7.314,7.314,0,0,1,.186-1.035,13.154,13.154,0,0,0,.565-2.452c.08-2.569.04-5.142.045-7.714C-3401.309-324.318-3401.335-324.347-3401.355-324.388Zm13.869,12.2c-.127-.014-.208-.03-.289-.03-2.047,0-4.094-.006-6.141,0a3.92,3.92,0,0,0-.9.109,3.212,3.212,0,0,0-2.141,4.616,3.675,3.675,0,0,1,.442,1.892,7.74,7.74,0,0,0,.229,1.95,4.108,4.108,0,0,0,3.637,2.928,4.142,4.142,0,0,0,3.829-2.114,4.574,4.574,0,0,0,.53-2.444,4.187,4.187,0,0,1,.441-2.3,3.132,3.132,0,0,0,.35-1.358C-3387.452-310-3387.486-311.065-3387.486-312.188Zm-34.965,6.439a6.484,6.484,0,0,0-1.424-4.848,4.755,4.755,0,0,0-6.488-.563c-1.755,1.458-2.081,3.411-2.033,5.512.729.246.785.316.874,1.075.01.084.025.167.036.251a4.091,4.091,0,0,0,3.394,3.549,4.117,4.117,0,0,0,4.519-2.57,1.449,1.449,0,0,0-.159-1.552,6.176,6.176,0,0,0-3.923-2.3,1.464,1.464,0,0,0-1.755.576,2.431,2.431,0,0,1-.385.4.792.792,0,0,1-1.131.105.792.792,0,0,1,.053-1.17c.367-.4.759-.772,1.122-1.174a1.142,1.142,0,0,1,.995-.377A8.013,8.013,0,0,1-3422.451-305.748Zm8.823,2.283c0,.453-.017.806.009,1.156a.557.557,0,0,0,.188.376c1.3.906,2.615,1.8,3.931,2.7,1.323-.9,2.623-1.786,3.913-2.682a.552.552,0,0,0,.21-.364c.028-.361.01-.725.01-1.157A9.021,9.021,0,0,1-3413.628-303.465Zm5.409,5.2,1.91,1.929,1.829-2.734c.566-.847.566-.847-.2-1.518-.011-.009-.031-.009-.1-.026Zm-4.47,1.936,1.922-1.925-3.521-2.406a7.038,7.038,0,0,0-.566.622.423.423,0,0,0-.045.377C-3414.167-298.536-3413.417-297.421-3412.689-296.332Zm-16.367-3.039c-.108.886-.367,1.811.727,2.361a1.887,1.887,0,0,0,1.832,0c1.105-.552.817-1.474.7-2.357a13.611,13.611,0,0,1-1.6.177A14.9,14.9,0,0,1-3429.056-299.371Zm36.639,2.482c.493-.515.886-.981,1.339-1.38a.9.9,0,0,0,.327-1.026h-3.374c.036.211-.006.565.15.759C-3393.523-297.976-3392.99-297.482-3392.418-296.889Zm-40.187-5.706c-.146.573-.282,1.057-.385,1.549a.5.5,0,0,0,.1.388,5.4,5.4,0,0,0,2.333,1.375c-.087-.4-.048-.833-.24-1A6.978,6.978,0,0,1-3432.6-302.595Zm8.434,3.284a5.438,5.438,0,0,0,2.178-1.3.528.528,0,0,0,.17-.379c-.105-.505-.254-1-.365-1.417a17.075,17.075,0,0,1-1.558,1.826A1.15,1.15,0,0,0-3424.171-299.311Z" transform="translate(0)" fill="#fff"/>
        <path id="Trazado_190061" data-name="Trazado 190061" d="M-3062.716-72.733c0,.743.005,1.485,0,2.228-.005.593-.291.951-.749.962-.476.011-.77-.356-.771-.983q-.006-2.228,0-4.456c0-.6.273-.943.741-.951.487-.009.774.344.779.972C-3062.712-74.218-3062.716-73.475-3062.716-72.733Z" transform="translate(-324.049 -218.24)" fill="#fff"/>
        <path id="Trazado_190062" data-name="Trazado 190062" d="M-3408.411-65.3c0,.608.009,1.216,0,1.824a.779.779,0,0,1-.747.853.778.778,0,0,1-.767-.84q-.022-1.849,0-3.7a.762.762,0,0,1,.754-.842c.459,0,.754.326.762.88C-3408.4-66.519-3408.411-65.911-3408.411-65.3Z" transform="translate(-22.321 -225.159)" fill="#fff"/>
        <path id="Trazado_190063" data-name="Trazado 190063" d="M-3164.99-60.756c0,.474.007.948,0,1.422-.01.594-.3.953-.759.96s-.757-.351-.761-.943q-.01-1.447,0-2.894c0-.576.268-.905.718-.924.476-.02.786.32.8.908C-3164.98-61.738-3164.99-61.247-3164.99-60.756Z" transform="translate(-234.782 -229.409)" fill="#fff"/>
        <path id="Trazado_190064" data-name="Trazado 190064" d="M-3305.985-60.747c0,.525.007,1.049,0,1.573a.736.736,0,0,1-.7.789.739.739,0,0,1-.8-.745q-.046-1.623,0-3.247a.736.736,0,0,1,.78-.762.749.749,0,0,1,.719.819c.017.524,0,1.049,0,1.573Z" transform="translate(-111.724 -229.407)" fill="#fff"/>
        <path id="Trazado_190065" data-name="Trazado 190065" d="M-3280.335-269.537c0,.557.008,1.078,0,1.6-.012.617-.277.937-.756.938s-.75-.317-.761-.935c-.01-.557-.019-1.117.021-1.672a1.535,1.535,0,0,1,1.33-1.448,21.17,21.17,0,0,1,7.66.095,7.361,7.361,0,0,1,3.585,1.779.762.762,0,0,1,.122,1.123.715.715,0,0,1-1.045.059,8.127,8.127,0,0,0-5.064-1.771A22.725,22.725,0,0,0-3280.335-269.537Z" transform="translate(-134.106 -47.674)" fill="#fff"/>
        <path id="Trazado_190066" data-name="Trazado 190066" d="M-3115.346-196.185c.01.671-.44,1.079-.922.9a16.5,16.5,0,0,0-4.77-.782.684.684,0,0,1-.686-.73.688.688,0,0,1,.724-.747,12.752,12.752,0,0,1,5.1.837C-3115.642-196.6-3115.466-196.3-3115.346-196.185Z" transform="translate(-273.877 -112.096)" fill="#fff"/>
      </g>
    </g>
  </g>
</svg>
