<svg xmlns="http://www.w3.org/2000/svg" xmlns:xlink="http://www.w3.org/1999/xlink" width="190" height="112" viewBox="0 0 190 112">
  <defs>
    <linearGradient id="linear-gradient" x1="0.5" x2="0.5" y2="1" gradientUnits="objectBoundingBox">
      <stop offset="0" stop-color="#f7ca2e" stop-opacity="0"/>
      <stop offset="0.091" stop-color="#f7ca2e" stop-opacity="0.129"/>
      <stop offset="0.283" stop-color="#f7ca2e" stop-opacity="0.388"/>
      <stop offset="0.465" stop-color="#f7ca2e" stop-opacity="0.612"/>
      <stop offset="0.633" stop-color="#f7ca2e" stop-opacity="0.78"/>
      <stop offset="0.784" stop-color="#f7ca2e" stop-opacity="0.902"/>
      <stop offset="0.911" stop-color="#f7ca2e" stop-opacity="0.969"/>
      <stop offset="1" stop-color="#f7ca2e"/>
    </linearGradient>
    <linearGradient id="linear-gradient-2" x1="0.5" x2="0.5" y2="1" gradientUnits="objectBoundingBox">
      <stop offset="0" stop-color="#b13e8d" stop-opacity="0"/>
      <stop offset="0.091" stop-color="#b13e8d" stop-opacity="0.129"/>
      <stop offset="0.283" stop-color="#b13e8d" stop-opacity="0.388"/>
      <stop offset="0.465" stop-color="#b13e8d" stop-opacity="0.612"/>
      <stop offset="0.633" stop-color="#b13e8d" stop-opacity="0.78"/>
      <stop offset="0.784" stop-color="#b13e8d"/>
      <stop offset="0.911" stop-color="#b13e8d" stop-opacity="0.969"/>
      <stop offset="1" stop-color="#b13e8d"/>
    </linearGradient>
    <filter id="Rectángulo_40720" x="41" y="4" width="108" height="108" filterUnits="userSpaceOnUse">
      <feOffset dy="3" input="SourceAlpha"/>
      <feGaussianBlur stdDeviation="3" result="blur"/>
      <feFlood flood-opacity="0.161"/>
      <feComposite operator="in" in2="blur"/>
      <feComposite in="SourceGraphic"/>
    </filter>
  </defs>
  <g id="Grupo_137009" data-name="Grupo 137009" transform="translate(-180 -399)">
    <rect id="Rectángulo_40586" data-name="Rectángulo 40586" width="190" height="20" transform="translate(180 444)" fill="none"/>
    <g id="Grupo_108405" data-name="Grupo 108405" transform="translate(209.5 463)">
      <path id="Rectángulo_5242" data-name="Rectángulo 5242" d="M0,0H12a0,0,0,0,1,0,0V43.333a3,3,0,0,1-3,3H3a3,3,0,0,1-3-3V0A0,0,0,0,1,0,0Z" transform="translate(0 0)" fill="url(#linear-gradient)"/>
    </g>
    <g id="Grupo_108406" data-name="Grupo 108406" transform="translate(340 451) rotate(180)">
      <path id="Rectángulo_5242-2" data-name="Rectángulo 5242" d="M0,0H12a0,0,0,0,1,0,0V49a3,3,0,0,1-3,3H3a3,3,0,0,1-3-3V0A0,0,0,0,1,0,0Z" transform="translate(0 0)" fill="url(#linear-gradient-2)"/>
    </g>
    <g transform="matrix(1, 0, 0, 1, 180, 399)" filter="url(#Rectángulo_40720)">
      <path id="Rectángulo_40720-2" data-name="Rectángulo 40720" d="M10,0H80A10,10,0,0,1,90,10V90a0,0,0,0,1,0,0H10A10,10,0,0,1,0,80V10A10,10,0,0,1,10,0Z" transform="translate(50 10)" fill="#f6f6f6"/>
    </g>
    <g id="Grupo_137010" data-name="Grupo 137010" transform="translate(923.111 99.75)">
      <path id="Trazado_197953" data-name="Trazado 197953" d="M-661.2,319a29.551,29.551,0,0,1,3.984,1.379,10.465,10.465,0,0,1,5.532,6.438,9.159,9.159,0,0,1-.231,4.283,3.716,3.716,0,0,0,.177,2.361,3.515,3.515,0,0,1-2.642,4.828,1.277,1.277,0,0,0-.652.469c-.627.784-1.238,1.582-1.817,2.4a1.984,1.984,0,0,0-.381.945c-.043.635-.2,1.424.108,1.872.278.411,1.093.466,1.676.663q3.248,1.1,6.5,2.18a6.137,6.137,0,0,1,4.476,6.141c.028,2.547.01,5.094.005,7.641,0,1.23-.362,1.581-1.619,1.581q-11.979,0-23.958,0-4.544,0-9.087,0c-1.288,0-1.617-.339-1.618-1.643,0-2.57-.005-5.14,0-7.71a6.066,6.066,0,0,1,4.208-5.907c2.681-.925,5.374-1.817,8.071-2.7a.66.66,0,0,0,.54-.709c.089-1.165,0-2.222-1.11-2.924a1.317,1.317,0,0,1-.4-.466,4.89,4.89,0,0,0-2.621-2.316,3.388,3.388,0,0,1-1.422-4.767,1.137,1.137,0,0,0,.148-.795c-1.742-4.611.045-8.064,3.607-10.906a10.733,10.733,0,0,1,5.325-2.222,1.367,1.367,0,0,0,.309-.124Zm6.794,12.364.193-.129c.1-.582.2-1.166.314-1.746a4.714,4.714,0,0,0-.481-3.439,9.539,9.539,0,0,0-14.717-2.338c-2.046,1.869-3.232,4.086-2.392,6.985.153.529.444.725.874.481a4.859,4.859,0,0,1,2.342-.333,7.92,7.92,0,0,0,6.759-3.549,2.726,2.726,0,0,1,4.751-.1,29.724,29.724,0,0,1,1.745,3.476A3.711,3.711,0,0,0-654.408,331.364Zm-1.954,3.493a15.812,15.812,0,0,0-1.929-6.015c-.62-.938-.937-.94-1.581,0a8.432,8.432,0,0,1-4.478,3.472,27.643,27.643,0,0,1-3.958.736c-.4.061-.655.121-.646.582a16.077,16.077,0,0,0,.038,2.314A6.338,6.338,0,0,0-662,341.166,6.323,6.323,0,0,0-656.362,334.857Zm-16.281,25.005h5.546c.1-2.658,1.422-5.167.58-7.935-.607.426-1.176.8-1.721,1.214a1.379,1.379,0,0,1-1.575.322c-.573-.3-.6-.86-.6-1.432.01-1.576,0-3.153,0-4.8-1.769.586-3.46,1.137-5.145,1.706a3.964,3.964,0,0,0-2.964,4.127c-.007,2.065,0,4.131,0,6.2,0,.2.025.4.039.612h3.6c0-1.116-.011-2.19,0-3.263.012-.831.419-1.294,1.1-1.3.7,0,1.13.492,1.137,1.34C-672.636,357.7-672.642,358.758-672.642,359.862Zm13.947-7.935a6.7,6.7,0,0,0-.2,3.169c.346,1.58.57,3.186.843,4.76h5.5c0-1.091-.008-2.121.005-3.151a1.963,1.963,0,0,1,.128-.8,1,1,0,0,1,1.206-.561,1.028,1.028,0,0,1,.875,1.077c.019,1.141.006,2.282.006,3.458h3.579c.01-.214.024-.391.025-.569,0-2.156.007-4.313,0-6.469A3.855,3.855,0,0,0-649.491,349c-1.3-.447-2.6-.876-3.9-1.309-.462-.153-.928-.294-1.446-.458,0,1.734-.006,3.362,0,4.99a1.217,1.217,0,0,1-.569,1.235,1.238,1.238,0,0,1-1.4-.2C-657.414,352.814-658.037,352.391-658.7,351.926Zm-1.635,7.963c-.3-1.781-.588-3.489-.9-5.191a.556.556,0,0,0-.425-.3c-.75-.031-1.5-.014-2.275-.014l-.958,5.505Zm-2.275-13.5a25.76,25.76,0,0,1,2.265-1.58,1.511,1.511,0,0,0,.747-1.945,9.447,9.447,0,0,1-6.286,0c.166.621.143,1.219.425,1.461C-664.576,345.082-663.581,345.7-662.606,346.394Zm1.931,1.375,3.61,2.556c0-1.173.014-2.2-.01-3.222-.006-.237-.091-.633-.228-.676a1.922,1.922,0,0,0-1.252-.116A17.826,17.826,0,0,0-660.675,347.769Zm-.454,4.4c.556-1.571.553-1.581-.733-2.495-.241-.171-.486-.337-.747-.517-.295.2-.576.394-.854.59-1.075.76-1.083.763-.759,2.048a.556.556,0,0,0,.372.356C-662.937,352.179-662.023,352.164-661.129,352.164Zm-3.415-4.395a20.091,20.091,0,0,1-1.849-1.34,1.121,1.121,0,0,0-1.5,0c-.193.116-.223.573-.247.881-.038.5-.01,1.005-.01,1.509v1.508Zm-6.748-13.823a1.054,1.054,0,0,0,0,1.64Zm17.167,1.7c.585-.658.558-1.3,0-1.71Z" fill="#6836bf"/>
      <path id="Trazado_197954" data-name="Trazado 197954" d="M-464,319c1.753.636,2.375,1.908,2.354,3.735-.059,5.345-.02,10.692-.021,16.037a3.057,3.057,0,0,1-3.379,3.354c-3.625,0-7.25-.01-10.875.015a2.623,2.623,0,0,0-1.218.328c-2.632,1.486-5.247,3-7.862,4.519-.5.288-1.025.429-1.451,0a1.666,1.666,0,0,1-.406-1.027c-.048-1.235-.019-2.474-.019-3.831-.706,0-1.382,0-2.058,0a3.026,3.026,0,0,1-3.289-3.295c0-5.392.037-10.784-.022-16.175A3.379,3.379,0,0,1-489.885,319Zm-20.659,25.217c2.235-1.294,4.345-2.491,6.429-3.734a4.054,4.054,0,0,1,2.2-.6c3.648.031,7.3.016,10.946.012.925,0,1.184-.238,1.185-1.113q.008-8.227,0-16.453c0-.858-.265-1.126-1.1-1.126q-11.944,0-23.888,0c-.849,0-1.124.264-1.125,1.1q-.007,8.261,0,16.522c0,.8.273,1.059,1.09,1.069.987.011,1.974-.008,2.96.007.911.014,1.29.4,1.3,1.308C-484.652,342.169-484.657,343.128-484.657,344.217Z" transform="translate(-153.829)" fill="#6836bf"/>
      <path id="Trazado_197955" data-name="Trazado 197955" d="M-660.4,575.326a10.316,10.316,0,0,1,6-4.964,6.4,6.4,0,0,1-2.71-5.741,6.092,6.092,0,0,1,2.241-4.341,6.308,6.308,0,0,1,8.744.611c1.91,2.055,2.752,6.332-1.054,9.475a10.318,10.318,0,0,1,5.945,4.953,10.365,10.365,0,0,1,6.012-4.954,6.376,6.376,0,0,1-2.615-6.409,6.033,6.033,0,0,1,2.517-3.963,6.3,6.3,0,0,1,8.631,1.2,6.405,6.405,0,0,1-1.33,9.15c.233.094.426.177.621.25a9.959,9.959,0,0,1,6.445,9.151c.017,1.377.013,2.754.006,4.13,0,.928-.375,1.308-1.28,1.308q-28.6,0-57.206,0c-.739,0-1.255-.351-1.248-.991a37.769,37.769,0,0,1,.224-6.17c.68-3.835,3.123-6.313,6.854-7.672a6.392,6.392,0,0,1-2.651-6.056,6.1,6.1,0,0,1,2.3-4.093,6.3,6.3,0,0,1,8.4.428,6.12,6.12,0,0,1,1.851,5.055,6.449,6.449,0,0,1-2.706,4.668A10.332,10.332,0,0,1-660.4,575.326Zm37.236,7.636c0-1.195.077-2.323-.015-3.437a7.667,7.667,0,0,0-4.6-6.671,10.429,10.429,0,0,0-4.926-.633,7.306,7.306,0,0,0-4.267,1.511c-3.166,2.355-3.37,5.694-3.057,9.23Zm-38.385,0c0-1.15.035-2.228-.007-3.3a7.56,7.56,0,0,0-3.611-6.283c-1.782-1.186-3.787-1.224-5.821-1.16a7.185,7.185,0,0,0-3.7,1.1c-3.716,2.367-4.045,5.65-3.686,9.645Zm2.321-.015h16.9c0-.979.023-1.915,0-2.849a7.739,7.739,0,0,0-4.6-7.226,10.034,10.034,0,0,0-4.918-.643,7.551,7.551,0,0,0-5.834,3.024C-659.534,577.543-659.311,580.238-659.232,582.942Zm23.535-17.814a4.087,4.087,0,0,0,4.05,4.088,4.118,4.118,0,0,0,4.091-4.06,4.046,4.046,0,0,0-4.03-4.09A4.019,4.019,0,0,0-635.7,565.128Zm-30.237.031a4,4,0,0,0-4.008-4.093,4.087,4.087,0,0,0-4.144,4.06,4.148,4.148,0,0,0,4.074,4.091A4.079,4.079,0,0,0-665.934,565.159Zm11.062-.12a4.08,4.08,0,0,0,3.956,4.177,4.144,4.144,0,0,0,4.194-4.039,4.078,4.078,0,0,0-3.883-4.106A4.01,4.01,0,0,0-654.872,565.038Z" transform="translate(-0.044 -195.688)" fill="#6836bf"/>
      <path id="Trazado_197956" data-name="Trazado 197956" d="M-439.764,338.675a6.582,6.582,0,0,1-.269.71.909.909,0,0,0,.618,1.462,1.156,1.156,0,0,1,.941,1.253c-.023.687-.025,1.377,0,2.064a1.181,1.181,0,0,1-.987,1.288.893.893,0,0,0-.58,1.425,1.177,1.177,0,0,1-.177,1.562q-.756.752-1.508,1.508a1.177,1.177,0,0,1-1.562.178.892.892,0,0,0-1.426.581,1.183,1.183,0,0,1-1.289.988c-.664-.024-1.33,0-2-.006a1.162,1.162,0,0,1-1.336-1.005.887.887,0,0,0-1.386-.579,1.22,1.22,0,0,1-1.669-.219c-.461-.479-.935-.946-1.409-1.413a1.193,1.193,0,0,1-.193-1.615.889.889,0,0,0-.545-1.392,1.2,1.2,0,0,1-1.034-1.321c.026-.687.02-1.376,0-2.064a1.153,1.153,0,0,1,.958-1.239.889.889,0,0,0,.622-1.4,1.2,1.2,0,0,1,.185-1.619q.732-.728,1.46-1.46a1.2,1.2,0,0,1,1.618-.179.893.893,0,0,0,1.39-.558,1.153,1.153,0,0,1,1.323-1.02c.665-.009,1.331.016,2-.007a1.2,1.2,0,0,1,1.319,1.038.9.9,0,0,0,1.338.583,1.169,1.169,0,0,1,1.716.2c.494.479.993.955,1.45,1.468A3.782,3.782,0,0,1-439.764,338.675Zm-7-2.075c-.3.266-.541.374-.594.54a1.368,1.368,0,0,1-1.052.966,5.648,5.648,0,0,0-1.2.5,1.292,1.292,0,0,1-1.421.045.471.471,0,0,0-.45.034.477.477,0,0,0-.029.454,1.29,1.29,0,0,1-.051,1.421,5.622,5.622,0,0,0-.477,1.133,1.381,1.381,0,0,1-1,1.107.482.482,0,0,0-.294.353c0,.114.178.29.311.33a1.352,1.352,0,0,1,.961,1.057,4.991,4.991,0,0,0,.473,1.135,1.312,1.312,0,0,1,.066,1.481c-.064.1-.064.349,0,.4a.521.521,0,0,0,.459.085,1.369,1.369,0,0,1,1.545.085,5.4,5.4,0,0,0,1.139.462,1.3,1.3,0,0,1,1,.932.637.637,0,0,0,.392.34c.065.02.266-.2.307-.334a1.307,1.307,0,0,1,.993-.936,5.869,5.869,0,0,0,1.2-.492,1.32,1.32,0,0,1,1.481-.058.511.511,0,0,0,.457-.073.42.42,0,0,0,.022-.4,1.3,1.3,0,0,1,.054-1.479,5.714,5.714,0,0,0,.493-1.2,1.311,1.311,0,0,1,.934-1c.137-.042.353-.242.332-.306a.644.644,0,0,0-.34-.395,1.3,1.3,0,0,1-.929-1,5.407,5.407,0,0,0-.464-1.138,1.363,1.363,0,0,1-.081-1.544.519.519,0,0,0-.088-.458c-.053-.068-.3-.066-.4,0a1.3,1.3,0,0,1-1.48-.067,4.073,4.073,0,0,0-1.008-.421A1.546,1.546,0,0,1-446.765,336.6Z" transform="translate(-183.756 -12.724)" fill="#6836bf"/>
      <path id="Trazado_197957" data-name="Trazado 197957" d="M-431.509,362.756a4.082,4.082,0,0,1,4.183-4.078,4.106,4.106,0,0,1,4.074,4.131,4.125,4.125,0,0,1-4.159,4.125A4.11,4.11,0,0,1-431.509,362.756Zm6.035.057a1.968,1.968,0,0,0-1.861-1.932,1.976,1.976,0,0,0-1.966,1.9,1.973,1.973,0,0,0,1.862,1.93A1.962,1.962,0,0,0-425.474,362.813Z" transform="translate(-203.392 -32.379)" fill="#6836bf"/>
    </g>
  </g>
</svg>
