<svg xmlns="http://www.w3.org/2000/svg" xmlns:xlink="http://www.w3.org/1999/xlink" width="1328" height="801" viewBox="0 0 1328 801">
  <defs>
    <clipPath id="clip-path">
      <rect id="Rectángulo_40707" data-name="Rectángulo 40707" width="312" height="791" transform="translate(-0.444 0.296)" fill="#7fc733"/>
    </clipPath>
    <linearGradient id="linear-gradient" x1="0.666" y1="-0.309" x2="0.346" y2="1.251" gradientUnits="objectBoundingBox">
      <stop offset="0" stop-color="#84088c"/>
      <stop offset="0.999" stop-color="#b13f8c"/>
    </linearGradient>
    <clipPath id="clip-path-2">
      <rect id="Rectángulo_40707-2" data-name="Rectángulo 40707" width="312" height="791" fill="#7fc733"/>
    </clipPath>
    <linearGradient id="linear-gradient-2" x1="0.666" y1="1.309" x2="0.346" y2="-0.251" xlink:href="#linear-gradient"/>
  </defs>
  <g id="Grupo_137121" data-name="Grupo 137121" transform="translate(-136 -1369)">
    <g id="Grupo_133125" data-name="Grupo 133125" transform="translate(27.444 584.704)">
      <g id="Grupo_133124" data-name="Grupo 133124" transform="translate(1125 794)">
        <g id="Enmascarar_grupo_124" data-name="Enmascarar grupo 124" clip-path="url(#clip-path)">
          <path id="Unión_18" data-name="Unión 18" d="M120.424,404.047A187.273,187.273,0,0,1,80.8,392.073a160.03,160.03,0,0,1-35.887-21.049,122.849,122.849,0,0,1-27.743-30.1A104.737,104.737,0,0,1,1.984,301.8,134.851,134.851,0,0,1,.769,264.444a114.975,114.975,0,0,1,9.751-35.812c.593-1.289,1.234-2.6,1.967-4.009a99.12,99.12,0,0,1,29.307-33.97A117.234,117.234,0,0,1,61.09,179.1a131.012,131.012,0,0,1,21.259-7.936,145.2,145.2,0,0,1,39.549-5.145c20.424,0,40.384,3.4,61.517,7.007l.032.009,1.563.264c14.523,2.478,26.393,3.627,37.356,3.627a113.07,113.07,0,0,0,30.075-3.687A83.336,83.336,0,0,0,266.6,168a76.06,76.06,0,0,0,13.225-8.086A95.133,95.133,0,0,0,294.74,145.69a131.218,131.218,0,0,0,11.973-16.674c7.234-11.769,13.258-24.852,19.085-37.5l.018-.037c5.239-11.368,10.657-23.124,16.946-33.948a152.853,152.853,0,0,1,10.282-15.595,108.329,108.329,0,0,1,12.439-13.887A105.024,105.024,0,0,1,436.424,0h.33a107.694,107.694,0,0,1,22.608,2.553,109.724,109.724,0,0,1,22.676,7.575c15.879,7.364,27.8,17.91,34.506,30.5a51.108,51.108,0,0,1,4.525,11.768,58.951,58.951,0,0,1,1.653,11.729c.356,7.807-.575,15.755-1.483,23.438v.026c-1.245,10.545-2.527,21.455-.567,32.382a54.641,54.641,0,0,0,3.458,11.763,50.561,50.561,0,0,0,5.58,9.876,61.7,61.7,0,0,0,16.277,15.152c12.7,8.408,28.679,13.959,44.13,19.324l.031.013c8.321,2.89,16.923,5.877,24.736,9.236,8.755,3.763,15.649,7.642,21.081,11.852q2.162,1.674,4.245,3.532H772.524v71.731s4.654,80.563-104.568,53.99c-.036-.009-.071-.017-.105-.026l-.293-.068c-3.814-.936-7.724-1.987-11.684-3.146a414.745,414.745,0,0,0-59.021-12.446c-.107-.017-.205-.031-.311-.045-.212-.029-.426-.06-.641-.088q-10.515-1.449-20.957-2.445c-.017,0-.036,0-.052-.006l-.763-.071c-.175-.018-.344-.036-.514-.05-.07-.008-.133-.013-.2-.019-14.229-1.328-29.017-2.152-44.2-2.459-19.036-.381-37.212.077-53.812.987-.138.007-.274.016-.409.023-.26.013-.526.026-.784.042-.4.024-.8.047-1.205.069l-.066,0q-3.069.18-6.141.382c-7.058.469-14.119,1.03-21.138,1.682-11.3,1.053-21.339,2.235-29.756,3.354q-3.229.429-6.392.882l-.04,0c-13.926,1.985-21.992,3.58-21.992,3.58l-.05-.006a201.735,201.735,0,0,0-29.234,9.575c-18.2,7.419-35.385,16.923-48.324,24.374-24.127,13.892-49.895,28.338-76.277,38.967a257.564,257.564,0,0,1-39.928,12.68,200.709,200.709,0,0,1-20.586,3.536,181.344,181.344,0,0,1-21.069,1.249A174.027,174.027,0,0,1,120.424,404.047Z" transform="matrix(0.242, 0.97, -0.97, 0.242, 376.484, -31.247)" fill="#7fc733" stroke="rgba(0,0,0,0)" stroke-miterlimit="10" stroke-width="1" opacity="0.1"/>
        </g>
        <circle id="Elipse_4812" data-name="Elipse 4812" cx="34.244" cy="34.244" r="34.244" transform="translate(192.999 659.997) rotate(-80.839)" fill="url(#linear-gradient)"/>
      </g>
    </g>
    <g id="Grupo_137120" data-name="Grupo 137120" transform="translate(136 1369)" opacity="0">
      <g id="Grupo_133124-2" data-name="Grupo 133124" transform="translate(0 0)">
        <g id="Enmascarar_grupo_124-2" data-name="Enmascarar grupo 124" transform="translate(0 0)" clip-path="url(#clip-path-2)">
          <path id="Unión_18-2" data-name="Unión 18" d="M120.424,2.906A187.273,187.273,0,0,0,80.8,14.88,160.03,160.03,0,0,0,44.916,35.929a122.849,122.849,0,0,0-27.743,30.1A104.737,104.737,0,0,0,1.984,105.153,134.851,134.851,0,0,0,.769,142.509a114.975,114.975,0,0,0,9.751,35.812c.593,1.289,1.234,2.6,1.967,4.009A99.12,99.12,0,0,0,41.793,216.3a117.234,117.234,0,0,0,19.3,11.552,131.012,131.012,0,0,0,21.259,7.936,145.2,145.2,0,0,0,39.549,5.145c20.424,0,40.384-3.4,61.517-7.007l.032-.009,1.563-.264c14.523-2.478,26.393-3.627,37.356-3.627a113.07,113.07,0,0,1,30.075,3.687,83.336,83.336,0,0,1,14.16,5.244,76.06,76.06,0,0,1,13.225,8.086,95.132,95.132,0,0,1,14.914,14.221,131.218,131.218,0,0,1,11.973,16.674c7.234,11.769,13.258,24.852,19.085,37.5l.018.037c5.239,11.368,10.657,23.124,16.946,33.948a152.853,152.853,0,0,0,10.282,15.595,108.329,108.329,0,0,0,12.439,13.887,105.024,105.024,0,0,0,70.94,28.048h.33a107.694,107.694,0,0,0,22.608-2.553,109.724,109.724,0,0,0,22.676-7.575c15.879-7.364,27.8-17.91,34.506-30.5a51.108,51.108,0,0,0,4.525-11.768,58.951,58.951,0,0,0,1.653-11.728c.356-7.807-.575-15.755-1.483-23.438v-.026c-1.245-10.545-2.527-21.455-.567-32.382a54.641,54.641,0,0,1,3.458-11.763,50.561,50.561,0,0,1,5.58-9.876,61.7,61.7,0,0,1,16.277-15.152c12.7-8.408,28.679-13.959,44.13-19.324l.031-.013c8.321-2.89,16.923-5.877,24.736-9.236,8.755-3.763,15.649-7.642,21.081-11.852q2.162-1.674,4.245-3.532H772.524V134.5s4.654-80.562-104.568-53.99c-.036.009-.071.017-.105.026l-.293.068c-3.814.936-7.724,1.987-11.684,3.146A414.745,414.745,0,0,1,596.852,96.2c-.107.017-.205.031-.311.045-.212.029-.426.06-.641.088q-10.515,1.449-20.957,2.445c-.017,0-.036,0-.052.006l-.763.071c-.175.018-.344.036-.514.05-.07.008-.133.013-.2.019-14.229,1.328-29.017,2.152-44.2,2.459-19.036.381-37.212-.077-53.812-.987-.138-.007-.274-.016-.409-.023-.26-.013-.526-.026-.784-.042-.4-.024-.8-.047-1.205-.069l-.066,0q-3.069-.18-6.141-.382c-7.058-.469-14.119-1.03-21.138-1.682-11.3-1.053-21.339-2.235-29.756-3.354q-3.229-.429-6.392-.882l-.04,0c-13.926-1.985-21.992-3.58-21.992-3.58l-.05.006a201.735,201.735,0,0,1-29.234-9.575c-18.2-7.419-35.385-16.923-48.324-24.374-24.127-13.892-49.895-28.338-76.277-38.967a257.564,257.564,0,0,0-39.928-12.68,200.708,200.708,0,0,0-20.586-3.536A181.344,181.344,0,0,0,152.009,0,174.027,174.027,0,0,0,120.424,2.906Z" transform="translate(329.936 66.908) rotate(104)" fill="#7fc733" stroke="rgba(0,0,0,0)" stroke-miterlimit="10" stroke-width="1" opacity="0.1"/>
        </g>
        <circle id="Elipse_4812-2" data-name="Elipse 4812" cx="34.244" cy="34.244" r="34.244" transform="translate(50.943 670.606) rotate(-99.161)" fill="url(#linear-gradient-2)"/>
      </g>
    </g>
  </g>
</svg>
