<svg xmlns="http://www.w3.org/2000/svg" xmlns:xlink="http://www.w3.org/1999/xlink" width="190" height="112" viewBox="0 0 190 112">
  <defs>
    <linearGradient id="linear-gradient" x1="0.5" x2="0.5" y2="1" gradientUnits="objectBoundingBox">
      <stop offset="0" stop-color="#f7ca2e" stop-opacity="0"/>
      <stop offset="0.091" stop-color="#f7ca2e" stop-opacity="0.129"/>
      <stop offset="0.283" stop-color="#f7ca2e" stop-opacity="0.388"/>
      <stop offset="0.465" stop-color="#f7ca2e" stop-opacity="0.612"/>
      <stop offset="0.633" stop-color="#f7ca2e" stop-opacity="0.78"/>
      <stop offset="0.784" stop-color="#f7ca2e" stop-opacity="0.902"/>
      <stop offset="0.911" stop-color="#f7ca2e" stop-opacity="0.969"/>
      <stop offset="1" stop-color="#f7ca2e"/>
    </linearGradient>
    <linearGradient id="linear-gradient-2" x1="0.5" x2="0.5" y2="1" gradientUnits="objectBoundingBox">
      <stop offset="0" stop-color="#b13e8d" stop-opacity="0"/>
      <stop offset="0.091" stop-color="#b13e8d" stop-opacity="0.129"/>
      <stop offset="0.283" stop-color="#b13e8d" stop-opacity="0.388"/>
      <stop offset="0.465" stop-color="#b13e8d" stop-opacity="0.612"/>
      <stop offset="0.633" stop-color="#b13e8d" stop-opacity="0.78"/>
      <stop offset="0.784" stop-color="#b13e8d"/>
      <stop offset="0.911" stop-color="#b13e8d" stop-opacity="0.969"/>
      <stop offset="1" stop-color="#b13e8d"/>
    </linearGradient>
    <filter id="Rectángulo_40720" x="41" y="4" width="108" height="108" filterUnits="userSpaceOnUse">
      <feOffset dy="3" input="SourceAlpha"/>
      <feGaussianBlur stdDeviation="3" result="blur"/>
      <feFlood flood-opacity="0.161"/>
      <feComposite operator="in" in2="blur"/>
      <feComposite in="SourceGraphic"/>
    </filter>
  </defs>
  <g id="Grupo_137014" data-name="Grupo 137014" transform="translate(-180 -399)">
    <rect id="Rectángulo_40586" data-name="Rectángulo 40586" width="190" height="20" transform="translate(180 444)" fill="none"/>
    <g id="Grupo_108405" data-name="Grupo 108405" transform="translate(209.5 463)">
      <path id="Rectángulo_5242" data-name="Rectángulo 5242" d="M0,0H12a0,0,0,0,1,0,0V43.333a3,3,0,0,1-3,3H3a3,3,0,0,1-3-3V0A0,0,0,0,1,0,0Z" transform="translate(0 0)" fill="url(#linear-gradient)"/>
    </g>
    <g id="Grupo_108406" data-name="Grupo 108406" transform="translate(340 451) rotate(180)">
      <path id="Rectángulo_5242-2" data-name="Rectángulo 5242" d="M0,0H12a0,0,0,0,1,0,0V49a3,3,0,0,1-3,3H3a3,3,0,0,1-3-3V0A0,0,0,0,1,0,0Z" transform="translate(0 0)" fill="url(#linear-gradient-2)"/>
    </g>
    <g transform="matrix(1, 0, 0, 1, 180, 399)" filter="url(#Rectángulo_40720)">
      <path id="Rectángulo_40720-2" data-name="Rectángulo 40720" d="M10,0H80A10,10,0,0,1,90,10V90a0,0,0,0,1,0,0H10A10,10,0,0,1,0,80V10A10,10,0,0,1,10,0Z" transform="translate(50 10)" fill="#f6f6f6"/>
    </g>
    <g id="Grupo_137016" data-name="Grupo 137016" transform="translate(462.339 366.717)">
      <path id="Trazado_197958" data-name="Trazado 197958" d="M-205.552,52.2c.421.4.863.785.6,1.457s-.842.759-1.477.745c-.779-.017-1.559,0-2.388,0V76.956h.775c3.725.009,7.45-.034,11.173.046a5.517,5.517,0,0,1,4.988,3.241c.47.912.81,1.891,1.193,2.847a3.794,3.794,0,0,0,3.785,2.559c6,.019,12,.007,18,.006.133,0,.266-.013.437-.022V54.4h-33.2c-.253,0-.553.078-.748-.029-.353-.2-.791-.448-.915-.781-.11-.3.143-.736.267-1.1.038-.112.175-.192.267-.286h35.876a1.518,1.518,0,0,1,.7,1.522c-.039.659-.009,1.322-.009,2.071h2.1c1.46,0,1.76.3,1.76,1.786q0,14.01-.009,28.02a1.151,1.151,0,0,0,.568,1.11,5.65,5.65,0,0,1,2.619,4.667c.042,1.192.034,2.386.024,3.579-.007.815-.445,1.3-1.106,1.3s-1.1-.519-1.107-1.321c-.015-1.032,0-2.065-.006-3.1a3.794,3.794,0,0,0-3.99-3.973q-10.625-.01-21.25,0a6.054,6.054,0,0,1-6.244-4.235c-.279-.7-.528-1.417-.843-2.1a3.693,3.693,0,0,0-3.57-2.342q-6.037-.012-12.074,0a3.749,3.749,0,0,0-3.934,3.942q-.01,16.936,0,33.872a3.328,3.328,0,0,0,3.5,3.507q22.457.008,44.914,0a3.331,3.331,0,0,0,3.488-3.521q.011-8.812.007-17.624a3.062,3.062,0,0,1,.118-.945.979.979,0,0,1,1.13-.69,1,1,0,0,1,.942.938,5.685,5.685,0,0,1,.027.618c0,5.829-.008,11.658.005,17.487a5.465,5.465,0,0,1-3.157,5.356,5.653,5.653,0,0,1-2.381.558q-22.629.048-45.259.018a5.487,5.487,0,0,1-5.535-5.283c-.015-.275-.027-.55-.027-.825q0-16.592-.008-33.183c0-2.565.955-4.612,3.3-5.72a1.794,1.794,0,0,0,1.168-2c-.037-7.32-.014-14.641-.03-21.962a1.585,1.585,0,0,1,.708-1.52Zm39.376,5.841V85.63h1.561V58.041Z" fill="#6836bf"/>
      <path id="Trazado_197959" data-name="Trazado 197959" d="M-145.069,97.457a5.981,5.981,0,0,1,2.326,3.892,4.478,4.478,0,0,1,.061.683,1.1,1.1,0,0,1-1.036,1.22,1.06,1.06,0,0,1-1.156-1.087,3.806,3.806,0,0,0-1.671-3.013,3.605,3.605,0,0,0-5.543,2.468c-.029.181-.062.362-.09.543-.116.746-.516,1.123-1.158,1.089a1.107,1.107,0,0,1-1.041-1.285,5.746,5.746,0,0,1,1.643-3.825c.22-.229.459-.439.735-.7a5.848,5.848,0,0,1-2.364-4.953,5.642,5.642,0,0,1,2-4.151,5.847,5.847,0,0,1,8.121.425A5.882,5.882,0,0,1-145.069,97.457Zm-3.459-1.118a3.706,3.706,0,0,0,3.644-3.645,3.689,3.689,0,0,0-3.678-3.6,3.679,3.679,0,0,0-3.607,3.6A3.7,3.7,0,0,0-148.528,96.339Z" transform="translate(-50.602 -28.716)" fill="#6836bf"/>
      <path id="Trazado_197960" data-name="Trazado 197960" d="M-54.509,125.648q3.654,0,7.309,0c.895,0,1.373.382,1.381,1.079s-.487,1.117-1.356,1.118q-7.309.006-14.617,0c-.86,0-1.386-.425-1.395-1.095s.5-1.1,1.37-1.1Q-58.163,125.643-54.509,125.648Z" transform="translate(-126.069 -60.783)" fill="#6836bf"/>
      <path id="Trazado_197961" data-name="Trazado 197961" d="M-54.436,156.61q3.481,0,6.963,0a5.044,5.044,0,0,1,.756.038.994.994,0,0,1,.886.915.974.974,0,0,1-.619,1.111,2.534,2.534,0,0,1-.94.149q-7.1.013-14.2.006c-.138,0-.277.007-.413-.006a1.19,1.19,0,0,1-1.184-1.11,1.112,1.112,0,0,1,1.239-1.1c2.5-.015,5.01-.006,7.514-.006Z" transform="translate(-126.068 -86.407)" fill="#6836bf"/>
      <path id="Trazado_197962" data-name="Trazado 197962" d="M-54.409,220.611q-3.516,0-7.032,0a7.1,7.1,0,0,1-.757-.028,1.009,1.009,0,0,1-.945-.938.992.992,0,0,1,.7-1.127,2.412,2.412,0,0,1,.809-.117q7.169-.01,14.339,0a2.428,2.428,0,0,1,.743.1,1,1,0,0,1,.745,1.161.994.994,0,0,1-.953.924,7.384,7.384,0,0,1-.757.026Q-50.962,220.613-54.409,220.611Z" transform="translate(-126.096 -137.539)" fill="#6836bf"/>
      <path id="Trazado_197963" data-name="Trazado 197963" d="M-57.466,96.75c-1.471,0-2.941,0-4.412,0-.812,0-1.312-.431-1.309-1.091s.516-1.1,1.317-1.1q4.377-.012,8.754,0c.831,0,1.376.481,1.348,1.146s-.524,1.046-1.356,1.049C-54.571,96.754-56.018,96.75-57.466,96.75Z" transform="translate(-126.07 -35.046)" fill="#6836bf"/>
      <path id="Trazado_197964" data-name="Trazado 197964" d="M-15.164,187.4c1.1,0,2.2,0,3.3,0a4.263,4.263,0,0,1,.749.071.99.99,0,0,1,.889,1.049.921.921,0,0,1-.884,1.04q-4.089.055-8.179,0a.918.918,0,0,1-.882-1.038.956.956,0,0,1,.88-1.048,15.786,15.786,0,0,1,1.713-.076C-16.771,187.387-15.967,187.4-15.164,187.4Z" transform="translate(-161.673 -111.882)" fill="#6836bf"/>
      <path id="Trazado_197965" data-name="Trazado 197965" d="M-60.173,187.382c.55,0,1.1-.023,1.649.006.818.044,1.27.476,1.254,1.149-.015.64-.455,1.057-1.25,1.079q-1.717.047-3.436,0a1.158,1.158,0,0,1-1.243-1.107c0-.6.492-1.052,1.239-1.122.046,0,.092,0,.137,0Z" transform="translate(-126.06 -111.866)" fill="#6836bf"/>
      <path id="Trazado_197966" data-name="Trazado 197966" d="M13.581,96.707c-.389,0-.778.016-1.166,0a1.083,1.083,0,0,1-.111-2.162,21.327,21.327,0,0,1,2.535-.006,1.086,1.086,0,0,1-.093,2.169C14.359,96.723,13.969,96.707,13.581,96.707Z" transform="translate(-187.732 -35.007)" fill="#6836bf"/>
    </g>
  </g>
</svg>
