<svg xmlns="http://www.w3.org/2000/svg" width="97.224" height="105" viewBox="0 0 97.224 105">
  <g id="Grupo_133244" data-name="Grupo 133244" transform="translate(536.014 28.353)">
    <path id="Trazado_190014" data-name="Trazado 190014" d="M-533.836,35.9q24.909.008,49.817,0c1.56,0,2.072-.525,2.075-2.1.007-3.861.016-7.723,0-11.584a9.048,9.048,0,0,0-6.567-9.1c-3.3-1.112-6.6-2.206-9.9-3.3-2.58-.859-2.557-.856-2.592-3.558a2.052,2.052,0,0,1,.756-1.768,10.552,10.552,0,0,0,2.52-3.329A1.374,1.374,0,0,1-496.612.3a5.155,5.155,0,0,0,3.873-7.117,4.869,4.869,0,0,1-.307-3.3c.122-.567.22-1.139.315-1.711.366-2.209.582-4.393-.477-6.514a17.437,17.437,0,0,0-12.17-9.627c-.477-.112-1.02-.013-1.43-.383h-4.512c-.088.266-.328.189-.513.221a16.5,16.5,0,0,0-7.72,3.334c-5.373,4.376-7.842,9.378-5.26,16.174a1.155,1.155,0,0,1-.2,1.117,5.282,5.282,0,0,0,2.033,7.26,12.66,12.66,0,0,1,3.927,3.363,2.56,2.56,0,0,0,.536.616c1.658,1.074,1.848,2.664,1.7,4.444a.99.99,0,0,1-.8,1.061c-4.051,1.322-8.1,2.661-12.126,4.052a9.006,9.006,0,0,0-6.151,8.577c-.035,4-.016,8-.007,11.994C-535.895,35.328-535.323,35.9-533.836,35.9Zm27.4-3.288c-.846-.067-1.7-.015-2.553-.015-.919,0-1.839-.007-2.758,0-.439,0-.593-.134-.5-.612.424-2.3.815-4.613,1.212-6.922.085-.495.284-.819.864-.73a4.032,4.032,0,0,0,.612,0c2.7,0,2.7,0,3.14,2.615.26,1.539.527,3.078.81,4.614C-505.487,32.25-505.56,32.676-506.437,32.607Zm1.4-22.853c-1.136.75-2.247,1.541-3.339,2.354a.742.742,0,0,1-1.058,0c-1.031-.78-2.067-1.566-3.168-2.239a1.884,1.884,0,0,1-.992-1.909c.026-.751.26-.722.832-.543a11.962,11.962,0,0,0,7.436.006c1.019-.335,1.2-.078,1.033.83C-504.113,8.962-504.464,9.379-505.032,9.754Zm-6.042,8.292a.7.7,0,0,0,.084-.058c2.122-1.522,2.093-1.481,4.227,0,1.166.809.305,1.727.27,2.576-.033.794-.777.42-1.222.473a11.263,11.263,0,0,1-1.326.012h-.408c-1.825,0-1.787-.007-2.128-1.853A.9.9,0,0,1-511.075,18.046Zm10.877,4.641a1.758,1.758,0,0,0,2,.274,1.733,1.733,0,0,0,.857-1.727c-.016-2.486-.006-4.973-.006-7.425.322-.155.535.011.751.082,2.458.812,4.919,1.615,7.366,2.46a5.641,5.641,0,0,1,3.986,5.284c.056,3.414.009,6.829.035,10.243,0,.585-.185.768-.76.752-1.3-.035-2.6-.049-3.891,0-.68.029-.787-.254-.773-.838.034-1.365.02-2.731.008-4.1-.011-1.277-.643-2.01-1.686-1.991-1,.018-1.582.726-1.59,1.961-.009,1.4-.027,2.8.009,4.2.015.58-.169.768-.753.761q-3.38-.042-6.76,0c-.569.008-.778-.213-.865-.738-.438-2.623-.941-5.235-1.334-7.864a11.422,11.422,0,0,1,.476-3.411C-502.082,21.354-501.127,22-500.2,22.687Zm-.433-9.3c0,1.583,0,3.166,0,4.961l-5.437-3.863c1.175-.83,2.234-1.656,3.371-2.353A1.54,1.54,0,0,1-500.631,13.388ZM-496.3-3.473V-6.327C-495.318-5.286-495.323-4.438-496.3-3.473Zm-25.488-.167c-.837-.711-.868-1.519,0-2.6Zm1-6.544c-.605.363-1.138.076-1.384-.776-1.276-4.427.642-7.724,3.742-10.532a14.146,14.146,0,0,1,9.837-3.594,14.276,14.276,0,0,1,11.8,6.916c1.281,1.946,1.191,3.984.781,6.1-.084.434-.132.878-.243,1.3-.069.263-.012.645-.485.653a.747.747,0,0,1-.825-.6,24.234,24.234,0,0,0-1.321-3.325,11.748,11.748,0,0,0-1.325-2.18c-1.975-2.554-5.212-2.569-6.977.133-2.464,3.772-6.026,5.236-10.33,5.374A6.208,6.208,0,0,0-520.791-10.184Zm2.276,5.621c0-.1,0-.205,0-.308-.007-2.386-.005-2.365,2.346-2.6,4.786-.48,8.789-2.348,11.51-6.51.712-1.09,1.322-1.109,2.01,0a22.451,22.451,0,0,1,3.084,8.542c.008,5.885-4.111,10.076-9.3,10.134A9.5,9.5,0,0,1-518.514-4.562Zm1.323,17.587c.015-.69,1.543-1.256,2.214-.816.938.615,1.837,1.289,2.759,1.929.322.224.414.411.032.679-1.61,1.128-3.21,2.27-5.017,3.551C-517.2,16.411-517.227,14.717-517.191,13.025Zm-15.389,8.6a5.521,5.521,0,0,1,3.92-5.239c2.467-.89,4.982-1.649,7.459-2.513.667-.232.73,0,.725.569-.02,2.186,0,4.372-.012,6.558a1.922,1.922,0,0,0,.947,2,1.886,1.886,0,0,0,2.08-.405c.875-.646,1.774-1.26,2.747-1.948a10.375,10.375,0,0,1,.184,5.462c-.448,1.923-.72,3.889-1.028,5.843-.079.5-.249.688-.772.682q-3.432-.037-6.865,0c-.569.007-.683-.226-.674-.729.024-1.4.02-2.8,0-4.2-.014-1.273-.661-2.026-1.686-2.01-.993.016-1.579.731-1.588,1.97-.01,1.4-.026,2.8.008,4.2.014.575-.162.784-.752.769-1.365-.035-2.733-.026-4.1,0-.488.008-.651-.166-.649-.654C-532.611,28.52-532.713,25.067-532.58,21.621Z" transform="translate(-0.075)" fill="#6836bf"/>
    <path id="Trazado_190015" data-name="Trazado 190015" d="M-301.866-22.677c.032-2.742-.855-4.69-3.495-5.676h-38.552c-2.028.8-3.448,2.124-3.457,4.433q-.049,12.762,0,25.525a4.434,4.434,0,0,0,4.423,4.464,19.084,19.084,0,0,0,2.356-.007c.891-.078,1.261.146,1.2,1.142-.1,1.566-.046,3.143-.018,4.714a1.631,1.631,0,0,0,2.543,1.522c.244-.121.475-.269.712-.4q5.676-3.273,11.346-6.555a2.915,2.915,0,0,1,1.544-.412q8.149.021,16.3.007c3.278,0,5.068-1.792,5.069-5.073C-301.9-6.892-301.957-14.786-301.866-22.677Zm-3.309,23.89c0,1.2-.43,1.587-1.728,1.587q-8.454.007-16.909-.008a4.113,4.113,0,0,0-2.224.589c-2.931,1.748-5.9,3.44-8.85,5.147-.349.2-.715.373-1.244.647,0-1.6.012-3.037,0-4.47-.014-1.3-.589-1.885-1.871-1.9-1.5-.016-3.006.006-4.509-.008-1.178-.011-1.592-.424-1.593-1.616q-.009-12.3,0-24.6c0-1.26.4-1.655,1.649-1.656q17.831-.005,35.662,0c1.2,0,1.619.4,1.62,1.583Q-305.164-11.137-305.175,1.213Z" transform="translate(-136.925)" fill="#6836bf"/>
    <path id="Trazado_190016" data-name="Trazado 190016" d="M-450.306,233.572a14.893,14.893,0,0,0-7.25-4.911c4.684-4.786,5.291-9.934,1.706-14a9.365,9.365,0,0,0-12.685-1.34,8.954,8.954,0,0,0-3.624,5.982,9.467,9.467,0,0,0,3.96,9.337,15.457,15.457,0,0,0-9.017,7.407,15.312,15.312,0,0,0-8.986-7.425,9.476,9.476,0,0,0,4.088-7.141,9.1,9.1,0,0,0-2.982-7.548,9.385,9.385,0,0,0-13.052.278c-4.016,4.022-3.567,9.245,1.29,14.447a15.211,15.211,0,0,0-8.85,7.327c-3.9-5.088-3.913-5.1-8.987-7.417a9.459,9.459,0,0,0,3.989-6.988A9.072,9.072,0,0,0-513.6,214a9.369,9.369,0,0,0-12.9.015,9.057,9.057,0,0,0-2.907,6.358,9.452,9.452,0,0,0,4.1,8.254c-.29.1-.441.148-.589.2a14.673,14.673,0,0,0-9.764,11.2c-.6,2.766-.259,5.585-.316,8.38-.036,1.789.511,2.3,2.321,2.3h84.373c1.765,0,2.274-.5,2.275-2.228,0-2.016.041-4.034-.019-6.049A14.521,14.521,0,0,0-450.306,233.572Zm-75.842-12.7a6.059,6.059,0,0,1,6.112-6.1,6.07,6.07,0,0,1,6.122,6.1,6.185,6.185,0,0,1-6.129,6.04A6.141,6.141,0,0,1-526.148,220.875Zm17.913,26.569c-3.959-.03-7.919-.015-11.878-.015-3.891,0-7.782-.016-11.673.015-.688.005-.959-.138-.926-.887.091-2.041-.159-4.1.308-6.12,1.265-5.473,5.719-8.959,11.567-9.155,4.075-.137,7.712.783,10.525,3.962a11.8,11.8,0,0,1,2.931,8.079c0,1.092-.038,2.187.016,3.276C-507.331,247.287-507.576,247.449-508.235,247.444Zm10.626-26.62a6.1,6.1,0,0,1,6.192-6.046,6.053,6.053,0,0,1,6.056,6.052,6.142,6.142,0,0,1-6.167,6.091A6.193,6.193,0,0,1-497.61,220.824Zm17.9,26.621c-3.928-.033-7.857-.016-11.786-.016-3.894,0-7.789-.015-11.683.015-.686.005-.966-.136-.932-.888a39.952,39.952,0,0,1,.207-5.727c1.073-5.634,5.591-9.331,11.557-9.541,3.478-.123,6.737.441,9.462,2.828a11.611,11.611,0,0,1,4.063,8.736c.038,1.229-.035,2.462.026,3.689C-478.762,247.273-479,247.452-479.713,247.445Zm10.741-26.577a5.933,5.933,0,0,1,6.07-6.09,5.963,5.963,0,0,1,6.066,6,6.078,6.078,0,0,1-6.086,6.138A6.044,6.044,0,0,1-468.972,220.868Zm17.861,26.577c-3.963-.032-7.926-.016-11.889-.016-3.895,0-7.79-.014-11.684.014-.647,0-.9-.14-.865-.838.105-2.143-.2-4.308.327-6.429,1.305-5.273,5.728-8.672,11.482-8.89,3.995-.151,7.6.712,10.4,3.791a11.352,11.352,0,0,1,3.042,7.518c.039,1.331-.024,2.666.029,4C-450.237,247.261-450.436,247.45-451.111,247.445Z" transform="translate(0 -174.064)" fill="#6836bf"/>
    <path id="Trazado_190017" data-name="Trazado 190017" d="M-285.358-1.5a1.812,1.812,0,0,0-1.495-1.922,1.336,1.336,0,0,1-.858-2.139,1.745,1.745,0,0,0-.346-2.388q-1.085-1.013-2.1-2.1a1.736,1.736,0,0,0-2.308-.345c-1.1.576-1.876.241-2.26-.981a1.686,1.686,0,0,0-1.8-1.337c-1.024.021-2.049.031-3.073,0a1.774,1.774,0,0,0-1.886,1.4c-.382,1.161-1.134,1.494-2.2.931a1.732,1.732,0,0,0-2.309.332c-.7.744-1.433,1.465-2.174,2.172a1.709,1.709,0,0,0-.285,2.311,1.367,1.367,0,0,1-.946,2.172,1.736,1.736,0,0,0-1.4,1.869c.029,1.023.012,2.049,0,3.073A1.743,1.743,0,0,0-309.377,3.4c1.164.334,1.482,1.126.905,2.212a1.731,1.731,0,0,0,.32,2.311c.744.7,1.458,1.439,2.178,2.167a1.726,1.726,0,0,0,2.315.293,1.352,1.352,0,0,1,2.159.855,1.835,1.835,0,0,0,2.014,1.5c.99-.023,1.98,0,2.97-.007a1.727,1.727,0,0,0,1.8-1.363c.386-1.269,1.116-1.538,2.356-.9a1.606,1.606,0,0,0,.852.226,1.686,1.686,0,0,0,1.292-.574c.725-.724,1.443-1.454,2.177-2.168a1.79,1.79,0,0,0,.318-2.4,1.338,1.338,0,0,1,.912-2.137,1.784,1.784,0,0,0,1.453-1.939C-285.374.484-285.371-.507-285.358-1.5ZM-289.252.6a1.852,1.852,0,0,0-1.288,1.444,7.192,7.192,0,0,1-.7,1.7,1.927,1.927,0,0,0-.083,2.286c.208.286.131.479-.089.707-.255.263-.47.177-.715,0a1.73,1.73,0,0,0-2.01.009,9.019,9.019,0,0,1-1.876.8,1.889,1.889,0,0,0-1.5,1.358c-.084.3-.184.579-.6.56s-.489-.284-.568-.6a1.746,1.746,0,0,0-1.417-1.3,6.783,6.783,0,0,1-1.608-.645c-.821-.463-1.606-.781-2.459-.1a1.23,1.23,0,0,1-.276.124c-.377-.228-.747-.445-.391-.949a1.875,1.875,0,0,0-.064-2.195A9.861,9.861,0,0,1-305.637,2,1.854,1.854,0,0,0-306.96.585c-.3-.076-.578-.192-.555-.608s.29-.5.607-.562a1.254,1.254,0,0,0,.293-.087c.98-.471,2.33-4.18,1.872-5.171-.124-.269-.375-.474-.07-.808.324-.354.592-.2.9-.02a2.132,2.132,0,0,0,.371.17c.9.314,4.515-1.337,4.839-2.229.117-.323.13-.673.6-.687s.519.35.628.665c.011.032.015.067.029.1.478,1.077,4.11,2.482,5.178,1.993.308-.141.56-.36.9-.011.366.373.055.607-.087.892-.03.061-.05.127-.075.19-.383,1,1.233,4.636,2.242,4.991.339.119.653.169.645.635C-288.649.464-288.97.512-289.252.6Z" transform="translate(-163.486 -11.356)" fill="#6836bf"/>
    <path id="Trazado_190018" data-name="Trazado 190018" d="M-280.616,11.307a6.144,6.144,0,0,0-6.189,6.064,6.154,6.154,0,0,0,6.141,6.228,6.206,6.206,0,0,0,6.151-6.126A6.172,6.172,0,0,0-280.616,11.307Zm-.029,9a2.888,2.888,0,0,1-2.877-2.844,2.868,2.868,0,0,1,2.835-2.877,2.884,2.884,0,0,1,2.887,2.832A2.9,2.9,0,0,1-280.645,20.31Z" transform="translate(-180.908 -28.79)" fill="#6836bf"/>
  </g>
</svg>
