<svg xmlns="http://www.w3.org/2000/svg" width="105.004" height="105" viewBox="0 0 105.004 105">
  <g id="Grupo_133247" data-name="Grupo 133247" transform="translate(1006.306 -12.457)">
    <path id="Trazado_190019" data-name="Trazado 190019" d="M-988.8,89.457c-3.38,0-6.588.042-9.793-.031a4.8,4.8,0,0,1-2.214-.683c-1.5-.885-2.918-1.926-4.39-2.868a2.258,2.258,0,0,1-1.113-2.094q.027-11.866,0-23.731a2.005,2.005,0,0,1,1.4-2.091c2.709-1.064,5.4-2.173,8.113-3.23a4.323,4.323,0,0,1,1.486-.26c2.113-.028,4.225-.012,6.511-.012V53.163q0-17.389,0-34.777c0-3.856,2.081-5.928,5.953-5.929h54.572c3.931,0,5.974,2.058,5.975,6.018q0,46.478,0,92.957c0,3.953-2.052,6.023-5.972,6.024q-27.286,0-54.572,0c-3.862,0-5.954-2.084-5.955-5.929q0-10.389,0-20.779Zm3.536-21c-.017.345-.034.525-.034.7q0,21.323,0,42.646c0,1.574.636,2.151,2.33,2.151q27.337,0,54.675,0c1.986,0,2.492-.517,2.492-2.542q0-46.474,0-92.947c0-2-.509-2.51-2.521-2.51h-54.456c-2.016,0-2.522.5-2.522,2.507q0,17.386,0,34.773v1.219h1.336c3.1,0,6.2-.036,9.295.013a6.972,6.972,0,0,1,6.863,7.165,6.971,6.971,0,0,1-6.892,6.81C-978.185,68.49-981.677,68.454-985.26,68.454Zm-12.247,3.583c.414-.087.8-.155,1.18-.249a5.256,5.256,0,0,0,4.014-4.64c.177-1.769.636-2.189,2.418-2.19q7.381,0,14.761,0A3.537,3.537,0,0,0-971.3,61.49c.02-2.065-1.575-3.528-3.876-3.532-4.483-.006-8.975.185-13.446-.053A24.775,24.775,0,0,0-1001.8,60.5a.382.382,0,0,1-.1.044c-.736.139-.925.567-.92,1.312.035,5.941.179,11.888-.053,17.819-.1,2.679.541,4.464,3.017,5.6a5.391,5.391,0,0,0,2.439.7c2.55-.047,5.1-.014,7.653-.019.311,0,.622-.041.907-.061V68.58c-2.31,4.915-5.363,7.271-8.657,6.729Z" transform="translate(0 0)" fill="#6836bf"/>
    <path id="Trazado_190020" data-name="Trazado 190020" d="M-696.357,106.761c1.8,0,3.434-.018,5.07.006a1.708,1.708,0,0,1,1.915,1.782c.02,5.721,0,11.442-.006,17.164,0,.063-.052.127-.1.243h-3.336V110.327h-3.54v1.317c0,16,.05,32-.057,48a32.07,32.07,0,0,1-1.25,6.72c-.663,2.908-1.448,5.789-2.151,8.688-.241,1-.74,1.7-1.825,1.685-1.025-.015-1.511-.687-1.747-1.643-1.107-4.486-2.244-8.965-3.358-13.449a4.523,4.523,0,0,1-.107-1.082q-.007-29.464,0-58.928a5.26,5.26,0,0,1,4.423-5.314,5.17,5.17,0,0,1,5.674,3.288,7.748,7.748,0,0,1,.381,2.346C-696.317,103.508-696.357,105.07-696.357,106.761Zm-3.575,52.448v-48.86h-3.37v48.86Zm.064-52.494c0-1.833.039-3.571-.015-5.307a1.683,1.683,0,0,0-1.707-1.64,1.676,1.676,0,0,0-1.738,1.605c-.058,1.765-.016,3.533-.016,5.342Zm-2.986,56.076,1.121,4.459.254,0,1.107-4.462Z" transform="translate(-211.94 -59.303)" fill="#6836bf"/>
    <path id="Trazado_190021" data-name="Trazado 190021" d="M-892.515,51.725c0-1.968.022-3.936-.009-5.9a1.989,1.989,0,0,1,1.318-2.04c5.059-2.234,10.1-4.509,15.181-6.693a2.889,2.889,0,0,1,2.058,0c5.045,2.175,10.048,4.445,15.076,6.659a2.129,2.129,0,0,1,1.388,2.22c-.034,3.608.021,7.216-.023,10.823a15.359,15.359,0,0,1-5.206,11.613c-3.56,3.234-7.175,6.408-10.772,9.6-1.154,1.025-1.879,1.013-3.051-.029q-5.229-4.648-10.455-9.3a15.707,15.707,0,0,1-5.508-12.36C-892.508,54.787-892.515,53.256-892.515,51.725Zm17.487,22.96c3.5-3.118,6.915-6.074,10.227-9.144a11.7,11.7,0,0,0,3.778-8.78c.034-3.1-.015-6.194.026-9.291a1.117,1.117,0,0,0-.811-1.2c-4.163-1.829-8.306-3.7-12.476-5.516a1.97,1.97,0,0,0-1.413-.008c-4.2,1.828-8.379,3.717-12.574,5.563a1.038,1.038,0,0,0-.76,1.115c.038,3.206-.024,6.414.034,9.619a10.906,10.906,0,0,0,3.218,7.9C-882.324,68.277-878.672,71.4-875.029,74.685Z" transform="translate(-80.531 -17.3)" fill="#6836bf"/>
    <path id="Trazado_190022" data-name="Trazado 190022" d="M-839.417,228.214v3.377h-34.889v-3.377Z" transform="translate(-93.425 -152.706)" fill="#6836bf"/>
    <path id="Trazado_190023" data-name="Trazado 190023" d="M-839.368,264.22v3.371h-34.861V264.22Z" transform="translate(-93.48 -178.189)" fill="#6836bf"/>
    <path id="Trazado_190024" data-name="Trazado 190024" d="M-874.359,303.459v-3.367h34.86v3.367Z" transform="translate(-93.388 -203.578)" fill="#6836bf"/>
    <path id="Trazado_190025" data-name="Trazado 190025" d="M-874.449,339.464v-3.353h34.9v3.353Z" transform="translate(-93.324 -229.071)" fill="#6836bf"/>
    <path id="Trazado_190026" data-name="Trazado 190026" d="M-910.29,231.665V228.3h6.882v3.366Z" transform="translate(-67.957 -152.766)" fill="#6836bf"/>
    <path id="Trazado_190027" data-name="Trazado 190027" d="M-903.4,267.622h-6.866v-3.366h6.866Z" transform="translate(-67.977 -178.215)" fill="#6836bf"/>
    <path id="Trazado_190028" data-name="Trazado 190028" d="M-903.294,300.159v3.366h-6.863v-3.366Z" transform="translate(-68.051 -203.626)" fill="#6836bf"/>
    <path id="Trazado_190029" data-name="Trazado 190029" d="M-910.384,339.47v-3.344h6.9v3.344Z" transform="translate(-67.89 -229.082)" fill="#6836bf"/>
    <path id="Trazado_190030" data-name="Trazado 190030" d="M-838.908,75.574l2.727,2.691c-3.29,3.284-6.548,6.559-9.836,9.8a1.62,1.62,0,0,1-2.446.076c-1.672-1.611-3.28-3.287-4.888-4.912l2.417-2.472,3.425,3.649Z" transform="translate(-108.257 -44.672)" fill="#6836bf"/>
  </g>
</svg>
