<svg xmlns="http://www.w3.org/2000/svg" width="110.304" height="105" viewBox="0 0 110.304 105">
  <g id="Grupo_136915" data-name="Grupo 136915" transform="translate(2148.703 246.762)">
    <path id="Trazado_190037" data-name="Trazado 190037" d="M-2148.7-147.506V-241.02a7.246,7.246,0,0,1,2.489-3.942,31.535,31.535,0,0,1,3.542-1.8h74.96c.051.045.095.114.155.132,4.149,1.258,5.876,3.5,5.876,7.629q0,14.147,0,28.294v1.059l.336.159a7.457,7.457,0,0,1,.7-.9c3.015-2.88,5.977-5.815,9.084-8.6,4.041-3.625,10.675-2.136,12.6,2.794,1.225,3.14.407,5.9-2.057,8.252-6.5,6.187-12.977,12.389-19.513,18.538a3.4,3.4,0,0,0-1.175,2.763c.041,12.4.026,24.809.025,37.214,0,4.8-3,7.666-8.015,7.666q-22.882,0-45.764,0-12.76,0-25.52,0c-3.816,0-6.473-1.919-7.527-5.4A1.752,1.752,0,0,0-2148.7-147.506Zm74.06-32.859c-2.094.883-4.066,1.686-6.011,2.544a2.376,2.376,0,0,1-2.873-.263c-.857-.834-.675-1.773-.212-2.75,1.768-3.733,3.552-7.46,5.231-11.229a10.54,10.54,0,0,1,3.149-4.312,1.985,1.985,0,0,0,.77-1.785q-.033-17.585-.016-35.169V-234.4h-12.217c-.025.288-.042.521-.066.753a6.511,6.511,0,0,1-6.4,5.723q-11.9.087-23.8,0a6.523,6.523,0,0,1-6.2-4.713c-.16-.58-.231-1.183-.341-1.767H-2135.7v80.331h20.847c.251,0,.5,0,.754,0,1.473.026,2.441.839,2.441,2.048s-.968,2.047-2.438,2.049q-11.632.013-23.263,0c-1.978,0-2.722-.714-2.722-2.608q0-41.681,0-83.361c0-1.939.735-2.621,2.814-2.622q6.246,0,12.493,0h1.179v-4.1h-1.141q-7.97,0-15.939,0c-2.625,0-3.714,1.042-3.714,3.552q0,44.859,0,89.718c0,2.489,1.1,3.524,3.745,3.524h70.865c2.714,0,3.795-1.019,3.8-3.58q0-16.764,0-33.529v-1.076c-1.217.522-2.265,1.044-3.367,1.419a1.254,1.254,0,0,0-.958,1.443q.04,14.252.017,28.5c0,2.04-.7,2.715-2.827,2.716q-11.416,0-22.832,0a6.934,6.934,0,0,1-.86-.022,2.1,2.1,0,0,1-1.905-2.025,2.088,2.088,0,0,1,1.9-2.028,8.929,8.929,0,0,1,1.076-.024h21.1Zm-16.539-62.229h-28.032c0,2.658-.006,5.249,0,7.84.006,1.907.887,2.751,2.883,2.754q5.813.01,11.625,0c3.624,0,7.248.009,10.872,0,1.546-.006,2.608-.82,2.635-2.141C-2091.144-236.938-2091.182-239.734-2091.182-242.593Zm4.355,4.034h1.241q6.189,0,12.379,0c2.224,0,2.91.644,2.91,2.735q0,16.654,0,33.307v1.068l.267.105c1.114-1.1,2.271-2.165,3.319-3.319a2.607,2.607,0,0,0,.693-1.577q.059-16.5.028-33c0-2.349-1.14-3.419-3.634-3.42q-8.073,0-16.147,0c-.343,0-.686.033-1.057.052Zm33.738,26.882-19.167,18.261,4.8,4.6,19.156-18.252Zm3.228-3.113,4.9,4.724c1.316-1.049,2.546-2.191,2.16-4.082a3.245,3.245,0,0,0-2.558-2.619C-2047.407-217.267-2048.737-216.159-2049.861-214.79Zm-21.671,28.609-3.429-3.327-2.778,5.953Z" transform="translate(0 0)" fill="#6836bf"/>
    <path id="Trazado_190038" data-name="Trazado 190038" d="M-2051.885-108.916c-2.187,0-4.373.012-6.56,0a2.188,2.188,0,0,1-2.44-2.471q-.017-6.56,0-13.121a2.2,2.2,0,0,1,2.524-2.494q6.507-.014,13.013,0c1.758,0,2.547.8,2.55,2.579q.012,6.453,0,12.906c0,1.826-.789,2.6-2.634,2.6C-2047.583-108.91-2049.734-108.915-2051.885-108.916Zm4.721-4.358v-9.358h-9.338v9.358Z" transform="translate(-68.858 -95.387)" fill="#6836bf"/>
    <path id="Trazado_190039" data-name="Trazado 190039" d="M-2042.794-8.121c0,2.115.005,4.23,0,6.345-.006,1.859-.769,2.642-2.594,2.645q-6.453.011-12.906,0c-1.779,0-2.586-.791-2.59-2.54q-.013-6.506,0-13.013c0-1.748.81-2.533,2.592-2.536q6.453-.01,12.906,0c1.825,0,2.586.786,2.592,2.646C-2042.789-12.422-2042.794-10.272-2042.794-8.121Zm-13.732,4.615h9.344v-9.356h-9.344Z" transform="translate(-68.86 -182.839)" fill="#6836bf"/>
    <path id="Trazado_190040" data-name="Trazado 190040" d="M-2051.837,110.658c-2.151,0-4.3.006-6.453,0-1.781-.007-2.592-.79-2.6-2.534q-.014-6.506,0-13.013c0-1.753.806-2.539,2.586-2.542q6.453-.011,12.906,0c1.826,0,2.6.786,2.6,2.64q.009,6.4,0,12.8c0,1.9-.77,2.647-2.7,2.652C-2047.607,110.662-2049.722,110.658-2051.837,110.658Zm4.659-4.356V96.958h-9.345V106.3Z" transform="translate(-68.86 -270.29)" fill="#6836bf"/>
    <path id="Trazado_190041" data-name="Trazado 190041" d="M-1922.6,111.89c-1.064,1.136-1.971,2.146-2.923,3.113-1.177,1.195-2.446,1.32-3.4.387s-.823-2.252.33-3.4c.965-.958,1.957-1.889,3.088-2.976-1.2-1.168-2.3-2.222-3.378-3.308a2.079,2.079,0,0,1-.42-2.566,1.837,1.837,0,0,1,2.027-1.1,3.576,3.576,0,0,1,1.652.878c1.028.937,1.964,1.976,3.179,3.222,1.152-1.255,2.17-2.451,3.285-3.548a2.084,2.084,0,0,1,2.924-.025,2.132,2.132,0,0,1,.119,3,12.873,12.873,0,0,1-1.048,1.08c-.774.737-1.559,1.463-2.549,2.389,1.277,1.19,2.434,2.2,3.51,3.292a2.075,2.075,0,0,1,.26,2.753,2.088,2.088,0,0,1-2.477.769,3.723,3.723,0,0,1-1.119-.807C-1920.508,114.089-1921.439,113.095-1922.6,111.89Z" transform="translate(-171.839 -277.61)" fill="#6836bf"/>
    <path id="Trazado_190042" data-name="Trazado 190042" d="M-1933.781-108.618c2.762-2.771,5.374-5.376,7.966-8a2.314,2.314,0,0,1,2.514-.765,2.155,2.155,0,0,1,.67,3.67c-2,2.053-4.048,4.063-6.075,6.091-1.09,1.09-2.169,2.191-3.273,3.267a2.206,2.206,0,0,1-3.478.028q-2.228-2.182-4.412-4.408a2.166,2.166,0,0,1-.152-3.24,2.139,2.139,0,0,1,3.161.174C-1935.838-110.8-1934.867-109.746-1933.781-108.618Z" transform="translate(-163.128 -102.893)" fill="#6836bf"/>
    <path id="Trazado_190043" data-name="Trazado 190043" d="M-1933.765,1.159l7.488-7.523c.253-.254.5-.52.766-.754a2.149,2.149,0,0,1,3.008.016,2.106,2.106,0,0,1,.027,3c-.568.644-1.2,1.229-1.811,1.837q-3.763,3.765-7.528,7.527c-1.384,1.378-2.463,1.367-3.862-.024-1.372-1.365-2.75-2.725-4.108-4.1-1.1-1.121-1.185-2.4-.247-3.318s2.182-.829,3.318.3C-1935.75-.923-1934.818.069-1933.765,1.159Z" transform="translate(-163.128 -190.282)" fill="#6836bf"/>
    <path id="Trazado_190044" data-name="Trazado 190044" d="M-1952.748,206.507a2.172,2.172,0,0,1-2.168,2.178,2.172,2.172,0,0,1-2.123-2.115,2.169,2.169,0,0,1,2.167-2.177A2.172,2.172,0,0,1-1952.748,206.507Z" transform="translate(-150.298 -359.072)" fill="#6836bf"/>
  </g>
</svg>
