<svg xmlns="http://www.w3.org/2000/svg" width="110.362" height="105" viewBox="0 0 110.362 105">
  <g id="Grupo_136913" data-name="Grupo 136913" transform="translate(2698.732 750.299)">
    <path id="Trazado_190045" data-name="Trazado 190045" d="M-2691.891-712.243c-1.438-3.725-2.867-7.423-4.294-11.122-.715-1.853-1.449-3.7-2.132-5.563a5.561,5.561,0,0,1,3.589-7.5q18.656-6.737,37.333-13.424a5.9,5.9,0,0,1,7.945,3.531q5.44,14,10.833,28.007c.156.4.333.8.575,1.384.814-1.415,1.593-2.655,2.251-3.952a2.735,2.735,0,0,1,2.759-1.568q11.89.039,23.777,0a2.874,2.874,0,0,1,2.859,1.618c1.267,2.352,2.653,4.643,3.938,6.986a1.478,1.478,0,0,0,1.522.891c2.176-.049,4.352-.032,6.529-.013,3.607.031,6.03,2.364,6.031,5.835q.01,27.987,0,55.974a5.64,5.64,0,0,1-6.018,5.845q-38.684.012-77.367,0c-1.554,0-2.473-.7-2.506-1.865-.034-1.213.9-1.922,2.539-1.935.369,0,.739,0,1.108,0h75.643c2.156,0,2.661-.494,2.662-2.6q0-27.452,0-54.9c0-2.065-.518-2.553-2.713-2.555-2.505,0-5.011-.034-7.515.013a2.578,2.578,0,0,1-2.568-1.453c-1.3-2.379-2.692-4.713-4-7.09a1.592,1.592,0,0,0-1.616-.954q-10.41.054-20.819.005a1.5,1.5,0,0,0-1.524.89c-1.263,2.309-2.645,4.559-3.879,6.881a3,3,0,0,1-3.027,1.731q-23.777-.057-47.554-.024c-.328,0-.657-.008-.985,0-1.751.052-2.355.641-2.356,2.309q0,25.848,0,51.7c0,1.268-.005,2.535,0,3.8.009,1.629.619,2.236,2.283,2.243,2.669.011,5.339-.006,8.008.007,1.489.007,2.318.7,2.323,1.878s-.833,1.907-2.3,1.916c-2.833.016-5.668.037-8.5,0a5.6,5.6,0,0,1-5.748-5.62q-.022-28.225-.007-56.449A5.411,5.411,0,0,1-2691.891-712.243Zm51.047-.733c-.1-.359-.151-.586-.234-.8q-6.008-15.559-12.027-31.114c-.619-1.6-1.453-1.926-3.185-1.3q-18.259,6.564-36.514,13.136c-2.027.729-2.366,1.406-1.628,3.32,2,5.187,4.039,10.361,5.979,15.569a1.623,1.623,0,0,0,1.852,1.213q22.17-.044,44.34-.02Z" transform="translate(0 0)" fill="#6836bf"/>
    <path id="Trazado_190046" data-name="Trazado 190046" d="M-2555.87-583.074c0,13.687-9.675,26.209-26.638,26.445-14.45.2-26.378-11.984-26.369-26.532s11.942-26.714,26.395-26.5C-2565.446-609.406-2555.8-596.784-2555.87-583.074Zm-49.052-.068c0,12.95,9.794,22.718,22.817,22.755a22.818,22.818,0,0,0,22.606-22.765,22.8,22.8,0,0,0-22.615-22.749C-2595.134-605.87-2604.921-596.1-2604.921-583.141Z" transform="translate(-59.24 -95.998)" fill="#6836bf"/>
    <path id="Trazado_190047" data-name="Trazado 190047" d="M-2487.135-634.845c-2.847,0-5.7.07-8.539-.053a2.588,2.588,0,0,1-1.824-1.145,2.266,2.266,0,0,1,.309-1.906,2.079,2.079,0,0,1,1.54-.663q8.6-.069,17.2-.016a1.881,1.881,0,0,1,2.052,1.968,1.871,1.871,0,0,1-2.079,1.806C-2481.362-634.826-2484.249-634.845-2487.135-634.845Z" transform="translate(-134.347 -76.213)" fill="#6836bf"/>
    <path id="Trazado_190048" data-name="Trazado 190048" d="M-2650.055-597.617a1.864,1.864,0,0,1-1.779-1.975A1.88,1.88,0,0,1-2650-601.4a1.877,1.877,0,0,1,1.839,1.924A1.853,1.853,0,0,1-2650.055-597.617Z" transform="translate(-32.011 -101.639)" fill="#6836bf"/>
    <path id="Trazado_190049" data-name="Trazado 190049" d="M-2648.162-570.774a1.822,1.822,0,0,1-1.89,1.846,1.823,1.823,0,0,1-1.792-1.825,1.871,1.871,0,0,1,1.831-1.93A1.868,1.868,0,0,1-2648.162-570.774Z" transform="translate(-32.006 -121.239)" fill="#6836bf"/>
    <path id="Trazado_190050" data-name="Trazado 190050" d="M-2645.492-726.237l-29.187,10.883,3.694,9.3c.395.992.812,1.975,1.177,2.978a1.893,1.893,0,0,1-1.013,2.658,1.858,1.858,0,0,1-2.471-1.212q-2.826-6.98-5.585-13.988c-.517-1.317-.015-2.209,1.427-2.747q13.994-5.229,27.992-10.447c1.37-.511,2.732-1.045,4.109-1.536,1.47-.524,2.36-.135,2.906,1.322q4.66,12.438,9.283,24.889c.491,1.322.094,2.343-1,2.77-1.057.413-2.059-.122-2.552-1.44q-4.2-11.216-8.382-22.44C-2645.2-725.54-2645.327-725.828-2645.492-726.237Z" transform="translate(-13.418 -13.465)" fill="#6836bf"/>
    <path id="Trazado_190051" data-name="Trazado 190051" d="M-2543.344-560.474A16.315,16.315,0,0,1-2560.45-544.5a16.038,16.038,0,0,1-14.969-17.882c1.327-10.976,13.643-17.456,23.307-12.271a1.961,1.961,0,0,1,1.269,2.173,1.727,1.727,0,0,1-1.716,1.533,4.254,4.254,0,0,1-1.664-.523c-4.713-2.072-9.207-1.587-13.142,1.643-4.04,3.316-5.111,7.814-3.786,12.772a11.09,11.09,0,0,0,9.5,8.509A12.151,12.151,0,0,0-2547.861-564c-.042-.152-.088-.3-.128-.457a1.932,1.932,0,0,1,1.146-2.515,1.868,1.868,0,0,1,2.464,1.411C-2543.945-563.887-2543.681-562.171-2543.344-560.474Z" transform="translate(-82.027 -118.657)" fill="#6836bf"/>
  </g>
</svg>
