<svg xmlns="http://www.w3.org/2000/svg" xmlns:xlink="http://www.w3.org/1999/xlink" width="190" height="112" viewBox="0 0 190 112">
  <defs>
    <linearGradient id="linear-gradient" x1="0.5" x2="0.5" y2="1" gradientUnits="objectBoundingBox">
      <stop offset="0" stop-color="#f7ca2e" stop-opacity="0"/>
      <stop offset="0.091" stop-color="#f7ca2e" stop-opacity="0.129"/>
      <stop offset="0.283" stop-color="#f7ca2e" stop-opacity="0.388"/>
      <stop offset="0.465" stop-color="#f7ca2e" stop-opacity="0.612"/>
      <stop offset="0.633" stop-color="#f7ca2e" stop-opacity="0.78"/>
      <stop offset="0.784" stop-color="#f7ca2e" stop-opacity="0.902"/>
      <stop offset="0.911" stop-color="#f7ca2e" stop-opacity="0.969"/>
      <stop offset="1" stop-color="#f7ca2e"/>
    </linearGradient>
    <linearGradient id="linear-gradient-2" x1="0.5" x2="0.5" y2="1" gradientUnits="objectBoundingBox">
      <stop offset="0" stop-color="#b13e8d" stop-opacity="0"/>
      <stop offset="0.091" stop-color="#b13e8d" stop-opacity="0.129"/>
      <stop offset="0.283" stop-color="#b13e8d" stop-opacity="0.388"/>
      <stop offset="0.465" stop-color="#b13e8d" stop-opacity="0.612"/>
      <stop offset="0.633" stop-color="#b13e8d" stop-opacity="0.78"/>
      <stop offset="0.784" stop-color="#b13e8d"/>
      <stop offset="0.911" stop-color="#b13e8d" stop-opacity="0.969"/>
      <stop offset="1" stop-color="#b13e8d"/>
    </linearGradient>
    <filter id="Rectángulo_40720" x="41" y="4" width="108" height="108" filterUnits="userSpaceOnUse">
      <feOffset dy="3" input="SourceAlpha"/>
      <feGaussianBlur stdDeviation="3" result="blur"/>
      <feFlood flood-opacity="0.161"/>
      <feComposite operator="in" in2="blur"/>
      <feComposite in="SourceGraphic"/>
    </filter>
  </defs>
  <g id="Grupo_137003" data-name="Grupo 137003" transform="translate(-180 -399)">
    <rect id="Rectángulo_40586" data-name="Rectángulo 40586" width="190" height="20" transform="translate(180 444)" fill="none"/>
    <g id="Grupo_108405" data-name="Grupo 108405" transform="translate(209.5 463)">
      <path id="Rectángulo_5242" data-name="Rectángulo 5242" d="M0,0H12a0,0,0,0,1,0,0V43.333a3,3,0,0,1-3,3H3a3,3,0,0,1-3-3V0A0,0,0,0,1,0,0Z" transform="translate(0 0)" fill="url(#linear-gradient)"/>
    </g>
    <g id="Grupo_108406" data-name="Grupo 108406" transform="translate(340 451) rotate(180)">
      <path id="Rectángulo_5242-2" data-name="Rectángulo 5242" d="M0,0H12a0,0,0,0,1,0,0V49a3,3,0,0,1-3,3H3a3,3,0,0,1-3-3V0A0,0,0,0,1,0,0Z" transform="translate(0 0)" fill="url(#linear-gradient-2)"/>
    </g>
    <g transform="matrix(1, 0, 0, 1, 180, 399)" filter="url(#Rectángulo_40720)">
      <path id="Rectángulo_40720-2" data-name="Rectángulo 40720" d="M10,0H80A10,10,0,0,1,90,10V90a0,0,0,0,1,0,0H10A10,10,0,0,1,0,80V10A10,10,0,0,1,10,0Z" transform="translate(50 10)" fill="#f6f6f6"/>
    </g>
    <g id="Grupo_137008" data-name="Grupo 137008" transform="translate(893.942 450.044)">
      <path id="Trazado_197945" data-name="Trazado 197945" d="M-464.465,108.363c0,3.428.031,6.857-.012,10.285a4.275,4.275,0,0,1-2.988,4.039,4.347,4.347,0,0,1-4.818-1.213,4.166,4.166,0,0,1-1.179-2.944q-.011-6.373,0-12.747c0-.864.441-1.375,1.136-1.376s1.137.505,1.138,1.371c.006,4.132,0,8.263.006,12.395a2.227,2.227,0,0,0,1.908,2.441,2.119,2.119,0,0,0,2.515-2.148q.028-10.153,0-20.306c-.005-1.647-1.269-2.714-3.134-2.718-4.521-.01-9.043-.022-13.564.014a2.551,2.551,0,0,1-2.01-.826c-2.923-2.967-5.891-5.889-8.829-8.842a2.135,2.135,0,0,0-2.309-.659,1.99,1.99,0,0,0-.841,3.224c.55.646,1.183,1.22,1.785,1.821,3.4,3.4,6.8,6.8,10.225,10.183a2.407,2.407,0,0,1,.784,1.858c-.02,5.6-.009,11.193-.014,16.79,0,.291.054.658-.095.856-.257.342-.643.783-.995.8a1.575,1.575,0,0,1-1.071-.69,2.053,2.053,0,0,1-.149-1.106c-.008-5.333.009-10.666-.03-16a2.141,2.141,0,0,0-.566-1.353c-3.751-3.8-7.552-7.547-11.313-11.335a4.283,4.283,0,0,1,1.784-7.29,4.286,4.286,0,0,1,4.414,1.267c2.773,2.785,5.572,5.544,8.336,8.337a2.042,2.042,0,0,0,1.6.681c4.227-.031,8.457.056,12.683-.04a5.307,5.307,0,0,1,5.639,5.646c-.113,3.19-.024,6.387-.024,9.581Z" transform="translate(-119.27 -88.333)" fill="#6836bf"/>
      <path id="Trazado_197946" data-name="Trazado 197946" d="M-563.276-15.289v5.527h2.4c1.565,0,2.009.313,2.554,1.747.187.491.407.97.621,1.45a1.933,1.933,0,0,1-.475,2.679c-.6.6-1.228,1.166-1.772,1.68l4,4,1.148-.96c.7-.586,1.4-.607,1.858-.056a1.219,1.219,0,0,1-.327,1.765c-.373.331-.746.663-1.138.971a2.424,2.424,0,0,1-3.362-.061c-1.3-1.223-2.577-2.486-3.794-3.795a2.384,2.384,0,0,1,.093-3.469,4.578,4.578,0,0,1,.751-.74c.9-.6.935-1.262.463-2.2-.287-.567-.551-.791-1.163-.746a15.026,15.026,0,0,1-1.849-.008,2.332,2.332,0,0,1-2.318-2.289q-.066-2.767,0-5.537a2.278,2.278,0,0,1,2.106-2.209,11.891,11.891,0,0,1,2.022-.039c.663.048.907-.235,1.22-.806a1.391,1.391,0,0,0-.437-2.05,3.4,3.4,0,0,1-1.573-2.334,2.585,2.585,0,0,1,.828-2.133c1.2-1.168,2.384-2.345,3.6-3.491a2.467,2.467,0,0,1,3.559-.044,4.273,4.273,0,0,1,.688.678,1.656,1.656,0,0,0,2.5.539c.433-.253.681-.431.647-.96-.046-.7-.023-1.406-.007-2.109a2.283,2.283,0,0,1,2.118-2.387,57.743,57.743,0,0,1,5.89,0,2.184,2.184,0,0,1,2.062,2.058,12.052,12.052,0,0,1,.072,2.19c-.03.591.208.812.724,1.09a1.461,1.461,0,0,0,2.195-.487,4.932,4.932,0,0,1,.808-.807,2.432,2.432,0,0,1,3.421-.01q1.952,1.84,3.8,3.792a2.258,2.258,0,0,1-.046,3.384c-1.416,1.185-2,2.332-.9,4.032.349.538-.026,1.1-.59,1.366a.989.989,0,0,1-1.42-.468,11.664,11.664,0,0,1-1.09-2.758,2.821,2.821,0,0,1,.535-1.825,19.306,19.306,0,0,1,1.567-1.655.792.792,0,0,0,.007-.769c-1.125-1.193-2.3-2.342-3.547-3.6-.66.656-1.27,1.27-1.887,1.875a1.99,1.99,0,0,1-2.693.473q-.8-.356-1.621-.67a2.014,2.014,0,0,1-1.567-2.243c-.012-.7.037-1.41-.028-2.108-.021-.226-.309-.607-.483-.612-1.639-.047-3.279-.028-5.054-.028,0,1,0,1.921,0,2.843a2.049,2.049,0,0,1-1.666,2.34c-.6.225-1.2.471-1.786.731a1.937,1.937,0,0,1-2.336-.4c-.628-.616-1.266-1.222-1.9-1.829a.488.488,0,0,0-.148-.068l-3.829,4.014c.467.473,1.079,1.1,1.692,1.716a1.887,1.887,0,0,1,.472,2.53c-.268.616-.547,1.229-.78,1.858a2.031,2.031,0,0,1-2.088,1.426C-561.411-15.287-562.291-15.289-563.276-15.289Z" transform="translate(-68.657)" fill="#6836bf"/>
      <path id="Trazado_197947" data-name="Trazado 197947" d="M-571.013,156.448c.2-1.353-.3-2.7,1.323-3.474,1.871-.894,3.358-.92,4.456.973l2.377-2.471c-.957-.918-2.064-1.8-1.2-3.779.823-1.874,2.037-2.09,3.726-1.833v-3.387c-1.509.02-2.9.11-3.7-1.846-.786-1.927.012-2.9,1.3-3.932l-2.491-2.319c-.949,1.041-1.892,1.991-3.833,1.186-1.923-.8-2.02-2.085-1.877-3.724h-3.326c.058,1.559.088,2.915-1.869,3.705s-2.909-.044-3.921-1.252l-2.353,2.41c.692.932,2.1,1.56,1.384,3.433-.75,1.951-1.855,2.712-3.953,2.23,0,.981.009,1.82,0,2.658-.012.879-.43,1.347-1.161,1.332-.7-.014-1.1-.463-1.113-1.295-.016-.85-.011-1.7,0-2.549a2.188,2.188,0,0,1,2.362-2.351c.536-.023,1.307.378,1.506-.55a1.056,1.056,0,0,0-.148-.736,10.368,10.368,0,0,0-.783-.829,2.032,2.032,0,0,1,.005-2.862c.878-.944,1.792-1.859,2.74-2.733a2.114,2.114,0,0,1,3.012.107c.415.351.592,1.153,1.452.835.92-.341.484-1.084.531-1.65a2.18,2.18,0,0,1,2.3-2.242c1.085-.034,2.173-.03,3.259,0a2.212,2.212,0,0,1,2.369,2.371,2.95,2.95,0,0,0,.021.785,1.164,1.164,0,0,0,.486.679,1.045,1.045,0,0,0,.818-.14,11.776,11.776,0,0,1,1.77-1.23,1.873,1.873,0,0,1,2.008.572c.768.767,1.543,1.527,2.3,2.3,1.218,1.237,1.2,2.311-.023,3.574-.35.362-1.033.645-.547,1.334a1.131,1.131,0,0,0,.639.414,6.618,6.618,0,0,0,1.053.022,2.074,2.074,0,0,1,2.1,2.127q.033,1.8,0,3.6a2.1,2.1,0,0,1-2.165,2.162,4.469,4.469,0,0,0-.964.022,1.086,1.086,0,0,0-.675.472.876.876,0,0,0,.112.807c2.005,1.672,1.674,3.076-.134,4.649-.574.5-1.071,1.086-1.627,1.607a2.131,2.131,0,0,1-3.267-.018c-.171-.161-.308-.383-.508-.481-.274-.135-.673-.328-.874-.223a1.5,1.5,0,0,0-.512.837,3.4,3.4,0,0,0-.025.786,2.167,2.167,0,0,1-2.258,2.2c-1.085.042-2.173.032-3.259,0-.8-.023-1.309-.5-1.272-1.159.045-.8.562-1.116,1.3-1.127C-573.109,156.437-572.088,156.448-571.013,156.448Z" transform="translate(-51.766 -124.11)" fill="#6836bf"/>
      <path id="Trazado_197948" data-name="Trazado 197948" d="M-640.843,171.725c-2.612,0-5.225.008-7.838,0-3.406-.012-5.494-2.076-5.5-5.467-.006-4.424-.043-8.848.047-13.27a6.889,6.889,0,0,1,6.62-6.51c2.582-.062,5.166-.021,7.749-.033.749,0,1.264.266,1.306,1.084.038.729-.444,1.187-1.313,1.193-2.348.018-4.7,0-7.045.009a4.741,4.741,0,0,0-5.068,5.044q-.016,6.284,0,12.568a2.746,2.746,0,0,0,3.024,3.07q8.013.031,16.027,0a2.578,2.578,0,0,0,2.821-2.5,2.61,2.61,0,0,0-2.906-2.514q-6.208-.009-12.417,0c-1,0-1.566-.411-1.566-1.129s.584-1.143,1.566-1.143q6.3,0,12.593,0a4.846,4.846,0,0,1,5.01,4.7,4.812,4.812,0,0,1-4.923,4.882C-635.383,171.759-638.113,171.724-640.843,171.725Z" transform="translate(0 -137.087)" fill="#6836bf"/>
      <path id="Trazado_197949" data-name="Trazado 197949" d="M-417.259,56.959a8.442,8.442,0,0,1-8.454,8.417,8.532,8.532,0,0,1-8.44-8.469,8.48,8.48,0,0,1,8.492-8.4A8.393,8.393,0,0,1-417.259,56.959Zm-2.28-.028a6.135,6.135,0,0,0-6.149-6.143,6.2,6.2,0,0,0-6.175,6.146,6.257,6.257,0,0,0,6.181,6.167A6.176,6.176,0,0,0-419.54,56.93Z" transform="translate(-169.843 -62.164)" fill="#6836bf"/>
      <path id="Trazado_197950" data-name="Trazado 197950" d="M-626.66,84.377a8.481,8.481,0,0,1-8.493-8.4,8.523,8.523,0,0,1,8.441-8.47,8.442,8.442,0,0,1,8.452,8.331A8.384,8.384,0,0,1-626.66,84.377Zm-.012-2.3a6.093,6.093,0,0,0,6.134-6.133,6.1,6.1,0,0,0-6.159-6.116,6.181,6.181,0,0,0-6.166,6.142A6.157,6.157,0,0,0-626.672,82.077Z" transform="translate(-14.566 -76.701)" fill="#6836bf"/>
      <path id="Trazado_197951" data-name="Trazado 197951" d="M-500.767,25.826c-.214.965-.379,1.944-.656,2.89-.244.832-.874,1.187-1.494.978-.694-.234-.934-.864-.659-1.73a6.147,6.147,0,0,0-2.933-7.635,6.223,6.223,0,0,0-7.625,1.616,6.176,6.176,0,0,0,.123,7.846c.826.979.938,1.6.381,2.105-.623.561-1.243.377-2.127-.631a8.454,8.454,0,0,1-.852-9.741,8.478,8.478,0,0,1,9.035-3.982,8.417,8.417,0,0,1,6.636,7.472q.034.394.068.788Z" transform="translate(-105.248 -38.319)" fill="#6836bf"/>
      <path id="Trazado_197952" data-name="Trazado 197952" d="M-538.94,171.649a6.2,6.2,0,0,1-5.861,6.177c-.718.039-1.29-.182-1.418-.984-.116-.726.293-1.225,1.184-1.284a3.93,3.93,0,0,0,3.618-5.143,3.881,3.881,0,0,0-4.159-2.658,3.89,3.89,0,0,0-3.446,3.811c0,.176.006.351,0,.527-.013.723-.348,1.18-1.1,1.2s-1.108-.428-1.175-1.139a6.223,6.223,0,0,1,4.619-6.528A6.184,6.184,0,0,1-538.94,171.649Z" transform="translate(-79.311 -151.615)" fill="#6836bf"/>
    </g>
  </g>
</svg>
