<svg xmlns="http://www.w3.org/2000/svg" xmlns:xlink="http://www.w3.org/1999/xlink" width="575" height="323" viewBox="0 0 575 323">
  <defs>
    <linearGradient id="linear-gradient" x1="0.5" x2="0.5" y2="1" gradientUnits="objectBoundingBox">
      <stop offset="0" stop-color="#ffad00"/>
      <stop offset="0.323" stop-color="#fcab00"/>
      <stop offset="0.533" stop-color="#f3a500"/>
      <stop offset="0.71" stop-color="#e49c00"/>
      <stop offset="0.868" stop-color="#cf8f00"/>
      <stop offset="1" stop-color="#b88000"/>
    </linearGradient>
    <linearGradient id="linear-gradient-3" x1="0.5" x2="0.5" y2="1" gradientUnits="objectBoundingBox">
      <stop offset="0" stop-color="#f8ac77"/>
      <stop offset="0.238" stop-color="#f7a972"/>
      <stop offset="0.495" stop-color="#f6a065"/>
      <stop offset="0.759" stop-color="#f59250"/>
      <stop offset="1" stop-color="#f38236"/>
    </linearGradient>
    <linearGradient id="linear-gradient-4" x1="0.5" x2="0.5" y2="1" gradientUnits="objectBoundingBox">
      <stop offset="0" stop-color="#df2329"/>
      <stop offset="0.229" stop-color="#da2127"/>
      <stop offset="0.476" stop-color="#cd1b23"/>
      <stop offset="0.731" stop-color="#b8121b"/>
      <stop offset="0.99" stop-color="#9a0511"/>
      <stop offset="1" stop-color="#990511"/>
    </linearGradient>
    <linearGradient id="linear-gradient-6" x1="0.5" x2="0.5" y2="1" gradientUnits="objectBoundingBox">
      <stop offset="0" stop-color="#4ea34a"/>
      <stop offset="0.296" stop-color="#4a9f47"/>
      <stop offset="0.577" stop-color="#409340"/>
      <stop offset="0.852" stop-color="#2e8034"/>
      <stop offset="1" stop-color="#22732c"/>
    </linearGradient>
  </defs>
  <g id="Grupo_137121" data-name="Grupo 137121" transform="translate(-790 -1940)">
    <g id="Grupo_136898" data-name="Grupo 136898" transform="translate(862.064 3058.56)">
      <rect id="Rectángulo_42043" data-name="Rectángulo 42043" width="575" height="323" rx="18" transform="translate(-72.064 -1118.559)" fill="#fff"/>
      <rect id="Rectángulo_42044" data-name="Rectángulo 42044" width="83.902" height="32.767" transform="translate(64.396 -1068.264)" stroke="#161615" stroke-miterlimit="10" stroke-width="0.75" fill="url(#linear-gradient)"/>
      <rect id="Rectángulo_42045" data-name="Rectángulo 42045" width="92.673" height="32.767" transform="translate(148.464 -1068.264)" stroke="#161615" stroke-miterlimit="10" stroke-width="0.75" fill="url(#linear-gradient)"/>
      <rect id="Rectángulo_42046" data-name="Rectángulo 42046" width="83.406" height="32.767" transform="translate(241.303 -1068.264)" stroke="#161615" stroke-miterlimit="10" stroke-width="0.75" fill="url(#linear-gradient-3)"/>
      <rect id="Rectángulo_42047" data-name="Rectángulo 42047" width="83.406" height="32.767" transform="translate(325.04 -1068.264)" stroke="#161615" stroke-miterlimit="10" stroke-width="0.75" fill="url(#linear-gradient-4)"/>
      <rect id="Rectángulo_42048" data-name="Rectángulo 42048" width="83.406" height="32.767" transform="translate(408.446 -1068.264)" stroke="#161615" stroke-miterlimit="10" stroke-width="0.75" fill="url(#linear-gradient-4)"/>
      <rect id="Rectángulo_42049" data-name="Rectángulo 42049" width="83.902" height="32.767" transform="translate(64.396 -1035)" stroke="#161615" stroke-miterlimit="10" stroke-width="0.75" fill="url(#linear-gradient-6)"/>
      <rect id="Rectángulo_42050" data-name="Rectángulo 42050" width="92.673" height="32.767" transform="translate(148.464 -1035)" stroke="#161615" stroke-miterlimit="10" stroke-width="0.75" fill="url(#linear-gradient)"/>
      <rect id="Rectángulo_42051" data-name="Rectángulo 42051" width="83.406" height="32.767" transform="translate(241.303 -1035)" stroke="#161615" stroke-miterlimit="10" stroke-width="0.75" fill="url(#linear-gradient-3)"/>
      <rect id="Rectángulo_42052" data-name="Rectángulo 42052" width="83.406" height="32.767" transform="translate(325.04 -1035)" stroke="#161615" stroke-miterlimit="10" stroke-width="0.75" fill="url(#linear-gradient-3)"/>
      <rect id="Rectángulo_42053" data-name="Rectángulo 42053" width="83.406" height="32.767" transform="translate(408.446 -1035)" stroke="#161615" stroke-miterlimit="10" stroke-width="0.75" fill="url(#linear-gradient-4)"/>
      <rect id="Rectángulo_42054" data-name="Rectángulo 42054" width="83.902" height="32.767" transform="translate(64.396 -1001.737)" stroke="#161615" stroke-miterlimit="10" stroke-width="0.75" fill="url(#linear-gradient-6)"/>
      <rect id="Rectángulo_42055" data-name="Rectángulo 42055" width="92.673" height="32.767" transform="translate(148.464 -1001.737)" stroke="#161615" stroke-miterlimit="10" stroke-width="0.75" fill="url(#linear-gradient)"/>
      <rect id="Rectángulo_42056" data-name="Rectángulo 42056" width="83.406" height="32.767" transform="translate(241.303 -1001.737)" stroke="#161615" stroke-miterlimit="10" stroke-width="0.75" fill="url(#linear-gradient)"/>
      <rect id="Rectángulo_42057" data-name="Rectángulo 42057" width="83.406" height="32.767" transform="translate(325.04 -1001.737)" stroke="#161615" stroke-miterlimit="10" stroke-width="0.75" fill="url(#linear-gradient-3)"/>
      <rect id="Rectángulo_42058" data-name="Rectángulo 42058" width="83.406" height="32.767" transform="translate(408.446 -1001.737)" stroke="#161615" stroke-miterlimit="10" stroke-width="0.75" fill="url(#linear-gradient-3)"/>
      <rect id="Rectángulo_42059" data-name="Rectángulo 42059" width="83.902" height="32.767" transform="translate(64.396 -968.474)" stroke="#161615" stroke-miterlimit="10" stroke-width="0.75" fill="url(#linear-gradient-6)"/>
      <rect id="Rectángulo_42060" data-name="Rectángulo 42060" width="92.673" height="32.767" transform="translate(148.464 -968.474)" stroke="#161615" stroke-miterlimit="10" stroke-width="0.75" fill="url(#linear-gradient-6)"/>
      <rect id="Rectángulo_42061" data-name="Rectángulo 42061" width="83.406" height="32.767" transform="translate(241.303 -968.474)" stroke="#161615" stroke-miterlimit="10" stroke-width="0.75" fill="url(#linear-gradient)"/>
      <rect id="Rectángulo_42062" data-name="Rectángulo 42062" width="83.406" height="32.767" transform="translate(325.04 -968.474)" stroke="#161615" stroke-miterlimit="10" stroke-width="0.75" fill="url(#linear-gradient)"/>
      <rect id="Rectángulo_42063" data-name="Rectángulo 42063" width="83.406" height="32.767" transform="translate(408.446 -968.474)" stroke="#161615" stroke-miterlimit="10" stroke-width="0.75" fill="url(#linear-gradient)"/>
      <rect id="Rectángulo_42064" data-name="Rectángulo 42064" width="83.902" height="32.767" transform="translate(64.396 -935.211)" stroke="#161615" stroke-miterlimit="10" stroke-width="0.75" fill="url(#linear-gradient-6)"/>
      <rect id="Rectángulo_42065" data-name="Rectángulo 42065" width="92.673" height="32.767" transform="translate(148.464 -935.211)" stroke="#161615" stroke-miterlimit="10" stroke-width="0.75" fill="url(#linear-gradient-6)"/>
      <rect id="Rectángulo_42066" data-name="Rectángulo 42066" width="83.406" height="32.767" transform="translate(241.303 -935.211)" stroke="#161615" stroke-miterlimit="10" stroke-width="0.75" fill="url(#linear-gradient-6)"/>
      <rect id="Rectángulo_42067" data-name="Rectángulo 42067" width="83.406" height="32.767" transform="translate(325.04 -935.211)" stroke="#161615" stroke-miterlimit="10" stroke-width="0.75" fill="url(#linear-gradient-6)"/>
      <rect id="Rectángulo_42068" data-name="Rectángulo 42068" width="83.406" height="32.767" transform="translate(408.446 -935.211)" stroke="#161615" stroke-miterlimit="10" stroke-width="0.75" fill="url(#linear-gradient)"/>
      <rect id="Rectángulo_42069" data-name="Rectángulo 42069" width="83.902" height="27.306" transform="translate(64.396 -901.948)" fill="#f1f0f1"/>
      <rect id="Rectángulo_42070" data-name="Rectángulo 42070" width="92.673" height="27.306" transform="translate(148.464 -901.948)" fill="#f1f0f1"/>
      <rect id="Rectángulo_42071" data-name="Rectángulo 42071" width="83.406" height="27.306" transform="translate(241.303 -901.948)" fill="#f1f0f1"/>
      <rect id="Rectángulo_42072" data-name="Rectángulo 42072" width="83.406" height="27.306" transform="translate(325.04 -901.948)" fill="#f1f0f1"/>
      <rect id="Rectángulo_42073" data-name="Rectángulo 42073" width="83.406" height="27.306" transform="translate(408.446 -901.948)" fill="#f1f0f1"/>
      <rect id="Rectángulo_42074" data-name="Rectángulo 42074" width="94.328" height="33.895" transform="translate(-29.932 -1068.36)" fill="#e8e8e8" stroke="#bababa" stroke-miterlimit="10" stroke-width="1"/>
      <rect id="Rectángulo_42075" data-name="Rectángulo 42075" width="94.328" height="33.895" transform="translate(-29.932 -1035.601)" fill="#e8e8e8" stroke="#bababa" stroke-miterlimit="10" stroke-width="1"/>
      <rect id="Rectángulo_42076" data-name="Rectángulo 42076" width="94.328" height="33.895" transform="translate(-29.932 -1002.293)" fill="#e8e8e8" stroke="#bababa" stroke-miterlimit="10" stroke-width="1"/>
      <rect id="Rectángulo_42077" data-name="Rectángulo 42077" width="94.328" height="33.895" transform="translate(-29.932 -968.911)" fill="#e8e8e8" stroke="#bababa" stroke-miterlimit="10" stroke-width="1"/>
      <rect id="Rectángulo_42078" data-name="Rectángulo 42078" width="94.328" height="33.895" transform="translate(-29.932 -934.957)" fill="#e8e8e8" stroke="#bababa" stroke-miterlimit="10" stroke-width="1"/>
      <rect id="Rectángulo_42079" data-name="Rectángulo 42079" width="94.328" height="26.945" transform="translate(-29.932 -901.091)" fill="#e8e8e8" stroke="#bababa" stroke-miterlimit="10" stroke-width="1"/>
      <rect id="Rectángulo_42080" data-name="Rectángulo 42080" width="34.504" height="194.366" transform="translate(-64.188 -1068.264)" fill="none" stroke="#e8e8e8" stroke-miterlimit="10" stroke-width="1"/>
      <rect id="Rectángulo_42081" data-name="Rectángulo 42081" width="556.04" height="34.008" transform="translate(-64.188 -873.898)" fill="none" stroke="#f1f0f1" stroke-miterlimit="10" stroke-width="1"/>
    </g>
    <path id="Trazado_198068" data-name="Trazado 198068" d="M3.9,5.047l2.222,6.925L8.34,5.047H11.5V15H9.092V12.676l.232-4.758L6.918,15H5.332L2.919,7.911l.232,4.765V15H.752V5.047ZM17.322,14.2a2.375,2.375,0,0,1-1.976.937,2.329,2.329,0,0,1-1.842-.708,2.976,2.976,0,0,1-.625-2.034V7.6h2.3v4.806a.828.828,0,0,0,.923.95,1.2,1.2,0,0,0,1.128-.567V7.6h2.317V15h-2.16Zm6.446-2.427L25,7.6h2.468l-3.015,8.634-.13.314a2.29,2.29,0,0,1-2.27,1.436,3.61,3.61,0,0,1-.95-.136V16.21h.3a1.576,1.576,0,0,0,.742-.14.851.851,0,0,0,.379-.5l.185-.493L20.139,7.6H22.6Zm14.649-.41a4.508,4.508,0,0,1-.752,2.8,2.519,2.519,0,0,1-2.119.978,2.186,2.186,0,0,1-1.818-.9l-.1.759H31.568V4.5h2.3V8.2a2.109,2.109,0,0,1,1.661-.731,2.519,2.519,0,0,1,2.133.991,4.531,4.531,0,0,1,.752,2.789Zm-2.311-.147A3.007,3.007,0,0,0,35.824,9.7a.956.956,0,0,0-.872-.454,1.1,1.1,0,0,0-1.08.594v2.935a1.109,1.109,0,0,0,1.094.587A.978.978,0,0,0,36,12.568,5.685,5.685,0,0,0,36.107,11.216ZM43.6,15a2.6,2.6,0,0,1-.219-.663,2.142,2.142,0,0,1-1.777.8,2.624,2.624,0,0,1-1.777-.632,2.013,2.013,0,0,1-.731-1.589,2.069,2.069,0,0,1,.889-1.818,4.527,4.527,0,0,1,2.584-.615h.711V10.09q0-1.023-.882-1.023a.721.721,0,0,0-.82.811h-2.3a2.065,2.065,0,0,1,.913-1.741,3.835,3.835,0,0,1,2.328-.669,3.363,3.363,0,0,1,2.235.69,2.4,2.4,0,0,1,.841,1.894v3.274a3.353,3.353,0,0,0,.314,1.559V15Zm-1.442-1.5a1.285,1.285,0,0,0,.714-.185,1.157,1.157,0,0,0,.407-.417V11.712h-.67q-1.2,0-1.2,1.08a.659.659,0,0,0,.212.509A.767.767,0,0,0,42.157,13.5ZM49.342,7.6v7.649a2.685,2.685,0,0,1-.752,2.023,2.889,2.889,0,0,1-2.078.711,4.906,4.906,0,0,1-1.087-.116V16.128a4.408,4.408,0,0,0,.649.062.843.843,0,0,0,.957-.95V7.6ZM46.86,5.7a1.028,1.028,0,0,1,.355-.807,1.511,1.511,0,0,1,1.846,0,1.028,1.028,0,0,1,.355.807,1.028,1.028,0,0,1-.355.807,1.511,1.511,0,0,1-1.846,0A1.028,1.028,0,0,1,46.86,5.7Zm7.95,9.3a2.6,2.6,0,0,1-.219-.663,2.142,2.142,0,0,1-1.777.8,2.624,2.624,0,0,1-1.777-.632,2.013,2.013,0,0,1-.731-1.589,2.069,2.069,0,0,1,.889-1.818,4.527,4.527,0,0,1,2.584-.615h.711V10.09q0-1.023-.882-1.023a.721.721,0,0,0-.82.811h-2.3A2.065,2.065,0,0,1,51.4,8.136a3.835,3.835,0,0,1,2.328-.669,3.363,3.363,0,0,1,2.235.69,2.4,2.4,0,0,1,.841,1.894v3.274a3.353,3.353,0,0,0,.314,1.559V15Zm-1.442-1.5a1.285,1.285,0,0,0,.714-.185,1.157,1.157,0,0,0,.407-.417V11.712h-.67q-1.2,0-1.2,1.08a.659.659,0,0,0,.212.509A.767.767,0,0,0,53.368,13.5Z" transform="translate(938 2160)" fill="#12263f"/>
    <path id="Trazado_198069" data-name="Trazado 198069" d="M3.309,15H.916V5.047H3.309ZM7.048,7.6l.075.868a2.543,2.543,0,0,1,2.112-1,1.872,1.872,0,0,1,1.894,1.114A2.462,2.462,0,0,1,13.3,7.467q2.249,0,2.311,2.721V15H13.3V10.331a1.41,1.41,0,0,0-.191-.827.815.815,0,0,0-.7-.26,1.091,1.091,0,0,0-1.019.608l.007.1V15H9.092V10.345A1.482,1.482,0,0,0,8.907,9.5a.812.812,0,0,0-.7-.26,1.1,1.1,0,0,0-1.012.608V15h-2.3V7.6ZM23.8,11.356a4.46,4.46,0,0,1-.776,2.751,2.488,2.488,0,0,1-2.1,1.029,2.132,2.132,0,0,1-1.675-.745v3.452h-2.3V7.6H19.1l.068.684a2.132,2.132,0,0,1,1.743-.82,2.508,2.508,0,0,1,2.126,1.008,4.515,4.515,0,0,1,.759,2.772Zm-2.3-.144q0-1.969-1.148-1.969a1.084,1.084,0,0,0-1.094.588v2.912a1.119,1.119,0,0,0,1.107.615q1.1,0,1.135-1.9Zm7.793-1.524-.759-.055a1.363,1.363,0,0,0-1.395.684V15h-2.3V7.6h2.16l.075.95a1.784,1.784,0,0,1,1.62-1.087,2.247,2.247,0,0,1,.643.082Zm.294,1.545a4.366,4.366,0,0,1,.431-1.972,3.08,3.08,0,0,1,1.237-1.33,3.726,3.726,0,0,1,1.894-.465A3.4,3.4,0,0,1,35.759,8.5a3.948,3.948,0,0,1,.957,2.8v.082a3.83,3.83,0,0,1-.96,2.745,3.41,3.41,0,0,1-2.6,1.015,3.449,3.449,0,0,1-2.536-.947,3.7,3.7,0,0,1-1.032-2.567Zm2.3.144a2.752,2.752,0,0,0,.321,1.5,1.07,1.07,0,0,0,.95.479q1.23,0,1.258-1.894v-.232q0-1.989-1.271-1.989-1.155,0-1.251,1.716ZM44.6,11.363a4.508,4.508,0,0,1-.752,2.8,2.519,2.519,0,0,1-2.119.978,2.186,2.186,0,0,1-1.818-.9l-.1.759H37.748V4.5h2.3V8.2a2.109,2.109,0,0,1,1.661-.731,2.519,2.519,0,0,1,2.133.991,4.531,4.531,0,0,1,.752,2.789Zm-2.311-.147A3.007,3.007,0,0,0,42,9.7a.956.956,0,0,0-.872-.454,1.1,1.1,0,0,0-1.08.594v2.935a1.109,1.109,0,0,0,1.094.587.978.978,0,0,0,1.032-.792A5.685,5.685,0,0,0,42.287,11.216ZM49.779,15a2.6,2.6,0,0,1-.219-.663,2.142,2.142,0,0,1-1.777.8,2.624,2.624,0,0,1-1.777-.632,2.013,2.013,0,0,1-.731-1.589,2.069,2.069,0,0,1,.889-1.818,4.527,4.527,0,0,1,2.584-.615h.711V10.09q0-1.023-.882-1.023a.721.721,0,0,0-.82.811h-2.3a2.065,2.065,0,0,1,.913-1.741,3.835,3.835,0,0,1,2.328-.669,3.363,3.363,0,0,1,2.235.69,2.4,2.4,0,0,1,.841,1.894v3.274a3.353,3.353,0,0,0,.314,1.559V15Zm-1.442-1.5a1.285,1.285,0,0,0,.714-.185,1.157,1.157,0,0,0,.407-.417V11.712h-.67q-1.2,0-1.2,1.08a.659.659,0,0,0,.212.509A.767.767,0,0,0,48.337,13.5ZM59.91,11.363a4.508,4.508,0,0,1-.752,2.8,2.519,2.519,0,0,1-2.119.978,2.186,2.186,0,0,1-1.818-.9l-.1.759H53.061V4.5h2.3V8.2a2.109,2.109,0,0,1,1.661-.731,2.519,2.519,0,0,1,2.133.991,4.531,4.531,0,0,1,.752,2.789ZM57.6,11.216A3.007,3.007,0,0,0,57.316,9.7a.956.956,0,0,0-.872-.454,1.1,1.1,0,0,0-1.08.594v2.935a1.109,1.109,0,0,0,1.094.587.978.978,0,0,0,1.032-.792A5.685,5.685,0,0,0,57.6,11.216ZM63.355,15H61.045V4.5h2.311Zm5,.137A3.8,3.8,0,0,1,65.6,14.122a3.506,3.506,0,0,1-1.053-2.642v-.191a4.542,4.542,0,0,1,.42-2,3.076,3.076,0,0,1,1.227-1.343,3.7,3.7,0,0,1,1.914-.475,3.2,3.2,0,0,1,2.461.967,3.8,3.8,0,0,1,.9,2.7v.9H66.89a1.66,1.66,0,0,0,.54.978,1.607,1.607,0,0,0,1.08.355,2.07,2.07,0,0,0,1.709-.766l1.053,1.244a2.943,2.943,0,0,1-1.22.947A4.124,4.124,0,0,1,68.353,15.137Zm-.26-5.893q-1.012,0-1.2,1.34h2.324v-.178a1.141,1.141,0,0,0-.28-.858A1.115,1.115,0,0,0,68.093,9.244Z" transform="translate(843 2130)" fill="#12263f"/>
    <path id="Trazado_198070" data-name="Trazado 198070" d="M15.523,11.623V15h-2.4V5.047H17.1a4.626,4.626,0,0,1,2.02.42,3.168,3.168,0,0,1,1.36,1.2,3.267,3.267,0,0,1,.482,1.76,2.88,2.88,0,0,1-1.042,2.328,4.326,4.326,0,0,1-2.861.872Zm0-1.853H17.1a1.483,1.483,0,0,0,1.063-.349,1.3,1.3,0,0,0,.366-.984,1.6,1.6,0,0,0-.376-1.114A1.331,1.331,0,0,0,17.123,6.9h-1.6Zm6.228,1.463a4.366,4.366,0,0,1,.431-1.972,3.08,3.08,0,0,1,1.237-1.33,3.726,3.726,0,0,1,1.894-.465A3.4,3.4,0,0,1,27.93,8.5a3.948,3.948,0,0,1,.957,2.8v.082a3.83,3.83,0,0,1-.96,2.745,3.41,3.41,0,0,1-2.6,1.015,3.449,3.449,0,0,1-2.536-.947,3.7,3.7,0,0,1-1.032-2.567Zm2.3.144a2.752,2.752,0,0,0,.321,1.5,1.07,1.07,0,0,0,.95.479q1.23,0,1.258-1.894v-.232q0-1.989-1.271-1.989-1.155,0-1.251,1.716Zm9.721,1.545a.532.532,0,0,0-.308-.472,4.679,4.679,0,0,0-1.169-.369,5.33,5.33,0,0,1-1.422-.5,2.382,2.382,0,0,1-.854-.755A1.8,1.8,0,0,1,29.728,9.8a2.044,2.044,0,0,1,.841-1.678,3.464,3.464,0,0,1,2.2-.66,3.837,3.837,0,0,1,2.352.663,2.074,2.074,0,0,1,.889,1.743H33.7q0-.889-.937-.889a.928.928,0,0,0-.608.2.624.624,0,0,0-.246.5.573.573,0,0,0,.3.5,2.842,2.842,0,0,0,.96.314,8.3,8.3,0,0,1,1.159.294A2.105,2.105,0,0,1,36,12.854a1.937,1.937,0,0,1-.9,1.647,3.942,3.942,0,0,1-2.328.636,4.023,4.023,0,0,1-1.7-.342,2.835,2.835,0,0,1-1.162-.93,2.105,2.105,0,0,1-.417-1.237h2.153a.89.89,0,0,0,.342.749,1.406,1.406,0,0,0,.841.236,1.106,1.106,0,0,0,.708-.191A.612.612,0,0,0,33.775,12.922ZM39.5,15H37.193V7.6H39.5ZM37.056,5.7a1.028,1.028,0,0,1,.355-.807,1.511,1.511,0,0,1,1.846,0,1.028,1.028,0,0,1,.355.807,1.028,1.028,0,0,1-.355.807,1.511,1.511,0,0,1-1.846,0A1.028,1.028,0,0,1,37.056,5.7Zm10.732,5.667a4.508,4.508,0,0,1-.752,2.8,2.519,2.519,0,0,1-2.119.978,2.186,2.186,0,0,1-1.818-.9L43,15H40.939V4.5h2.3V8.2A2.109,2.109,0,0,1,44.9,7.467a2.519,2.519,0,0,1,2.133.991,4.531,4.531,0,0,1,.752,2.789Zm-2.311-.147A3.007,3.007,0,0,0,45.194,9.7a.956.956,0,0,0-.872-.454,1.1,1.1,0,0,0-1.08.594v2.935a1.109,1.109,0,0,0,1.094.587.978.978,0,0,0,1.032-.792A5.685,5.685,0,0,0,45.478,11.216ZM51.234,15H48.923V4.5h2.311Zm5,.137a3.8,3.8,0,0,1-2.755-1.015,3.506,3.506,0,0,1-1.053-2.642v-.191a4.542,4.542,0,0,1,.42-2,3.076,3.076,0,0,1,1.227-1.343,3.7,3.7,0,0,1,1.914-.475,3.2,3.2,0,0,1,2.461.967,3.8,3.8,0,0,1,.9,2.7v.9h-4.58a1.66,1.66,0,0,0,.54.978,1.607,1.607,0,0,0,1.08.355,2.07,2.07,0,0,0,1.709-.766l1.053,1.244a2.943,2.943,0,0,1-1.22.947A4.123,4.123,0,0,1,56.231,15.137Zm-.26-5.893q-1.012,0-1.2,1.34h2.324v-.178a1.141,1.141,0,0,0-.28-.858A1.115,1.115,0,0,0,55.971,9.244ZM6.045,23.233a4.366,4.366,0,0,1,.431-1.972,3.08,3.08,0,0,1,1.237-1.33,3.726,3.726,0,0,1,1.894-.465A3.4,3.4,0,0,1,12.225,20.5a3.948,3.948,0,0,1,.957,2.8v.082a3.83,3.83,0,0,1-.96,2.745,3.41,3.41,0,0,1-2.6,1.015,3.449,3.449,0,0,1-2.536-.947,3.7,3.7,0,0,1-1.032-2.567Zm2.3.144a2.752,2.752,0,0,0,.321,1.5,1.07,1.07,0,0,0,.95.479q1.23,0,1.258-1.894v-.232q0-1.989-1.271-1.989-1.155,0-1.251,1.716Zm8.976,1.982a1.025,1.025,0,0,0,.752-.263.965.965,0,0,0,.26-.735H20.5a2.557,2.557,0,0,1-.872,2,3.242,3.242,0,0,1-2.246.779,3.282,3.282,0,0,1-2.543-1.012,3.986,3.986,0,0,1-.93-2.8v-.1a4.505,4.505,0,0,1,.414-1.979,3.011,3.011,0,0,1,1.193-1.319,3.557,3.557,0,0,1,1.846-.461,3.2,3.2,0,0,1,2.29.8,2.837,2.837,0,0,1,.848,2.167h-2.16a1.265,1.265,0,0,0-.28-.882.967.967,0,0,0-.752-.308q-.9,0-1.046,1.142a8.056,8.056,0,0,0-.048,1,3.164,3.164,0,0,0,.267,1.545A.923.923,0,0,0,17.324,25.359ZM25.637,27a2.6,2.6,0,0,1-.219-.663,2.142,2.142,0,0,1-1.777.8,2.624,2.624,0,0,1-1.777-.632,2.013,2.013,0,0,1-.731-1.589,2.069,2.069,0,0,1,.889-1.818,4.527,4.527,0,0,1,2.584-.615h.711V22.09q0-1.023-.882-1.023a.721.721,0,0,0-.82.811h-2.3a2.065,2.065,0,0,1,.913-1.741,3.835,3.835,0,0,1,2.328-.669,3.363,3.363,0,0,1,2.235.69,2.4,2.4,0,0,1,.841,1.894v3.274a3.353,3.353,0,0,0,.314,1.559V27Zm-1.442-1.5a1.285,1.285,0,0,0,.714-.185,1.157,1.157,0,0,0,.407-.417V23.712h-.67q-1.2,0-1.2,1.08a.659.659,0,0,0,.212.509A.767.767,0,0,0,24.194,25.5Zm8.579-.574a.532.532,0,0,0-.308-.472,4.679,4.679,0,0,0-1.169-.369,5.33,5.33,0,0,1-1.422-.5,2.382,2.382,0,0,1-.854-.755,1.8,1.8,0,0,1-.294-1.019,2.044,2.044,0,0,1,.841-1.678,3.464,3.464,0,0,1,2.2-.66,3.837,3.837,0,0,1,2.352.663,2.074,2.074,0,0,1,.889,1.743H32.7q0-.889-.937-.889a.928.928,0,0,0-.608.2.624.624,0,0,0-.246.5.573.573,0,0,0,.3.5,2.842,2.842,0,0,0,.96.314,8.3,8.3,0,0,1,1.159.294A2.105,2.105,0,0,1,35,24.854a1.937,1.937,0,0,1-.9,1.647,3.942,3.942,0,0,1-2.328.636,4.023,4.023,0,0,1-1.7-.342,2.835,2.835,0,0,1-1.162-.93,2.105,2.105,0,0,1-.417-1.237h2.153a.89.89,0,0,0,.342.749,1.406,1.406,0,0,0,.841.236,1.106,1.106,0,0,0,.708-.191A.612.612,0,0,0,32.773,24.922ZM38.5,27H36.191V19.6H38.5Zm-2.447-9.3a1.028,1.028,0,0,1,.355-.807,1.511,1.511,0,0,1,1.846,0,1.093,1.093,0,0,1,0,1.613,1.511,1.511,0,0,1-1.846,0A1.028,1.028,0,0,1,36.055,17.7Zm3.575,5.537a4.366,4.366,0,0,1,.431-1.972,3.08,3.08,0,0,1,1.237-1.33,3.726,3.726,0,0,1,1.894-.465A3.4,3.4,0,0,1,45.81,20.5a3.948,3.948,0,0,1,.957,2.8v.082a3.83,3.83,0,0,1-.96,2.745,3.41,3.41,0,0,1-2.6,1.015,3.449,3.449,0,0,1-2.536-.947,3.7,3.7,0,0,1-1.032-2.567Zm2.3.144a2.752,2.752,0,0,0,.321,1.5,1.07,1.07,0,0,0,.95.479q1.23,0,1.258-1.894v-.232q0-1.989-1.271-1.989-1.155,0-1.251,1.716ZM49.9,19.6l.075.868a2.508,2.508,0,0,1,2.112-1,2.11,2.11,0,0,1,1.726.69,3.287,3.287,0,0,1,.591,2.078V27H52.092V22.331a1.248,1.248,0,0,0-.226-.824,1.044,1.044,0,0,0-.82-.263,1.1,1.1,0,0,0-1,.533V27h-2.3V19.6ZM59.844,27a2.6,2.6,0,0,1-.219-.663,2.142,2.142,0,0,1-1.777.8A2.624,2.624,0,0,1,56.07,26.5a2.013,2.013,0,0,1-.731-1.589,2.069,2.069,0,0,1,.889-1.818,4.527,4.527,0,0,1,2.584-.615h.711V22.09q0-1.023-.882-1.023a.721.721,0,0,0-.82.811h-2.3a2.065,2.065,0,0,1,.913-1.741,3.835,3.835,0,0,1,2.328-.669,3.363,3.363,0,0,1,2.235.69,2.4,2.4,0,0,1,.841,1.894v3.274a3.353,3.353,0,0,0,.314,1.559V27ZM58.4,25.5a1.285,1.285,0,0,0,.714-.185,1.157,1.157,0,0,0,.407-.417V23.712h-.67q-1.2,0-1.2,1.08a.659.659,0,0,0,.212.509A.767.767,0,0,0,58.4,25.5ZM65.538,27H63.228V16.5h2.311Z" transform="translate(843 2091)" fill="#12263f"/>
    <path id="Trazado_198071" data-name="Trazado 198071" d="M7.956,5.047l2.222,6.925,2.215-6.925H15.55V15H13.144V12.676l.232-4.758L10.97,15H9.384L6.971,7.911,7.2,12.676V15H4.8V5.047Zm8.723,6.187a4.366,4.366,0,0,1,.431-1.972,3.08,3.08,0,0,1,1.237-1.33,3.726,3.726,0,0,1,1.894-.465A3.4,3.4,0,0,1,22.858,8.5a3.948,3.948,0,0,1,.957,2.8v.082a3.83,3.83,0,0,1-.96,2.745,3.41,3.41,0,0,1-2.6,1.015,3.449,3.449,0,0,1-2.536-.947,3.7,3.7,0,0,1-1.032-2.567Zm2.3.144a2.752,2.752,0,0,0,.321,1.5,1.07,1.07,0,0,0,.95.479q1.23,0,1.258-1.894v-.232q0-1.989-1.271-1.989-1.155,0-1.251,1.716Zm5.558-.13A4.518,4.518,0,0,1,25.3,8.479a2.5,2.5,0,0,1,2.119-1.012,2.124,2.124,0,0,1,1.668.779V4.5H31.4V15H29.325l-.116-.793a2.181,2.181,0,0,1-1.8.93,2.493,2.493,0,0,1-2.092-1.012A4.661,4.661,0,0,1,24.54,11.247Zm2.3.144q0,1.969,1.148,1.969a1.134,1.134,0,0,0,1.094-.643V9.9a1.1,1.1,0,0,0-1.08-.656q-1.066,0-1.155,1.723Zm9.44,3.746a3.8,3.8,0,0,1-2.755-1.015,3.506,3.506,0,0,1-1.053-2.642v-.191a4.542,4.542,0,0,1,.42-2,3.076,3.076,0,0,1,1.227-1.343,3.7,3.7,0,0,1,1.914-.475,3.2,3.2,0,0,1,2.461.967,3.8,3.8,0,0,1,.9,2.7v.9h-4.58a1.66,1.66,0,0,0,.54.978,1.607,1.607,0,0,0,1.08.355,2.07,2.07,0,0,0,1.709-.766L39.2,13.838a2.943,2.943,0,0,1-1.22.947A4.123,4.123,0,0,1,36.284,15.137Zm-.26-5.893q-1.012,0-1.2,1.34h2.324v-.178a1.141,1.141,0,0,0-.28-.858A1.115,1.115,0,0,0,36.024,9.244Zm8.777.444-.759-.055a1.363,1.363,0,0,0-1.395.684V15h-2.3V7.6H42.5l.075.95A1.784,1.784,0,0,1,44.2,7.467a2.247,2.247,0,0,1,.643.082ZM49.593,15a2.6,2.6,0,0,1-.219-.663,2.142,2.142,0,0,1-1.777.8A2.624,2.624,0,0,1,45.82,14.5a2.013,2.013,0,0,1-.731-1.589,2.069,2.069,0,0,1,.889-1.818,4.527,4.527,0,0,1,2.584-.615h.711V10.09q0-1.023-.882-1.023a.721.721,0,0,0-.82.811h-2.3a2.065,2.065,0,0,1,.913-1.741,3.835,3.835,0,0,1,2.328-.669,3.363,3.363,0,0,1,2.235.69,2.4,2.4,0,0,1,.841,1.894v3.274a3.353,3.353,0,0,0,.314,1.559V15Zm-1.442-1.5a1.285,1.285,0,0,0,.714-.185,1.157,1.157,0,0,0,.407-.417V11.712H48.6q-1.2,0-1.2,1.08a.659.659,0,0,0,.212.509A.767.767,0,0,0,48.151,13.5Zm4.416-2.249a4.518,4.518,0,0,1,.759-2.769,2.5,2.5,0,0,1,2.119-1.012,2.124,2.124,0,0,1,1.668.779V4.5h2.311V15H57.352l-.116-.793a2.181,2.181,0,0,1-1.8.93,2.493,2.493,0,0,1-2.092-1.012A4.662,4.662,0,0,1,52.567,11.247Zm2.3.144q0,1.969,1.148,1.969a1.134,1.134,0,0,0,1.094-.643V9.9a1.1,1.1,0,0,0-1.08-.656q-1.066,0-1.155,1.723Zm5.571-.157a4.366,4.366,0,0,1,.431-1.972,3.08,3.08,0,0,1,1.237-1.33A3.726,3.726,0,0,1,64,7.467,3.4,3.4,0,0,1,66.622,8.5a3.948,3.948,0,0,1,.957,2.8v.082a3.83,3.83,0,0,1-.96,2.745,3.41,3.41,0,0,1-2.6,1.015,3.449,3.449,0,0,1-2.536-.947,3.7,3.7,0,0,1-1.032-2.567Zm2.3.144a2.752,2.752,0,0,0,.321,1.5,1.07,1.07,0,0,0,.95.479q1.23,0,1.258-1.894v-.232q0-1.989-1.271-1.989-1.155,0-1.251,1.716Z" transform="translate(843 2064)" fill="#12263f"/>
    <path id="Trazado_198072" data-name="Trazado 198072" d="M12.467,11.63a3.635,3.635,0,0,1-.561,1.835A3.383,3.383,0,0,1,10.468,14.7a4.9,4.9,0,0,1-2.116.438,3.908,3.908,0,0,1-3.09-1.278,5.278,5.278,0,0,1-1.128-3.609V9.757A6.025,6.025,0,0,1,4.644,7.2,3.859,3.859,0,0,1,6.11,5.5a4.091,4.091,0,0,1,2.215-.6,4.29,4.29,0,0,1,2.912.954,3.768,3.768,0,0,1,1.251,2.628H10.1A1.783,1.783,0,0,0,9.637,7.18a1.884,1.884,0,0,0-1.312-.4,1.433,1.433,0,0,0-1.312.67,4.306,4.306,0,0,0-.437,2.14v.7a4.764,4.764,0,0,0,.4,2.276,1.463,1.463,0,0,0,1.377.684,1.842,1.842,0,0,0,1.265-.39,1.654,1.654,0,0,0,.465-1.237Zm.738-.4a4.366,4.366,0,0,1,.431-1.972,3.08,3.08,0,0,1,1.237-1.33,3.726,3.726,0,0,1,1.894-.465A3.4,3.4,0,0,1,19.385,8.5a3.948,3.948,0,0,1,.957,2.8v.082a3.83,3.83,0,0,1-.96,2.745,3.41,3.41,0,0,1-2.6,1.015,3.449,3.449,0,0,1-2.536-.947,3.7,3.7,0,0,1-1.032-2.567Zm2.3.144a2.752,2.752,0,0,0,.321,1.5,1.07,1.07,0,0,0,.95.479q1.23,0,1.258-1.894v-.232q0-1.989-1.271-1.989-1.155,0-1.251,1.716ZM23.473,7.6l.075.868a2.508,2.508,0,0,1,2.112-1,2.11,2.11,0,0,1,1.726.69,3.287,3.287,0,0,1,.591,2.078V15H25.667V10.331a1.248,1.248,0,0,0-.226-.824,1.044,1.044,0,0,0-.82-.263,1.1,1.1,0,0,0-1,.533V15h-2.3V7.6Zm9.652,5.318a.532.532,0,0,0-.308-.472,4.679,4.679,0,0,0-1.169-.369,5.33,5.33,0,0,1-1.422-.5,2.382,2.382,0,0,1-.854-.755A1.8,1.8,0,0,1,29.079,9.8a2.044,2.044,0,0,1,.841-1.678,3.464,3.464,0,0,1,2.2-.66,3.837,3.837,0,0,1,2.352.663,2.074,2.074,0,0,1,.889,1.743H33.05q0-.889-.937-.889a.928.928,0,0,0-.608.2.624.624,0,0,0-.246.5.573.573,0,0,0,.3.5,2.842,2.842,0,0,0,.96.314,8.3,8.3,0,0,1,1.159.294,2.105,2.105,0,0,1,1.668,2.058,1.937,1.937,0,0,1-.9,1.647,3.942,3.942,0,0,1-2.328.636,4.023,4.023,0,0,1-1.7-.342,2.835,2.835,0,0,1-1.162-.93,2.105,2.105,0,0,1-.417-1.237H31a.89.89,0,0,0,.342.749,1.406,1.406,0,0,0,.841.236,1.106,1.106,0,0,0,.708-.191A.612.612,0,0,0,33.125,12.922Zm5.981-7.157V7.6h1.217V9.2H39.107v3.384a.864.864,0,0,0,.15.581.807.807,0,0,0,.595.164,3.38,3.38,0,0,0,.574-.041v1.647a4.252,4.252,0,0,1-1.3.2,2.413,2.413,0,0,1-1.757-.561,2.3,2.3,0,0,1-.567-1.7V9.2H35.86V7.6H36.8V5.765ZM45.4,15a2.6,2.6,0,0,1-.219-.663,2.142,2.142,0,0,1-1.777.8,2.624,2.624,0,0,1-1.777-.632,2.013,2.013,0,0,1-.731-1.589A2.069,2.069,0,0,1,41.78,11.1a4.527,4.527,0,0,1,2.584-.615h.711V10.09q0-1.023-.882-1.023a.721.721,0,0,0-.82.811h-2.3a2.065,2.065,0,0,1,.913-1.741,3.835,3.835,0,0,1,2.328-.669,3.363,3.363,0,0,1,2.235.69,2.4,2.4,0,0,1,.841,1.894v3.274a3.353,3.353,0,0,0,.314,1.559V15Zm-1.442-1.5a1.285,1.285,0,0,0,.714-.185,1.157,1.157,0,0,0,.407-.417V11.712H44.4q-1.2,0-1.2,1.08a.659.659,0,0,0,.212.509A.767.767,0,0,0,43.954,13.5ZM50.776,7.6l.075.868a2.508,2.508,0,0,1,2.112-1,2.11,2.11,0,0,1,1.726.69,3.287,3.287,0,0,1,.591,2.078V15H52.97V10.331a1.248,1.248,0,0,0-.226-.824,1.044,1.044,0,0,0-.82-.263,1.1,1.1,0,0,0-1,.533V15h-2.3V7.6Zm8.463-1.839V7.6h1.217V9.2H59.239v3.384a.864.864,0,0,0,.15.581.807.807,0,0,0,.595.164,3.38,3.38,0,0,0,.574-.041v1.647a4.252,4.252,0,0,1-1.3.2,2.413,2.413,0,0,1-1.757-.561,2.3,2.3,0,0,1-.567-1.7V9.2h-.943V7.6h.943V5.765Zm5.7,9.372a3.8,3.8,0,0,1-2.755-1.015,3.506,3.506,0,0,1-1.053-2.642v-.191a4.542,4.542,0,0,1,.42-2A3.076,3.076,0,0,1,62.78,7.942a3.7,3.7,0,0,1,1.914-.475,3.2,3.2,0,0,1,2.461.967,3.8,3.8,0,0,1,.9,2.7v.9h-4.58a1.66,1.66,0,0,0,.54.978,1.607,1.607,0,0,0,1.08.355,2.07,2.07,0,0,0,1.709-.766l1.053,1.244a2.943,2.943,0,0,1-1.22.947A4.124,4.124,0,0,1,64.94,15.137Zm-.26-5.893q-1.012,0-1.2,1.34H65.8v-.178a1.141,1.141,0,0,0-.28-.858A1.115,1.115,0,0,0,64.68,9.244Z" transform="translate(843 2030)" fill="#12263f"/>
    <path id="Trazado_198066" data-name="Trazado 198066" d="M.752,15V5.047H4.327a5.063,5.063,0,0,1,2.922.7,2.343,2.343,0,0,1,1,2.044A2.368,2.368,0,0,1,7.9,9.114a2.071,2.071,0,0,1-1.046.807,2.1,2.1,0,0,1,1.2.766,2.226,2.226,0,0,1,.417,1.367,2.635,2.635,0,0,1-.926,2.2A4.408,4.408,0,0,1,4.792,15Zm2.4-4.231v2.386H4.724a1.5,1.5,0,0,0,1-.3,1.041,1.041,0,0,0,.349-.837,1.1,1.1,0,0,0-1.237-1.251Zm0-1.572H4.4a1.777,1.777,0,0,0,1.121-.288,1.022,1.022,0,0,0,.335-.83A1.073,1.073,0,0,0,5.5,7.17a1.939,1.939,0,0,0-1.169-.278H3.151ZM13.843,15a2.6,2.6,0,0,1-.219-.663,2.142,2.142,0,0,1-1.777.8,2.624,2.624,0,0,1-1.777-.632,2.013,2.013,0,0,1-.731-1.589,2.069,2.069,0,0,1,.889-1.818,4.527,4.527,0,0,1,2.584-.615h.711V10.09q0-1.023-.882-1.023a.721.721,0,0,0-.82.811h-2.3a2.065,2.065,0,0,1,.913-1.741,3.835,3.835,0,0,1,2.328-.669,3.363,3.363,0,0,1,2.235.69,2.4,2.4,0,0,1,.841,1.894v3.274a3.353,3.353,0,0,0,.314,1.559V15ZM12.4,13.5a1.285,1.285,0,0,0,.714-.185,1.157,1.157,0,0,0,.407-.417V11.712h-.67q-1.2,0-1.2,1.08a.659.659,0,0,0,.212.509A.767.767,0,0,0,12.4,13.5ZM19.585,7.6v7.649a2.685,2.685,0,0,1-.752,2.023,2.889,2.889,0,0,1-2.078.711,4.906,4.906,0,0,1-1.087-.116V16.128a4.408,4.408,0,0,0,.649.062.843.843,0,0,0,.957-.95V7.6ZM17.1,5.7a1.028,1.028,0,0,1,.355-.807,1.511,1.511,0,0,1,1.846,0,1.028,1.028,0,0,1,.355.807A1.028,1.028,0,0,1,19.3,6.5a1.511,1.511,0,0,1-1.846,0A1.028,1.028,0,0,1,17.1,5.7Zm7.95,9.3a2.6,2.6,0,0,1-.219-.663,2.142,2.142,0,0,1-1.777.8A2.624,2.624,0,0,1,21.28,14.5a2.013,2.013,0,0,1-.731-1.589,2.069,2.069,0,0,1,.889-1.818,4.527,4.527,0,0,1,2.584-.615h.711V10.09q0-1.023-.882-1.023a.721.721,0,0,0-.82.811h-2.3a2.065,2.065,0,0,1,.913-1.741,3.835,3.835,0,0,1,2.328-.669,3.363,3.363,0,0,1,2.235.69,2.4,2.4,0,0,1,.841,1.894v3.274a3.353,3.353,0,0,0,.314,1.559V15Zm-1.442-1.5a1.285,1.285,0,0,0,.714-.185,1.157,1.157,0,0,0,.407-.417V11.712h-.67q-1.2,0-1.2,1.08a.659.659,0,0,0,.212.509A.767.767,0,0,0,23.611,13.5Z" transform="translate(1044 2160)" fill="#12263f"/>
    <path id="Trazado_198064" data-name="Trazado 198064" d="M3.9,5.047l2.222,6.925L8.34,5.047H11.5V15H9.092V12.676l.232-4.758L6.918,15H5.332L2.919,7.911l.232,4.765V15H.752V5.047ZM16.5,15.137a3.8,3.8,0,0,1-2.755-1.015,3.506,3.506,0,0,1-1.053-2.642v-.191a4.542,4.542,0,0,1,.42-2,3.076,3.076,0,0,1,1.227-1.343,3.7,3.7,0,0,1,1.914-.475,3.2,3.2,0,0,1,2.461.967,3.8,3.8,0,0,1,.9,2.7v.9h-4.58a1.66,1.66,0,0,0,.54.978,1.607,1.607,0,0,0,1.08.355,2.07,2.07,0,0,0,1.709-.766l1.053,1.244a2.943,2.943,0,0,1-1.22.947A4.124,4.124,0,0,1,16.5,15.137Zm-.26-5.893q-1.012,0-1.2,1.34h2.324v-.178a1.141,1.141,0,0,0-.28-.858A1.115,1.115,0,0,0,16.235,9.244Zm4.013,2a4.518,4.518,0,0,1,.759-2.769,2.5,2.5,0,0,1,2.119-1.012,2.124,2.124,0,0,1,1.668.779V4.5H27.1V15H25.033l-.116-.793a2.181,2.181,0,0,1-1.8.93,2.493,2.493,0,0,1-2.092-1.012A4.661,4.661,0,0,1,20.248,11.247Zm2.3.144q0,1.969,1.148,1.969a1.134,1.134,0,0,0,1.094-.643V9.9a1.1,1.1,0,0,0-1.08-.656q-1.066,0-1.155,1.723ZM30.844,15H28.533V7.6h2.311ZM28.4,5.7a1.028,1.028,0,0,1,.355-.807,1.511,1.511,0,0,1,1.846,0,1.028,1.028,0,0,1,.355.807A1.028,1.028,0,0,1,30.6,6.5a1.511,1.511,0,0,1-1.846,0A1.028,1.028,0,0,1,28.4,5.7ZM36.429,15a2.6,2.6,0,0,1-.219-.663,2.142,2.142,0,0,1-1.777.8,2.624,2.624,0,0,1-1.777-.632,2.013,2.013,0,0,1-.731-1.589,2.069,2.069,0,0,1,.889-1.818,4.527,4.527,0,0,1,2.584-.615h.711V10.09q0-1.023-.882-1.023a.721.721,0,0,0-.82.811H32.1a2.065,2.065,0,0,1,.913-1.741,3.835,3.835,0,0,1,2.328-.669,3.363,3.363,0,0,1,2.235.69,2.4,2.4,0,0,1,.841,1.894v3.274a3.353,3.353,0,0,0,.314,1.559V15Zm-1.442-1.5a1.285,1.285,0,0,0,.714-.185,1.157,1.157,0,0,0,.407-.417V11.712h-.67q-1.2,0-1.2,1.08a.659.659,0,0,0,.212.509A.767.767,0,0,0,34.986,13.5ZM41.809,7.6l.075.868a2.508,2.508,0,0,1,2.112-1,2.11,2.11,0,0,1,1.726.69,3.287,3.287,0,0,1,.591,2.078V15H44V10.331a1.248,1.248,0,0,0-.226-.824,1.044,1.044,0,0,0-.82-.263,1.1,1.1,0,0,0-1,.533V15h-2.3V7.6ZM4.813,40a2.6,2.6,0,0,1-.219-.663,2.142,2.142,0,0,1-1.777.8A2.624,2.624,0,0,1,1.039,39.5a2.013,2.013,0,0,1-.731-1.589A2.069,2.069,0,0,1,1.2,36.1a4.527,4.527,0,0,1,2.584-.615h.711V35.09q0-1.023-.882-1.023a.721.721,0,0,0-.82.811H.485A2.065,2.065,0,0,1,1.4,33.136a3.835,3.835,0,0,1,2.328-.669,3.363,3.363,0,0,1,2.235.69A2.4,2.4,0,0,1,6.8,35.051v3.274a3.353,3.353,0,0,0,.314,1.559V40ZM3.37,38.5a1.285,1.285,0,0,0,.714-.185,1.157,1.157,0,0,0,.407-.417V36.712h-.67q-1.2,0-1.2,1.08a.659.659,0,0,0,.212.509A.767.767,0,0,0,3.37,38.5Z" transform="translate(1119 2160)" fill="#12263f"/>
    <path id="Trazado_198062" data-name="Trazado 198062" d="M6.405,13.141H3.117L2.543,15H-.021L3.63,5.047H5.886L9.563,15H6.986ZM3.691,11.288h2.14L4.758,7.836ZM12.612,15H10.3V4.5h2.311Zm4.1-9.235V7.6h1.217V9.2H16.714v3.384a.864.864,0,0,0,.15.581.807.807,0,0,0,.595.164,3.38,3.38,0,0,0,.574-.041v1.647a4.252,4.252,0,0,1-1.3.2,2.413,2.413,0,0,1-1.757-.561,2.3,2.3,0,0,1-.567-1.7V9.2h-.943V7.6h.943V5.765ZM23,15a2.6,2.6,0,0,1-.219-.663,2.142,2.142,0,0,1-1.777.8,2.624,2.624,0,0,1-1.777-.632,2.013,2.013,0,0,1-.731-1.589,2.069,2.069,0,0,1,.889-1.818,4.527,4.527,0,0,1,2.584-.615h.711V10.09q0-1.023-.882-1.023a.721.721,0,0,0-.82.811h-2.3a2.065,2.065,0,0,1,.913-1.741,3.835,3.835,0,0,1,2.328-.669,3.363,3.363,0,0,1,2.235.69,2.4,2.4,0,0,1,.841,1.894v3.274a3.353,3.353,0,0,0,.314,1.559V15Zm-1.442-1.5a1.285,1.285,0,0,0,.714-.185,1.157,1.157,0,0,0,.407-.417V11.712h-.67q-1.2,0-1.2,1.08a.659.659,0,0,0,.212.509A.767.767,0,0,0,21.561,13.5Z" transform="translate(1221 2160)" fill="#12263f"/>
    <path id="Trazado_198060" data-name="Trazado 198060" d="M3.9,5.047l2.222,6.925L8.34,5.047H11.5V15H9.092V12.676l.232-4.758L6.918,15H5.332L2.919,7.911l.232,4.765V15H.752V5.047ZM17.322,14.2a2.375,2.375,0,0,1-1.976.937,2.329,2.329,0,0,1-1.842-.708,2.976,2.976,0,0,1-.625-2.034V7.6h2.3v4.806a.828.828,0,0,0,.923.95,1.2,1.2,0,0,0,1.128-.567V7.6h2.317V15h-2.16Zm6.446-2.427L25,7.6h2.468l-3.015,8.634-.13.314a2.29,2.29,0,0,1-2.27,1.436,3.61,3.61,0,0,1-.95-.136V16.21h.3a1.576,1.576,0,0,0,.742-.14.851.851,0,0,0,.379-.5l.185-.493L20.139,7.6H22.6ZM35.718,15a2.6,2.6,0,0,1-.219-.663,2.142,2.142,0,0,1-1.777.8,2.624,2.624,0,0,1-1.777-.632,2.013,2.013,0,0,1-.731-1.589A2.069,2.069,0,0,1,32.1,11.1a4.527,4.527,0,0,1,2.584-.615H35.4V10.09q0-1.023-.882-1.023a.721.721,0,0,0-.82.811h-2.3A2.065,2.065,0,0,1,32.3,8.136a3.835,3.835,0,0,1,2.328-.669,3.363,3.363,0,0,1,2.235.69,2.4,2.4,0,0,1,.841,1.894v3.274a3.353,3.353,0,0,0,.314,1.559V15Zm-1.442-1.5a1.285,1.285,0,0,0,.714-.185,1.157,1.157,0,0,0,.407-.417V11.712h-.67q-1.2,0-1.2,1.08a.659.659,0,0,0,.212.509A.767.767,0,0,0,34.275,13.5ZM41.412,15H39.1V4.5h2.311Zm4.1-9.235V7.6H46.73V9.2H45.514v3.384a.864.864,0,0,0,.15.581.807.807,0,0,0,.595.164,3.38,3.38,0,0,0,.574-.041v1.647a4.252,4.252,0,0,1-1.3.2,2.413,2.413,0,0,1-1.757-.561,2.3,2.3,0,0,1-.567-1.7V9.2h-.943V7.6h.943V5.765ZM51.8,15a2.6,2.6,0,0,1-.219-.663,2.142,2.142,0,0,1-1.777.8,2.624,2.624,0,0,1-1.777-.632,2.013,2.013,0,0,1-.731-1.589,2.069,2.069,0,0,1,.889-1.818,4.527,4.527,0,0,1,2.584-.615h.711V10.09q0-1.023-.882-1.023a.721.721,0,0,0-.82.811h-2.3a2.065,2.065,0,0,1,.913-1.741,3.835,3.835,0,0,1,2.328-.669,3.363,3.363,0,0,1,2.235.69,2.4,2.4,0,0,1,.841,1.894v3.274a3.353,3.353,0,0,0,.314,1.559V15ZM50.36,13.5a1.285,1.285,0,0,0,.714-.185,1.157,1.157,0,0,0,.407-.417V11.712h-.67q-1.2,0-1.2,1.08a.659.659,0,0,0,.212.509A.767.767,0,0,0,50.36,13.5Z" transform="translate(1284 2160)" fill="#12263f"/>
    <path id="Trazado_198063" data-name="Trazado 198063" d="M0,0V29" transform="translate(1186.5 2156.5)" fill="none" stroke="#707070" stroke-width="1"/>
    <path id="Trazado_198061" data-name="Trazado 198061" d="M0,0V29" transform="translate(1266.5 2156.5)" fill="none" stroke="#707070" stroke-width="1"/>
    <path id="Trazado_198065" data-name="Trazado 198065" d="M0,0V29" transform="translate(1102.5 2156.5)" fill="none" stroke="#707070" stroke-width="1"/>
    <path id="Trazado_198067" data-name="Trazado 198067" d="M0,0V29" transform="translate(1009.5 2156.5)" fill="none" stroke="#707070" stroke-width="1"/>
  </g>
</svg>
