<svg xmlns="http://www.w3.org/2000/svg" width="52.838" height="59.572" viewBox="0 0 52.838 59.572">
  <g id="Grupo_136801" data-name="Grupo 136801" transform="translate(-836.544 -12.871)">
    <path id="Trazado_197631" data-name="Trazado 197631" d="M837.373,12.871H877.4a1.585,1.585,0,0,1,.837,1.636c-.046.6-.009,1.2-.009,1.8v1.564h3.409c1.207,0,1.593.389,1.593,1.607q0,7.649,0,15.3v.667c1.335.158,2.957-.463,3.248,1.74.491-.525.874-.958,1.282-1.367.477-.479.993-.516,1.371-.127s.331.88-.157,1.374c-.722.731-1.473,1.435-2.166,2.193a1.549,1.549,0,0,0-.377.9c-.049.967,0,1.939-.029,2.907-.022.727-.673,1.174-1.223.814a1.435,1.435,0,0,1-.488-.9,8.574,8.574,0,0,1-.021-1.446c-1.44,1.269-2.721,2.562-4.011,3.847-.571.57-.978.573-1.542.013q-1.755-1.741-3.495-3.5a.88.88,0,1,1,1.223-1.234c.583.568,1.163,1.14,1.726,1.728.422.441.814.91,1.245,1.395,1.464-1.473,2.764-2.832,4.126-4.126a2.094,2.094,0,0,0,.747-1.824c-.036-.473-.146-.621-.63-.618-3.315.02-6.631.01-9.946.012-.169,0-.338.022-.5.033V48.3H884.68c0-.413-.025-.781.006-1.144a.812.812,0,0,1,.88-.81.794.794,0,0,1,.827.8c.031.444.029.891.016,1.337a1.484,1.484,0,0,1-1.648,1.606c-.5.007-.993,0-1.489,0v1.736c1.277.153,2.9-.483,3.2,1.683.414-.427.743-.775,1.081-1.115.655-.659,1.166-.762,1.585-.328s.314.9-.327,1.541c-.671.672-1.366,1.324-2,2.027a1.493,1.493,0,0,0-.374.9c-.029,2.734-.011,5.467-.02,8.2,0,1.18-.532,1.7-1.7,1.724-.476.008-.953,0-1.478,0,0,1.542,0,2.993,0,4.443,0,1.13-.414,1.542-1.544,1.542H843.12c-1.151,0-1.558-.417-1.56-1.589,0-1.119,0-2.238,0-3.333-.091-.04-.124-.068-.158-.068q-1.57-.009-3.14-.012c-1.336,0-1.7-.362-1.7-1.678q0-25.593-.014-51.185A1.777,1.777,0,0,1,837.373,12.871Zm47.254,44.941c-.217.2-.332.307-.441.415-1.18,1.178-2.356,2.362-3.54,3.535-.561.556-.978.547-1.544-.008-.36-.353-.714-.712-1.07-1.069-.809-.809-1.624-1.612-2.426-2.428a.877.877,0,1,1,1.209-1.25c.156.145.3.3.453.452l2.6,2.621c1.368-1.371,2.63-2.745,4.015-3.984a2.37,2.37,0,0,0,.723-2.456H873.595V64.713h.66c.931,0,1.862,0,2.792.011a.791.791,0,0,1,.834.666.774.774,0,0,1-.412.933,1.8,1.8,0,0,1-.732.13c-.95.014-1.9.006-2.85.006-1.523,0-1.889-.3-2.131-1.807H851.587c-.194,0-.389.011-.582-.007a.867.867,0,0,1,.007-1.733c.173-.016.349-.005.523-.005h20.245V59.524h-20.27a3.121,3.121,0,0,1-.58-.017.865.865,0,0,1,.041-1.72,4.218,4.218,0,0,1,.523-.008h20.279V54.394c-1.457,0-2.871,0-4.284,0-.682,0-1.071-.334-1.072-.878s.373-.861,1.07-.863c1.338,0,2.676.007,4.014-.011a.909.909,0,0,0,.6-.21,1.778,1.778,0,0,1,1.4-.579c2.443.008,4.887,0,7.33,0h.606V50.089h-.678c-2.4,0-4.81.023-7.213-.021a2.358,2.358,0,0,1-1.306-.473,1.286,1.286,0,0,0-.851-.34q-9.977.009-19.954,0c-.85,0-1.254-.278-1.266-.862s.391-.879,1.23-.882h20.385v-3.4h-.774q-9.715,0-19.431,0a3.556,3.556,0,0,1-.751-.048.848.848,0,0,1,.025-1.656,4.117,4.117,0,0,1,.753-.038q9.715,0,19.431,0h.736v-3.4h-8.936a4.032,4.032,0,0,1-.58-.021.851.851,0,0,1-.112-1.657,2.72,2.72,0,0,1,.691-.064q4.16-.006,8.319,0h.611c.2-1.373.636-1.744,1.978-1.745q3.549,0,7.1,0c.2,0,.407-.018.6-.028V19.619H855.927a3.381,3.381,0,0,1-.638-.018.866.866,0,0,1,.025-1.714,3.689,3.689,0,0,1,.581-.012h20.551V14.653h-38.1V65.662h3.212v-.775q0-22.717,0-45.435c0-1.172.4-1.578,1.569-1.578q2.56,0,5.12,0c1.008,0,2.017-.014,3.025.006a.864.864,0,0,1,.841,1.239,1,1,0,0,1-1.028.5c-2.385-.009-4.77,0-7.156,0h-.59V70.66h38.112V66.5c-.16-.024-.293-.038-.424-.064a.829.829,0,0,1-.758-.93.814.814,0,0,1,.851-.784c.232-.014.465-.008.7-.009h2.808Z" fill="#6836bf"/>
    <path id="Trazado_197632" data-name="Trazado 197632" d="M936.671,138.263H925.736c-.194,0-.442.064-.57-.031-.27-.2-.636-.469-.665-.742s.254-.639.5-.86c.15-.138.478-.108.726-.108q10.965-.007,21.929,0a2.293,2.293,0,0,1,.631.063.853.853,0,0,1-.154,1.669,5.361,5.361,0,0,1-.581.011Z" transform="translate(-74.283 -104.427)" fill="#6836bf"/>
    <path id="Trazado_197633" data-name="Trazado 197633" d="M960.264,95.589h-6.571a3.8,3.8,0,0,1-.523-.013.853.853,0,0,1-.15-1.656,2.446,2.446,0,0,1,.688-.073q6.571-.006,13.142,0a3.54,3.54,0,0,1,.406.01.891.891,0,0,1,.866.911.85.85,0,0,1-.939.819C964.877,95.594,962.571,95.589,960.264,95.589Z" transform="translate(-97.874 -68.387)" fill="#6836bf"/>
    <path id="Trazado_197634" data-name="Trazado 197634" d="M931.932,268.768q3.112,0,6.223,0c.74,0,1.124.308,1.116.876-.008.551-.413.866-1.143.867q-6.223,0-12.446,0c-.457,0-.915-.08-1.029-.563a1.256,1.256,0,0,1,.214-.931,1.107,1.107,0,0,1,.784-.243C927.744,268.759,929.838,268.768,931.932,268.768Z" transform="translate(-74.395 -216.119)" fill="#6836bf"/>
    <path id="Trazado_197635" data-name="Trazado 197635" d="M929.115,171.3c-1.279,0-2.558,0-3.837,0-.7,0-1.074-.312-1.073-.862s.38-.875,1.073-.877q3.837-.012,7.673,0c.691,0,1.07.331,1.071.877s-.366.859-1.07.863C931.673,171.3,930.394,171.3,929.115,171.3Z" transform="translate(-74.035 -132.325)" fill="#6836bf"/>
  </g>
</svg>
