<svg xmlns="http://www.w3.org/2000/svg" width="62.814" height="59.991" viewBox="0 0 62.814 59.991">
  <g id="Grupo_136802" data-name="Grupo 136802" transform="translate(-862.315 -33.551)">
    <path id="Trazado_197636" data-name="Trazado 197636" d="M925.129,68.043a11.731,11.731,0,0,1-.893,1.714,3.6,3.6,0,0,1-2.753,1.381c-.125.453-.255.919-.383,1.386a28.39,28.39,0,0,1-5.075,10.049,3.265,3.265,0,0,1-.4.461.848.848,0,0,1-1.173.043.831.831,0,0,1-.229-1.148,5.113,5.113,0,0,1,.435-.591,26.944,26.944,0,0,0,4.882-10.069.66.66,0,0,0-.326-.84,3.723,3.723,0,0,1,.547-6.446.708.708,0,0,0,.48-.829,26.311,26.311,0,0,0-8.42-17.722,26.594,26.594,0,0,0-25.729-6.141,8.945,8.945,0,0,1,.071,5.1c.267-.068.455-.106.637-.163a21.486,21.486,0,0,1,18.565,2.392.869.869,0,0,0,1.026.06,3.736,3.736,0,0,1,5.094,4.915.914.914,0,0,0,.1,1.084,21.42,21.42,0,0,1,3.783,11.973c.008.541-.114.987-.687,1.153-.617.179-1.074-.282-1.159-1.063-.159-1.48-.258-2.975-.552-4.429a18.348,18.348,0,0,0-2.84-6.532.518.518,0,0,0-.736-.253,3.748,3.748,0,0,1-4.845-4.755.477.477,0,0,0-.254-.676A19.721,19.721,0,0,0,891.9,45.066a19.056,19.056,0,0,0-6.482,1.691,1.863,1.863,0,0,0-.772.712c-1.7,2.907-3.381,5.831-5.067,8.748-.872,1.507-2.169,1.5-3.047-.005-.133-.228-.271-.454-.41-.686-2.719,2.862-3.283,12.334-.992,16.838a3.748,3.748,0,0,1,4.317,1.974,3.655,3.655,0,0,1-.419,4.088c1.915,3.1,9.616,6.714,13.59,6.359V80c-1.064-.217-2.115-.371-3.132-.649a15,15,0,1,1,18.971-16.329c.07.567.1,1.139.119,1.71.018.688-.31,1.086-.865,1.107-.577.022-.956-.378-.964-1.094a12.841,12.841,0,0,0-1.086-5.056,13.162,13.162,0,1,0-13.331,18.34c.078.007.158,0,.282,0V73.114a8.4,8.4,0,0,1-4.91-2.439,8.227,8.227,0,1,1,13.735-8.22c.227.729.042,1.248-.506,1.419-.577.18-.985-.1-1.241-.849a6.394,6.394,0,1,0-7.062,8.188c.01-.217.028-.43.028-.643,0-1.779-.01-3.558.013-5.336a1.6,1.6,0,0,1,.258-.909c.46-.6,1.29-.364,1.558.43.582,1.72,1.134,3.451,1.7,5.176.075.228.163.452.254.7a6.4,6.4,0,0,0,3.011-3.171c.067-.149.112-.307.182-.455a.929.929,0,0,1,1.205-.548.91.91,0,0,1,.5,1.218,8.068,8.068,0,0,1-3.28,4.157c-.322.211-.665.392-1.044.614l5.763,17.634a37.713,37.713,0,0,0,3.649-1.77c1.627-1.007,3.153-2.179,4.725-3.276a2.6,2.6,0,0,1,.722-.431.811.811,0,0,1,.977.448.855.855,0,0,1-.249,1.152c-.952.771-1.881,1.583-2.895,2.265-6.649,4.473-13.971,6.133-21.784,4.393-11.567-2.576-18.9-9.8-22.071-21.221a.783.783,0,0,0-.667-.644,3.735,3.735,0,0,1-.64-7.052.765.765,0,0,0,.559-.746,27.912,27.912,0,0,1,5.933-15.745c.256-.331.148-.537-.019-.805a8.562,8.562,0,0,1-1.367-5.482,8.356,8.356,0,0,1,8.622-7.611,12.9,12.9,0,0,1,2.752.514.92.92,0,0,1,.755,1.239c-.2.527-.7.7-1.383.474a6.586,6.586,0,0,0-8.8,4.828A6.029,6.029,0,0,0,872.212,45c1.879,3.325,3.8,6.623,5.713,9.932.03.053.069.1.133.192.134-.214.243-.376.341-.545q2.623-4.535,5.243-9.072a6.556,6.556,0,0,0-.043-7.136c-.354-.584-.29-1.1.159-1.408a.884.884,0,0,1,1.313.324c.2.3.406.266.669.188a27.273,27.273,0,0,1,8.78-1.086,28.6,28.6,0,0,1,27.095,23.13c.231,1.179.323,2.386.449,3.584.037.354.081.575.5.7a3.941,3.941,0,0,1,2.571,2.882ZM872.31,48.9a1.158,1.158,0,0,0-.183.147,26.166,26.166,0,0,0-5.186,14.3.61.61,0,0,0,.341.436,3.676,3.676,0,0,1,2.523,3.18,3.57,3.57,0,0,1-1.911,3.682.461.461,0,0,0-.26.639c.059.173.087.357.14.533q4.672,15.43,20.335,19.247c1.452.351,2.969.436,4.513.651V86.706l-.506-.043a21.576,21.576,0,0,1-14.205-6.655.962.962,0,0,0-1.051-.307,3.732,3.732,0,0,1-3.684-5.99.771.771,0,0,0,.108-.919,20.664,20.664,0,0,1-1.389-5.88,21.625,21.625,0,0,1,2.9-13,.676.676,0,0,0,.073-.547C874.036,51.872,873.175,50.4,872.31,48.9Zm28.7,41.687-6.38-19.512-.089.034v20.5A25.123,25.123,0,0,0,901.007,90.585Zm9.009-40.538a1.929,1.929,0,1,0-1.939,1.906A1.967,1.967,0,0,0,910.016,50.047Zm-31.99,26.014a1.914,1.914,0,1,0-1.925,1.905A1.949,1.949,0,0,0,878.026,76.062Zm-10.032-8.674a1.9,1.9,0,0,0-1.874-1.934,1.913,1.913,0,1,0-.045,3.825A1.9,1.9,0,0,0,867.994,67.388Zm53.355,1.891a1.913,1.913,0,1,0,0-3.825,1.913,1.913,0,0,0,0,3.825Z" transform="translate(0 0)" fill="#6836bf"/>
    <path id="Trazado_197637" data-name="Trazado 197637" d="M934.167,66.816a3.975,3.975,0,0,1,7.949-.022,3.975,3.975,0,1,1-7.949.022Zm1.84-.017a2.146,2.146,0,0,0,2.137,2.148,2.177,2.177,0,0,0,2.131-2.166,2.143,2.143,0,0,0-2.119-2.1A2.117,2.117,0,0,0,936.008,66.8Z" transform="translate(-60.076 -24.488)" fill="#6836bf"/>
  </g>
</svg>
