<svg xmlns="http://www.w3.org/2000/svg" width="59.636" height="59.631" viewBox="0 0 59.636 59.631">
  <g id="Grupo_136803" data-name="Grupo 136803" transform="translate(-878.37 6.837)">
    <path id="Trazado_197638" data-name="Trazado 197638" d="M925.088,203.472c2.1-1.077,4.176-2.153,6.262-3.2a4.69,4.69,0,0,1,5.765,1.062,3.012,3.012,0,0,1-.622,4.756q-7.182,4.837-14.378,9.654c-1.6,1.072-3.22,2.11-4.789,3.224a11.681,11.681,0,0,1-8.66,1.98c-3.918-.513-7.853-.89-11.782-1.319-1.624-.177-3.14.385-4.757.676.121.588.234,1.129.344,1.671.177.871-.084,1.289-.964,1.48q-3.607.783-7.217,1.548c-.876.188-1.289-.072-1.473-.944q-1.612-7.648-3.217-15.3-.593-2.823-1.182-5.646c-.169-.809.081-1.238.872-1.413q3.664-.81,7.334-1.591c.872-.184,1.249.091,1.449.988.193.862.376,1.725.55,2.528a34.748,34.748,0,0,1,3.366-1.5,12.42,12.42,0,0,1,10.028.908c1.7.9,3.408,1.784,5.095,2.708a3.209,3.209,0,0,0,3.247.014c2.4-1.255,4.819-2.474,7.229-3.712C920.488,200.557,922.865,200.993,925.088,203.472Zm-29.26,8.038c.216.04.395.065.57.106,3.1.739,6.191,1.493,9.292,2.216a8.491,8.491,0,0,0,6.415-.919c3.678-2.152,7.339-4.335,11-6.511a1.062,1.062,0,0,0,.36-1.761,3.5,3.5,0,0,0-4.537-1.046q-3.875,1.96-7.729,3.963a5.067,5.067,0,0,1-5.04-.068c-1.671-.91-3.35-1.807-5.043-2.675a10.653,10.653,0,0,0-11.505.7.823.823,0,0,0-.4,1.016c.627,2.89,1.222,5.787,1.832,8.68.219,1.041.448,2.081.677,3.143l.922-.194a13.636,13.636,0,0,1,4.355-.519c3.929.431,7.867.8,11.784,1.319a10.286,10.286,0,0,0,7.645-1.762c2.892-2.038,5.868-3.958,8.806-5.93q5.052-3.39,10.1-6.785a1.1,1.1,0,0,0,.225-1.905,2.691,2.691,0,0,0-3.243-.569q-3.1,1.559-6.18,3.176a.837.837,0,0,0-.386.546,3.006,3.006,0,0,1-1.5,2.305c-3.752,2.231-7.494,4.479-11.271,6.667a9.881,9.881,0,0,1-7.012,1.188c-2.271-.446-4.512-1.041-6.766-1.571-1.262-.3-2.524-.6-3.825-.907ZM884.6,222.9l5.768-1.237-4.084-19.446-5.762,1.253Z" transform="translate(0 -172.27)" fill="#6836bf"/>
    <path id="Trazado_197639" data-name="Trazado 197639" d="M905.69,16.726l-1.505-1.408c.16-.17.3-.323.44-.468q6.567-6.569,13.135-13.136c.812-.812,1.209-.813,2.022,0,1.962,1.961,3.922,3.924,5.93,5.934.18-.169.344-.315.5-.47q5.229-5.227,10.456-10.455c.783-.783,1.2-.785,1.978,0q3.714,3.71,7.422,7.427a3.785,3.785,0,0,1,.365.484l9.455-9.458H953.6v-2.01h.832c1.3,0,2.609-.006,3.914,0,.814,0,1.178.364,1.183,1.174.008,1.57,0,3.141,0,4.749h-1.976V-3.4c-.25.229-.412.366-.562.516q-4.681,4.677-9.359,9.356c-.836.836-1.217.832-2.066-.016l-7.381-7.38c-.159-.159-.324-.311-.518-.5-.184.171-.351.318-.508.474q-5.207,5.2-10.413,10.411c-.815.815-1.215.817-2.022.007q-2.94-2.945-5.882-5.9Z" transform="translate(-21.53)" fill="#6836bf"/>
    <path id="Trazado_197640" data-name="Trazado 197640" d="M1147.733,103.409q0-3.572,0-7.145c0-.974.328-1.3,1.305-1.3,1.16,0,2.319-.007,3.479,0,.811.006,1.176.367,1.177,1.18q.007,7.269,0,14.537c0,.81-.369,1.172-1.181,1.177q-1.8.012-3.6,0c-.81-.006-1.173-.368-1.176-1.181C1147.729,108.255,1147.733,105.832,1147.733,103.409Zm3.932,6.437V96.979h-1.911v12.866Z" transform="translate(-224.647 -84.898)" fill="#6836bf"/>
    <path id="Trazado_197641" data-name="Trazado 197641" d="M1039.944,114.356q0-3.044,0-6.088c0-1.008.322-1.322,1.347-1.323,1.118,0,2.236,0,3.355,0,.9,0,1.26.343,1.261,1.222q.006,6.243,0,12.487c0,.843-.365,1.195-1.222,1.2q-1.77.009-3.541,0c-.843-.005-1.2-.365-1.2-1.222C1039.94,118.539,1039.944,116.448,1039.944,114.356Zm3.935,5.482V108.981h-1.915v10.856Z" transform="translate(-134.751 -94.892)" fill="#6836bf"/>
    <path id="Trazado_197642" data-name="Trazado 197642" d="M1093.836,130.8c0-1.553,0-3.106,0-4.659,0-.893.348-1.238,1.24-1.242,1.18-.005,2.361-.007,3.541,0,.812.006,1.178.366,1.179,1.177q.009,4.783,0,9.567c0,.811-.368,1.174-1.178,1.18q-1.8.013-3.6,0c-.812-.006-1.174-.367-1.178-1.179C1093.83,134.034,1093.836,132.419,1093.836,130.8Zm3.951-3.882h-1.926V134.8h1.926Z" transform="translate(-179.696 -109.866)" fill="#6836bf"/>
    <path id="Trazado_197643" data-name="Trazado 197643" d="M992,152.827c0,.932.007,1.864,0,2.8-.008.811-.369,1.173-1.18,1.178q-1.8.013-3.6,0c-.811-.006-1.174-.367-1.177-1.18q-.011-2.8,0-5.591c0-.812.365-1.171,1.178-1.177q1.8-.012,3.6,0c.811.005,1.171.366,1.178,1.179C992.011,150.964,992,151.9,992,152.827Zm-3.945-1.962v3.913h1.916v-3.913Z" transform="translate(-89.794 -129.84)" fill="#6836bf"/>
    <path id="Trazado_197644" data-name="Trazado 197644" d="M907.251,229.011l.416,1.932-1.931.42-.421-1.931Z" transform="translate(-22.473 -196.696)" fill="#6836bf"/>
  </g>
</svg>
