<svg xmlns="http://www.w3.org/2000/svg" width="59.752" height="59.99" viewBox="0 0 59.752 59.99">
  <g id="Grupo_136804" data-name="Grupo 136804" transform="translate(-882 70.16)">
    <path id="Trazado_197645" data-name="Trazado 197645" d="M932.961-70.16a1.488,1.488,0,0,1,.87,1.4c.126,2,.3,4,.456,6.063,1.12.089,2.221.178,3.323.264.992.077,1.984.157,2.977.225a1.145,1.145,0,0,1,1.079.759,1.127,1.127,0,0,1-.308,1.283c-1.724,1.727-3.44,3.461-5.187,5.165a4.432,4.432,0,0,1-3.241,1.261c-1.184-.008-2.368,0-3.613,0,5.719,7.493,7.481,15.753,4.781,24.779a25.885,25.885,0,0,1-11.41,14.773,26.611,26.611,0,0,1-34.469-5.564,26.577,26.577,0,0,1,.643-34.9,26.647,26.647,0,0,1,36.46-3.009,3.952,3.952,0,0,0,.05-.453c-.008-1.073-.024-2.147-.036-3.22a4.393,4.393,0,0,1,1.262-3.239c1.707-1.743,3.441-3.46,5.168-5.184a5.625,5.625,0,0,1,.492-.4Zm-17.78,28.385a8.2,8.2,0,0,1-1.648,11.442,8.125,8.125,0,0,1-10.6-.747,8.105,8.105,0,0,1-.877-10.5,7.9,7.9,0,0,1,4.644-3.155,8.034,8.034,0,0,1,6.611,1.21l2.733-2.732a11.753,11.753,0,0,0-9.018-2.439,11.938,11.938,0,0,0-10.058,9.346,11.835,11.835,0,0,0,5.218,12.535,11.646,11.646,0,0,0,11.663.736c.829-.376,1.5-.236,1.816.408.339.683.045,1.3-.818,1.715a14.085,14.085,0,0,1-7.8,1.322,14.3,14.3,0,0,1-12.643-13.2,14.308,14.308,0,0,1,17.883-14.856,14.242,14.242,0,0,1,5.4,2.742l2.711-2.721a17.849,17.849,0,0,0-10.412-4.262,18.06,18.06,0,0,0-7.317.959,1.184,1.184,0,0,1-1.621-.6,1.192,1.192,0,0,1,.892-1.62,20.359,20.359,0,0,1,15.223.716,20.053,20.053,0,0,1,4.866,3.115l2.7-2.69a24.243,24.243,0,0,0-33.764,1.551,24.3,24.3,0,0,0,1.2,34.484A24.261,24.261,0,0,0,926.544-20.4a24.151,24.151,0,0,0,.071-32.749l-2.681,2.673c.011.014.057.077.107.136a20.152,20.152,0,0,1,4.825,16.756,20.5,20.5,0,0,1-25.48,16.528,20.482,20.482,0,0,1-14-26.692,19.6,19.6,0,0,1,2.7-5.1,1.159,1.159,0,0,1,1.552-.364,1.146,1.146,0,0,1,.506,1.416,3.221,3.221,0,0,1-.363.6,17.782,17.782,0,0,0-3.068,12.951,18.061,18.061,0,0,0,20.9,15.266,17.288,17.288,0,0,0,14.033-11.625c2.379-6.447,1.212-12.472-3.077-17.864-.116-.146-.251-.278-.325-.359l-2.7,2.69c.068.087.165.208.26.331a14.169,14.169,0,0,1,2.6,12.965c-.279,1.045-.82,1.457-1.563,1.251-.783-.217-.982-.816-.687-1.907a11.848,11.848,0,0,0-1.973-10.587c-.11-.15-.244-.282-.315-.363Zm-3.5.037a5.748,5.748,0,0,0-7.649,1.421,5.765,5.765,0,0,0,.9,7.9,5.777,5.777,0,0,0,7.811-.335c1.983-1.985,2.292-5.441.6-7.353-.615.622-1.227,1.244-1.842,1.861-.633.635-1.255,1.284-1.912,1.893a1.149,1.149,0,0,1-1.632-.039,1.163,1.163,0,0,1-.019-1.591c.137-.164.3-.31.448-.462Zm19.98-24.506a.881.881,0,0,0-.213.106c-1.063,1.059-2.165,2.084-3.16,3.2a3.431,3.431,0,0,0-.595,1.528,6.4,6.4,0,0,0-.007,1.34c0,.709,0,1.417,0,2.288,1.48-1.475,2.82-2.8,4.147-4.144a.61.61,0,0,0,.109-.425C931.863-63.629,931.764-64.911,931.665-66.244Zm6.184,6.164c-1.294-.092-2.532-.2-3.773-.253a1.124,1.124,0,0,0-.751.28c-1.2,1.165-2.376,2.36-3.557,3.548-.088.089-.159.2-.315.391,1.388,0,2.666.034,3.941-.022a1.748,1.748,0,0,0,1.038-.473C935.577-57.717,936.673-58.875,937.849-60.079Z" transform="translate(0)" fill="#6836bf"/>
    <path id="Trazado_197646" data-name="Trazado 197646" d="M972.494,36.677a1.152,1.152,0,0,1,1.113-1.194,1.165,1.165,0,1,1,.05,2.33A1.141,1.141,0,0,1,972.494,36.677Z" transform="translate(-76.333 -89.112)" fill="#6836bf"/>
    <path id="Trazado_197647" data-name="Trazado 197647" d="M1110.382,191.6a1.162,1.162,0,0,1-1.172-1.136,1.15,1.15,0,0,1,1.185-1.176,1.136,1.136,0,0,1,1.137,1.159A1.151,1.151,0,0,1,1110.382,191.6Z" transform="translate(-191.656 -218.852)" fill="#6836bf"/>
  </g>
</svg>
