<svg xmlns="http://www.w3.org/2000/svg" xmlns:xlink="http://www.w3.org/1999/xlink" width="88" height="88" viewBox="0 0 88 88">
  <defs>
    <filter id="Trazado_188616" x="0" y="0" width="88" height="88" filterUnits="userSpaceOnUse">
      <feOffset dy="3" input="SourceAlpha"/>
      <feGaussianBlur stdDeviation="3" result="blur"/>
      <feFlood flood-opacity="0.161"/>
      <feComposite operator="in" in2="blur"/>
      <feComposite in="SourceGraphic"/>
    </filter>
  </defs>
  <g id="Grupo_133255" data-name="Grupo 133255" transform="translate(-1269.333 -180)">
    <g id="Grupo_137000" data-name="Grupo 137000">
      <g id="Grupo_133193" data-name="Grupo 133193" transform="translate(48 62)">
        <g id="Grupo_128476" data-name="Grupo 128476" transform="translate(1230.333 124)">
          <g transform="matrix(1, 0, 0, 1, -9, -6)" filter="url(#Trazado_188616)">
            <path id="Trazado_188616-2" data-name="Trazado 188616" d="M7.778,0H62.222A7.778,7.778,0,0,1,70,7.778V70H7.778A7.778,7.778,0,0,1,0,62.222V7.778A7.778,7.778,0,0,1,7.778,0Z" transform="translate(9 6)" fill="#f7ca18"/>
          </g>
        </g>
      </g>
      <g id="Grupo_133252" data-name="Grupo 133252" transform="translate(4509.695 891.157)">
        <path id="Trazado_190052" data-name="Trazado 190052" d="M-3042.875-560.6c0,2.481.016,4.963-.006,7.444a3.2,3.2,0,0,1-2.661,3.121,3.224,3.224,0,0,1-3.626-2.126,3.429,3.429,0,0,1-.19-1.056q-.023-4.581-.007-9.162c0-.618.339-1.008.824-1s.794.393.81,1.018c0,.191,0,.382,0,.573,0,2.82-.008,5.641,0,8.462a1.6,1.6,0,0,0,2.021,1.658,1.554,1.554,0,0,0,1.182-1.341,5.145,5.145,0,0,0,.029-.635q0-6.935,0-13.87a2.088,2.088,0,0,0-2.391-2.368c-3.245,0-6.491-.014-9.736.012a1.784,1.784,0,0,1-1.394-.589c-2.1-2.128-4.21-4.248-6.353-6.334a2.571,2.571,0,0,0-1.257-.615,1.21,1.21,0,0,0-1.255.7,1.375,1.375,0,0,0,.018,1.507,3.824,3.824,0,0,0,.541.621q4.136,4.141,8.286,8.27a1.724,1.724,0,0,1,.551,1.345c-.016,4.029-.009,8.059-.01,12.088,0,.212.064.484-.041.622-.2.258-.5.6-.755.6s-.57-.333-.759-.592c-.115-.157-.05-.451-.05-.684,0-3.839-.008-7.677.007-11.516a1.352,1.352,0,0,0-.435-1.058q-4.089-4.054-8.15-8.137a3.1,3.1,0,0,1-.325-4.3,3.092,3.092,0,0,1,4.661-.147q3.081,3.038,6.118,6.119a1.406,1.406,0,0,0,1.106.469c3.054-.021,6.11.041,9.162-.027a3.839,3.839,0,0,1,4.105,4.122c-.1,2.265-.021,4.537-.021,6.807Z" transform="translate(-127.517 -95.815)" fill="#6836bf"/>
        <path id="Trazado_190053" data-name="Trazado 190053" d="M-3114.247-690.26c.4-.414.764-.827,1.165-1.2a1.763,1.763,0,0,1,2.613-.017q1.334,1.274,2.608,2.611a1.685,1.685,0,0,1-.025,2.55c-.962.828-1.4,1.62-.631,2.807.271.417.042.839-.406,1.045a.738.738,0,0,1-1.049-.424,13.491,13.491,0,0,1-.7-1.7,1.45,1.45,0,0,1,.426-1.622c.458-.409.9-.831,1.279-1.176l-2.943-2.946c-.331.328-.774.772-1.222,1.212a1.438,1.438,0,0,1-1.892.348c-.406-.179-.818-.348-1.232-.509a1.409,1.409,0,0,1-1.078-1.587c0-.53.022-1.062-.017-1.59-.011-.154-.2-.418-.315-.421-1.222-.031-2.445-.019-3.73-.019,0,.789.007,1.485,0,2.181a1.411,1.411,0,0,1-1.066,1.538c-.453.177-.906.355-1.351.553a1.416,1.416,0,0,1-1.792-.319c-.436-.489-.848-1-1.278-1.507l-3,3.192c.334.3.815.711,1.267,1.149a1.4,1.4,0,0,1,.358,1.832c-.2.446-.4.888-.569,1.344a1.4,1.4,0,0,1-1.453,1c-.654-.008-1.309,0-2.076,0v2.7c0,1.361,0,1.36,1.37,1.362.319,0,.638-.013.954.016a1.3,1.3,0,0,1,1.158.861c.223.549.458,1.093.68,1.643a1.332,1.332,0,0,1-.307,1.575c-.487.467-.991.917-1.541,1.423.983.984,1.856,1.871,2.753,2.733.078.075.356.038.475-.043.313-.215.573-.506.885-.724a.681.681,0,0,1,1.055.147,1.132,1.132,0,0,1-.021,1.013,5.6,5.6,0,0,1-1.341,1.154,1.647,1.647,0,0,1-2.055-.249c-.937-.892-1.857-1.8-2.744-2.744a1.718,1.718,0,0,1,.009-2.464,3.61,3.61,0,0,1,.585-.583,1.052,1.052,0,0,0,.338-1.594c-.21-.382-.368-.595-.826-.552a9.57,9.57,0,0,1-1.335,0,1.729,1.729,0,0,1-1.705-1.712c-.028-1.293-.03-2.588,0-3.881a1.709,1.709,0,0,1,1.667-1.677,4.228,4.228,0,0,1,.953,0c.754.129,1.136-.159,1.384-.888.15-.44.127-.68-.209-.964a9.358,9.358,0,0,1-.9-.895,1.687,1.687,0,0,1-.027-2.364c.934-.984,1.907-1.932,2.908-2.849a1.688,1.688,0,0,1,2.272-.007,10.722,10.722,0,0,1,1.1,1.056.565.565,0,0,0,.765.152c1.029-.461,1.036-.445,1.036-1.568,0-.318-.013-.637.008-.954a1.718,1.718,0,0,1,1.676-1.674q1.971-.055,3.945,0a1.673,1.673,0,0,1,1.654,1.614c.02.211.02.424.02.635C-3115.726-690.8-3115.727-690.8-3114.247-690.26Z" transform="translate(-73.339 0)" fill="#6836bf"/>
        <path id="Trazado_190054" data-name="Trazado 190054" d="M-3143.752-530.5h-2.437c0,1.117.083,2.123-1.342,2.7s-2.094-.069-2.827-.92l-1.747,1.722c.492.716,1.531,1.12,1.078,2.386-.5,1.406-1.242,2.184-2.89,1.746,0,.7.007,1.285,0,1.87-.009.665-.279,1-.792,1.019-.538.015-.833-.341-.843-1.033-.008-.53,0-1.06,0-1.59.008-1.244.587-1.808,1.831-1.843.337-.009.822.229.945-.336a.961.961,0,0,0-.118-.646,7.832,7.832,0,0,0-.6-.654,1.466,1.466,0,0,1,.035-1.926c.646-.7,1.319-1.381,2.022-2.025s1.5-.516,2.306.246c.248.234.431.735.914.423a1.049,1.049,0,0,0,.382-.546,2.818,2.818,0,0,0,.019-.7,1.451,1.451,0,0,1,1.466-1.518c.8-.037,1.611-.022,2.417-.015,1.242.012,1.751.545,1.792,1.795.011.338-.227.824.336.952a1.015,1.015,0,0,0,.656-.1,3.767,3.767,0,0,0,.554-.519,1.46,1.46,0,0,1,2.07-.016c.685.632,1.347,1.292,1.977,1.979s.525,1.505-.231,2.307c-.246.261-.762.455-.421.96a.894.894,0,0,0,.512.327,7.234,7.234,0,0,0,.824.027,1.505,1.505,0,0,1,1.427,1.51c.023.784.009,1.569.006,2.354,0,1.246-.579,1.806-1.832,1.831-.364.008-.861-.2-.965.406a.8.8,0,0,0,.106.538c.166.241.418.421.606.649a1.454,1.454,0,0,1,0,1.974c-.645.7-1.319,1.38-2.023,2.023s-1.473.516-2.259-.207c-.252-.232-.419-.745-.9-.485a1.038,1.038,0,0,0-.431.578,4.412,4.412,0,0,0-.036.821,1.417,1.417,0,0,1-1.4,1.374c-.868.036-1.738.019-2.607.012a.745.745,0,0,1-.824-.779.758.758,0,0,1,.855-.812c.761-.005,1.521,0,2.38,0,0-1.137-.112-2.154,1.326-2.728,1.4-.56,2.1.022,2.838.957l1.727-1.814c-.746-.7-1.511-1.359-.911-2.778.584-1.381,1.508-1.459,2.694-1.354v-2.435c-1.125.047-2.1.052-2.679-1.347s.083-2.092.952-2.846l-1.774-1.74c-.738.793-1.39,1.521-2.811.936S-3143.808-529.32-3143.752-530.5Z" transform="translate(-55.448 -134.774)" fill="#6836bf"/>
        <path id="Trazado_190055" data-name="Trazado 190055" d="M-3212.791-497.112c-1.909,0-3.817.008-5.726,0a3.613,3.613,0,0,1-3.838-3.817q-.013-4.58,0-9.16a5.089,5.089,0,0,1,5.3-5.274c1.654-.006,3.308,0,4.963,0,.727,0,1.069.255,1.08.784s-.363.833-1.11.835c-1.59.005-3.181,0-4.771,0a3.5,3.5,0,0,0-3.844,3.818q-.01,4.421,0,8.842a2.085,2.085,0,0,0,2.33,2.367q5.726.008,11.451,0a1.84,1.84,0,0,0,1.895-2.544,1.823,1.823,0,0,0-1.831-1.118q-4.485.006-8.97,0c-.19,0-.44.062-.559-.034-.258-.207-.611-.492-.621-.756s.339-.553.572-.791c.078-.08.283-.05.43-.05,3.1,0,6.192-.021,9.288.008a3.292,3.292,0,0,1,3.138,2.006,3.265,3.265,0,0,1-.467,3.634,3.316,3.316,0,0,1-2.733,1.251C-3208.8-497.117-3210.8-497.112-3212.791-497.112Z" transform="translate(0 -148.691)" fill="#6836bf"/>
        <path id="Trazado_190056" data-name="Trazado 190056" d="M-3197.237-594.141a6.074,6.074,0,0,1,6.115,6.016,6.074,6.074,0,0,1-6.057,6.137,6.1,6.1,0,0,1-6.128-6.079A6.1,6.1,0,0,1-3197.237-594.141Zm4.481,6.115a4.461,4.461,0,0,0-4.461-4.51,4.5,4.5,0,0,0-4.462,4.464,4.482,4.482,0,0,0,4.447,4.468A4.445,4.445,0,0,0-3192.755-588.026Z" transform="translate(-15.816 -83.31)" fill="#6836bf"/>
        <path id="Trazado_190057" data-name="Trazado 190057" d="M-2990.448-607.253a6.118,6.118,0,0,1-6.11,6.105,6.142,6.142,0,0,1-6.074-6.089,6.13,6.13,0,0,1,6.121-6.1A6.106,6.106,0,0,1-2990.448-607.253Zm-1.635.065a4.431,4.431,0,0,0-4.38-4.511A4.466,4.466,0,0,0-3001-607.27a4.492,4.492,0,0,0,4.429,4.49A4.452,4.452,0,0,0-2992.083-607.188Z" transform="translate(-182.374 -67.378)" fill="#6836bf"/>
        <path id="Trazado_190058" data-name="Trazado 190058" d="M-3080.132-644.3a6.08,6.08,0,0,1,5.714,8.175c-.156.414-.373.726-.84.743-.607.021-.943-.557-.7-1.248a4.527,4.527,0,0,0,.115-2.808,4.446,4.446,0,0,0-3.978-3.24,4.49,4.49,0,0,0-4.287,2.425,4.482,4.482,0,0,0,.632,4.988,2.99,2.99,0,0,1,.367.436.74.74,0,0,1-.169,1.026.773.773,0,0,1-1.136-.1,5.959,5.959,0,0,1-1.738-3.393A6.085,6.085,0,0,1-3080.132-644.3Z" transform="translate(-112.99 -41.681)" fill="#6836bf"/>
        <path id="Trazado_190059" data-name="Trazado 190059" d="M-3110.737-491.879a4.439,4.439,0,0,1-4.147,4.476c-.665.048-1.035-.184-1.1-.685-.064-.535.244-.833.947-.916a2.835,2.835,0,0,0,2.67-2.8,2.83,2.83,0,0,0-2.455-2.864,2.829,2.829,0,0,0-3.1,2.064,4,4,0,0,0-.1.941c-.017.644-.287,1.01-.787,1.026s-.816-.347-.852-.975a4.485,4.485,0,0,1,4.39-4.7A4.463,4.463,0,0,1-3110.737-491.879Z" transform="translate(-85.242 -164.502)" fill="#6836bf"/>
      </g>
    </g>
  </g>
</svg>
