<svg xmlns="http://www.w3.org/2000/svg" width="85" height="85" viewBox="0 0 85 85">
  <g id="Grupo_137121" data-name="Grupo 137121" transform="translate(-264.873 -4982)">
    <circle id="Elipse_6346" data-name="Elipse 6346" cx="42.5" cy="42.5" r="42.5" transform="translate(264.873 4982)" fill="#b13e8d"/>
    <g id="Grupo_136900" data-name="Grupo 136900" transform="translate(1133.865 6755.537)">
      <path id="Trazado_197850" data-name="Trazado 197850" d="M-799.773-1729.1l2.339-2.611,1.509,1.342c-.79.89-1.54,1.753-2.314,2.6a.59.59,0,0,0-.11.761,7,7,0,0,1-5.472,9.933,6.818,6.818,0,0,1-1,.034q-9.838,0-19.675,0a2.973,2.973,0,0,1-3.176-3.205c0-.91,0-1.82,0-2.759h-11.966c-.009.2-.027.4-.027.6q0,5.964,0,11.928c0,1.117.325,1.435,1.459,1.436h10.535c0-.971,0-1.881,0-2.792a2.976,2.976,0,0,1,3.24-3.2c6.5,0,12.992.013,19.488-.009a7.176,7.176,0,0,1,4.872,1.739c.076.065.162.119.288.21l2.349-2.62,1.509,1.34c-.788.888-1.539,1.75-2.309,2.592a.59.59,0,0,0-.119.76,7,7,0,0,1-5.46,9.939,6.619,6.619,0,0,1-1,.035q-9.838,0-19.675,0a2.97,2.97,0,0,1-3.185-3.2c0-.911,0-1.822,0-2.8h-.723q-5.059,0-10.119,0a2.967,2.967,0,0,1-3.15-3.169q0-9.024,0-18.048v-.774a16.99,16.99,0,0,1-12.844-7.146,16.324,16.324,0,0,1-3.108-11.173,17.01,17.01,0,0,1,15.715-15.619,16.6,16.6,0,0,1,12.422,4.195,16.9,16.9,0,0,1,5.784,11.741c.214.01.4.026.579.026,3.706,0,7.412-.008,11.118.013a.682.682,0,0,0,.78-.573c.527-1.66,1.1-3.306,1.639-4.963.1-.309.2-.482.582-.48,4.476.016,8.953.01,13.429.012a2.377,2.377,0,0,1,.249.033c-.145.459-.28.906-.427,1.349-.564,1.692-1.148,3.378-1.682,5.08a1.889,1.889,0,0,0,0,1.071c.615,1.938,1.274,3.861,1.917,5.789.064.194.121.39.194.628h-14.114c-.579-1.735-1.194-3.474-1.73-5.238a.886.886,0,0,0-1.041-.738c-3.581.028-7.162.014-10.743.014h-.648c-1.377,9.351-6.7,14.68-16.05,16.071v3.88h11.968c0-.871.059-1.76-.012-2.64a3.156,3.156,0,0,1,3.323-3.348c6.412.07,12.825.048,19.237.014a7.386,7.386,0,0,1,5.107,1.788A2.3,2.3,0,0,0-799.773-1729.1Zm-26.023-17.943a14.834,14.834,0,0,0-15.2-13.941,14.94,14.94,0,0,0-14.534,16.771,14.964,14.964,0,0,0,16.845,13.028,14.51,14.51,0,0,0,10.1-6.031,14.243,14.243,0,0,0,2.816-7.781h-3.928a11.21,11.21,0,0,1-2.171,5.574,10.9,10.9,0,0,1-4.688,3.609,11.257,11.257,0,0,1-5.937.654,11.186,11.186,0,0,1-9.185-10.494,11.128,11.128,0,0,1,9.753-11.315,11.12,11.12,0,0,1,12.281,9.926Zm16.116,18.009c-5,0-9.915,0-14.827,0-.779,0-1.16.414-1.162,1.226q-.01,3.714,0,7.428c0,.984.362,1.334,1.371,1.334q7.055,0,14.111,0c.153,0,.306-.024.5-.041A7.2,7.2,0,0,1-809.68-1729.033Zm.029,25.981c-2.715-3.485-2.72-5.884-.07-9.973-.12-.008-.216-.02-.311-.02q-7.212,0-14.423,0c-.827,0-1.211.4-1.214,1.238-.007,2.435,0,4.869,0,7.3,0,1.126.322,1.448,1.445,1.448h14.575Zm-24.061-41.939a7.066,7.066,0,0,1-7.683,5.946,7.024,7.024,0,0,1-6.26-6.672,6.97,6.97,0,0,1,6.155-7.258,7.043,7.043,0,0,1,7.8,5.922h1.9a8.864,8.864,0,0,0-8.855-7.949,9.014,9.014,0,0,0-9,9.147,9.052,9.052,0,0,0,9.262,8.823c4.442-.164,8.77-4.168,8.569-7.958Zm-2.111-2.027a4.954,4.954,0,0,0-5.25-3.972,5.035,5.035,0,0,0-4.574,5.217,5.038,5.038,0,0,0,5.006,4.747c2.344-.008,4.658-1.932,4.775-4.03h-5.76v-1.962h5.8Zm34.647,19.508a4.9,4.9,0,0,0-6.612-.413,4.966,4.966,0,0,0-1.056,6.613,4.957,4.957,0,0,0,6.487,1.665,4.822,4.822,0,0,0,2.288-6.05l-.419.469c-.914,1.026-1.816,2.062-2.746,3.074a1.781,1.781,0,0,1-2.568.337,34.4,34.4,0,0,1-2.413-2.526l1.322-1.48,2.153,2.319Zm-.008,16a4.872,4.872,0,0,0-6.484-.515,4.957,4.957,0,0,0-1.2,6.676,4.97,4.97,0,0,0,6.581,1.662,4.816,4.816,0,0,0,2.215-5.993c-.152.159-.293.3-.426.449-.914,1.024-1.814,2.06-2.743,3.07a1.809,1.809,0,0,1-2.62.3c-.882-.775-1.646-1.685-2.426-2.5l1.35-1.431,2.189,2.277Zm-8.086-35.507c1.243,0,2.385.01,3.527-.012a.534.534,0,0,0,.407-.265c.423-1.21.816-2.431,1.241-3.72-1.235,0-2.4-.008-3.556.01a.479.479,0,0,0-.366.237C-808.438-1749.557-808.834-1748.336-809.27-1747.018Zm6,0c1.234,0,2.376.015,3.518-.017a.649.649,0,0,0,.443-.374c.313-.834.587-1.683.866-2.53.112-.34.2-.686.318-1.077-1.214,0-2.336-.012-3.458.013a.593.593,0,0,0-.453.287C-802.459-1749.526-802.843-1748.323-803.273-1747.018Zm-.82,6c-.433-1.312-.829-2.532-1.25-3.744a.477.477,0,0,0-.363-.242c-1.162-.019-2.324-.011-3.563-.011.431,1.3.833,2.543,1.261,3.773a.49.49,0,0,0,.381.215C-806.484-1741.016-805.341-1741.023-804.093-1741.023Zm6,0c-.43-1.3-.833-2.538-1.256-3.769a.423.423,0,0,0-.318-.218c-1.175-.016-2.352-.01-3.6-.01.432,1.306.823,2.528,1.253,3.736a.614.614,0,0,0,.479.25C-800.44-1741.012-799.338-1741.023-798.1-1741.023Z" transform="translate(0 0)" fill="#fff"/>
    </g>
  </g>
</svg>
