<svg xmlns="http://www.w3.org/2000/svg" width="85" height="85" viewBox="0 0 85 85">
  <g id="Grupo_137128" data-name="Grupo 137128" transform="translate(-810 -4982)">
    <circle id="Elipse_6349" data-name="Elipse 6349" cx="42.5" cy="42.5" r="42.5" transform="translate(810 4982)" fill="#b13e8d"/>
    <g id="Grupo_136905" data-name="Grupo 136905" transform="translate(2701.129 7098.648)">
      <path id="Trazado_197864" data-name="Trazado 197864" d="M-1773.083-2051.049v-1.92h23.973v-47.039h-39.36v22.983h-1.934v-.623q0-11.529,0-23.058c0-.992.282-1.268,1.291-1.268h40.659c1.026,0,1.295.275,1.295,1.324q0,24.139,0,48.279c0,1.046-.27,1.321-1.3,1.321h-24.624Z" transform="translate(-75.437)" fill="#fff"/>
      <path id="Trazado_197865" data-name="Trazado 197865" d="M-1880.257-1918.952a15.358,15.358,0,0,1,15.472-15.321,15.359,15.359,0,0,1,15.28,15.453,15.365,15.365,0,0,1-15.442,15.293A15.363,15.363,0,0,1-1880.257-1918.952Zm22.173-8.146,2.035-1.916a13.375,13.375,0,0,0-7.877-3.257v2.762h-1.933v-2.763a13.366,13.366,0,0,0-7.87,3.276l2.047,1.915-1.394,1.393-1.895-2.074a13.332,13.332,0,0,0-3.283,7.924h2.749v1.937h-2.788c.569,4.951,2.9,8.7,7.3,10.925a12.806,12.806,0,0,0,14.128-1.183,13,13,0,0,0,5.372-9.8h-2.766v-1.937h2.712a12.517,12.517,0,0,0-3.326-7.82l-1.888,1.994Z" transform="translate(0 -140.796)" fill="#fff"/>
      <path id="Trazado_197866" data-name="Trazado 197866" d="M-1767.961-2067.457l.468-1.854,3.541.874c1.083.268,2.175.51,3.246.82a1.1,1.1,0,0,0,1-.178c3.116-1.993,6.243-3.969,9.352-5.973a1.651,1.651,0,0,1,1.625-.19c2.99,1.116,6,2.187,8.988,3.3a.644.644,0,0,0,.894-.256c.478-.663,1.013-1.285,1.543-1.948-.682-.456-1.324-.9-1.977-1.318a1.02,1.02,0,0,1-.557-1.042,1.016,1.016,0,0,1,.817-.847c1.782-.584,3.557-1.191,5.337-1.78,1-.329,1.524.046,1.525,1.072,0,1.782.026,3.564-.021,5.344a1.557,1.557,0,0,1-.477,1c-.343.31-.782.153-1.158-.106-.592-.407-1.195-.8-1.854-1.236-.73.908-1.453,1.8-2.173,2.7-.632.79-.843.852-1.79.507-3.075-1.119-6.152-2.232-9.221-3.368a.933.933,0,0,0-.932.115c-3.113,2-6.239,3.972-9.349,5.973a1.764,1.764,0,0,1-1.521.254c-2.277-.6-4.565-1.146-6.849-1.716C-1767.64-2067.34-1767.769-2067.393-1767.961-2067.457Zm31.276-7.339,2.563,1.693v-2.548Z" transform="translate(-94.28 -20.154)" fill="#fff"/>
      <path id="Trazado_197867" data-name="Trazado 197867" d="M-1676.591-1995.105q0-4.922,0-9.843c0-.887.307-1.2,1.174-1.2q2.671,0,5.342,0c.841,0,1.169.32,1.169,1.148q0,9.9,0,19.806c0,.823-.331,1.142-1.174,1.143q-2.641,0-5.282,0c-.924,0-1.228-.3-1.228-1.209Q-1676.593-1990.184-1676.591-1995.105Zm5.723,9.106v-18.182h-3.771V-1986Z" transform="translate(-170.991 -80.448)" fill="#fff"/>
      <path id="Trazado_197868" data-name="Trazado 197868" d="M-1603.013-1984.074q0,4.411,0,8.822c0,.957-.293,1.251-1.247,1.251q-2.641,0-5.282,0c-.836,0-1.156-.322-1.156-1.16q0-8.943,0-17.885c0-.8.33-1.128,1.125-1.13q2.731-.006,5.462,0c.759,0,1.1.338,1.1,1.1Q-1603.008-1988.575-1603.013-1984.074Zm-5.725-8.155v16.26h3.773v-16.26Z" transform="translate(-226.311 -90.501)" fill="#fff"/>
      <path id="Trazado_197869" data-name="Trazado 197869" d="M-1676.426-1854.368v-1.846h21.086v1.846Z" transform="translate(-171.13 -206.332)" fill="#fff"/>
      <path id="Trazado_197870" data-name="Trazado 197870" d="M-1736.7-1974.265h-3.849v4.731h-1.939v-2.191c0-1.14-.005-2.281,0-3.421a.938.938,0,0,1,1.068-1.065q2.791-.009,5.582,0a.913.913,0,0,1,1.03.981c.008,3.12,0,6.241,0,9.362a.951.951,0,0,1-.046.193h-1.848Z" transform="translate(-115.661 -105.582)" fill="#fff"/>
      <path id="Trazado_197871" data-name="Trazado 197871" d="M-1802.376-1883.474a2.829,2.829,0,0,1,1.638-2.267,1.235,1.235,0,0,0,.537-.673c.271-.915.44-1.861.726-2.771a1.664,1.664,0,0,1,.659-.848c.881-.545,1.8-1.023,2.719-1.51a1.015,1.015,0,0,1,1.628.859c.115,1.051.252,2.1.3,3.156a1.568,1.568,0,0,1-.346.965c-.6.747-1.258,1.447-1.905,2.154a.8.8,0,0,0-.241.784,2.885,2.885,0,0,1-2.689,3.407A2.987,2.987,0,0,1-1802.376-1883.474Zm6.061-5.852c-.544.435-1.135.7-1.367,1.143a8.694,8.694,0,0,0-.566,2.124c-.025.114.081.257.126.386.114-.042.261-.053.335-.132.5-.542,1-1.089,1.471-1.658a.855.855,0,0,0,.157-.537C-1796.172-1888.374-1796.242-1888.747-1796.315-1889.326Zm-3.2,7.128a.944.944,0,0,0,.979-.911.938.938,0,0,0-.9-.931.943.943,0,0,0-1.008.881A.941.941,0,0,0-1799.52-1882.2Z" transform="translate(-65.386 -176.512)" fill="#fff"/>
      <path id="Trazado_197872" data-name="Trazado 197872" d="M-1812.329-1794.391h-1.851v-1.846h1.851Z" transform="translate(-55.476 -256.686)" fill="#fff"/>
      <path id="Trazado_197873" data-name="Trazado 197873" d="M-1790.227-1796.376h1.853v1.863h-1.853Z" transform="translate(-75.586 -256.57)" fill="#fff"/>
      <path id="Trazado_197874" data-name="Trazado 197874" d="M-1764.408-1794.391h-1.851v-1.846h1.851Z" transform="translate(-95.709 -256.686)" fill="#fff"/>
    </g>
  </g>
</svg>
