<svg xmlns="http://www.w3.org/2000/svg" width="85" height="85" viewBox="0 0 85 85">
  <g id="Grupo_137123" data-name="Grupo 137123" transform="translate(-810 -5126)">
    <circle id="Elipse_6350" data-name="Elipse 6350" cx="42.5" cy="42.5" r="42.5" transform="translate(810 5126)" fill="#b13e8d"/>
    <g id="Grupo_136906" data-name="Grupo 136906" transform="translate(1854.991 6711.094)">
      <path id="Trazado_197875" data-name="Trazado 197875" d="M-990.624-1572.7a14.068,14.068,0,0,1,2.211,1.012,4.941,4.941,0,0,1,2.131,4.049c.007.134.014.268.024.469.562,0,1.1,0,1.647,0a3.891,3.891,0,0,1,4.09,4.1q.008,9.991-.008,19.982a.844.844,0,0,0,.492.871,27.674,27.674,0,0,1,6.387,4.94,3.807,3.807,0,0,1-.026,5.551,27.544,27.544,0,0,1-6.391,4.932.807.807,0,0,0-.46.836c.014,3.1-.033,6.191.02,9.286a4.047,4.047,0,0,1-4.2,4.191c-7.444-.062-14.888-.034-22.332-.016a7.542,7.542,0,0,1-5.5-2.224c-1.474-1.434-2.955-2.862-4.458-4.266a1.574,1.574,0,0,0-.861-.354,26.565,26.565,0,0,1-3.654-.343,4.906,4.906,0,0,1-3.561-4.656c0-.1,0-.2,0-.294q0-21.392,0-42.784a5.025,5.025,0,0,1,2.924-4.773,11.156,11.156,0,0,1,1.423-.509Zm7.735,47.428c-.1-.026-.145-.051-.177-.042-.187.055-.373.11-.555.178a24.135,24.135,0,0,1-13.732,1.031,26.069,26.069,0,0,1-13.405-7.537,3.79,3.79,0,0,1-.046-5.683,25.628,25.628,0,0,1,16.041-7.993,23.61,23.61,0,0,1,10.405,1.173c.471.166.944.327,1.469.508v-.667q0-9.258,0-18.517c0-1.437-.546-1.982-1.988-1.982h-30.1c-1.436,0-1.987.552-1.987,1.984q0,10.933,0,21.867a3.921,3.921,0,0,1-.018.645,1.118,1.118,0,0,1-.9.965,1.024,1.024,0,0,1-1.206-.508,1.95,1.95,0,0,1-.211-.887q-.017-11.227-.005-22.455a4.066,4.066,0,0,1,.088-.931,3.853,3.853,0,0,1,3.989-3.045q12.932-.005,25.864,0h.775a10.926,10.926,0,0,0-.241-1.28,2.8,2.8,0,0,0-2.979-1.9q-13.814,0-27.628,0c-2.192,0-3.282,1.093-3.282,3.29q0,12.785,0,25.571,0,8.317,0,16.635a3.032,3.032,0,0,0,.978,2.421,3.43,3.43,0,0,0,2.759.639,24.971,24.971,0,0,1-.31-2.566c-.044-2.135-.016-4.271-.014-6.407,0-.96.432-1.495,1.191-1.485.738.009,1.157.533,1.158,1.459q0,3.057,0,6.113v.752h.71c1.959.006,3.919-.015,5.878.027a2.869,2.869,0,0,1,2.807,2.65c.094,1.739.06,3.484.08,5.227,0,.367,0,.735,0,1.17h22.677c1.352,0,1.919-.57,1.92-1.932q0-3.968,0-7.936Zm-9.378-17.806a8.612,8.612,0,0,0-8.572,8.553,8.659,8.659,0,0,0,8.607,8.6,8.613,8.613,0,0,0,8.549-8.577A8.566,8.566,0,0,0-992.267-1543.081Zm-8.638,1.779c-.113.039-.183.059-.25.087a24.534,24.534,0,0,0-7.976,5.572,1.453,1.453,0,0,0,.019,2.268,25.022,25.022,0,0,0,6.857,5.062c.4.2.825.365,1.344.592C-1003.972-1532.318-1003.973-1536.774-1000.9-1541.3Zm17.328,13.567c.2-.078.31-.114.413-.159a24.966,24.966,0,0,0,7.851-5.565,1.457,1.457,0,0,0-.106-2.227,25.963,25.963,0,0,0-6.819-5.03c-.418-.213-.856-.388-1.374-.619C-980.534-1536.763-980.536-1532.3-983.576-1527.735Zm-32.354,6.173-.109.168,6,5.749.146-.114c0-1.7.006-3.395,0-5.092a.67.67,0,0,0-.759-.708C-1012.415-1521.567-1014.173-1521.562-1015.931-1521.562Z" transform="translate(0 0)" fill="#fff"/>
      <path id="Trazado_197876" data-name="Trazado 197876" d="M-905.644-1466.55q-5.082,0-10.164,0a1.2,1.2,0,0,1-1.306-.859,1.168,1.168,0,0,1,.96-1.474,2.82,2.82,0,0,1,.41-.015q10.105,0,20.21,0c.781,0,1.263.324,1.384.913a1.176,1.176,0,0,1-1.271,1.433c-2.37.008-4.739,0-7.109,0Z" transform="translate(-95.199 -91.575)" fill="#fff"/>
      <path id="Trazado_197877" data-name="Trazado 197877" d="M-908.6-1411.66c-2.447,0-4.895,0-7.342,0a1.178,1.178,0,0,1-1.232-.956,1.155,1.155,0,0,1,.7-1.285,1.738,1.738,0,0,1,.629-.1q7.312-.008,14.625,0a1.164,1.164,0,0,1,1.328,1.162c.006.738-.5,1.184-1.364,1.185Q-904.932-1411.655-908.6-1411.66Z" transform="translate(-95.166 -139.999)" fill="#fff"/>
      <path id="Trazado_197878" data-name="Trazado 197878" d="M-912.806-1359.131c1.017,0,2.034-.007,3.05,0a1.206,1.206,0,0,1,1.309,1.2,1.2,1.2,0,0,1-1.3,1.149q-3.08.012-6.159,0a1.187,1.187,0,0,1-1.306-1.2,1.193,1.193,0,0,1,1.293-1.15C-914.879-1359.138-913.842-1359.131-912.806-1359.131Z" transform="translate(-95.157 -188.411)" fill="#fff"/>
      <path id="Trazado_197879" data-name="Trazado 197879" d="M-973.812-1268.09a1.154,1.154,0,0,1-1.2,1.163,1.155,1.155,0,0,1-1.149-1.214,1.155,1.155,0,0,1,1.171-1.133A1.153,1.153,0,0,1-973.812-1268.09Z" transform="translate(-43.15 -267.685)" fill="#fff"/>
      <path id="Trazado_197880" data-name="Trazado 197880" d="M-791.23-1299.2a6.039,6.039,0,0,1,5.949,6,6.065,6.065,0,0,1-5.963,5.945,6.091,6.091,0,0,1-5.99-5.987A6.056,6.056,0,0,1-791.23-1299.2Zm-3.589,5.965a3.54,3.54,0,0,0,3.567,3.571,3.592,3.592,0,0,0,3.594-3.567,3.652,3.652,0,0,0-3.591-3.6A3.594,3.594,0,0,0-794.819-1293.232Z" transform="translate(-201 -241.287)" fill="#fff"/>
    </g>
  </g>
</svg>
