<svg xmlns="http://www.w3.org/2000/svg" width="85" height="85" viewBox="0 0 85 85">
  <g id="Grupo_137125" data-name="Grupo 137125" transform="translate(-264.873 -5298)">
    <circle id="Elipse_6347" data-name="Elipse 6347" cx="42.5" cy="42.5" r="42.5" transform="translate(264.873 5298)" fill="#b13e8d"/>
    <g id="Grupo_136903" data-name="Grupo 136903" transform="translate(1271.734 6855.901)">
      <path id="Trazado_197854" data-name="Trazado 197854" d="M-989.733-1489.288a1.512,1.512,0,0,1,1.4-.607c1.436.039,2.874.013,4.311.013h.532c0-.7,0-1.358,0-2.014a3.941,3.941,0,0,1,3.989-3.933,3.941,3.941,0,0,1,3.938,3.934c0,.644,0,1.288,0,2.012h.534q2.28,0,4.559,0c.793,0,1.15.355,1.151,1.143q0,2.973,0,5.947c0,.78-.364,1.132-1.161,1.134-.975,0-1.949,0-2.924,0a2.028,2.028,0,0,0-2.155,1.979,2.028,2.028,0,0,0,2.15,1.984c1.008.006,2.015,0,3.023,0a.97.97,0,0,1,1.067,1.077c0,1.7,0,3.4,0,5.132h4.263c0-.645,0-1.283,0-1.922a3.939,3.939,0,0,1,3.981-3.99,3.941,3.941,0,0,1,3.946,3.976c0,.64,0,1.28,0,1.97h.823c1.454,0,2.907,0,4.361,0a.96.96,0,0,1,1.058,1.036q.005,9.168.006,18.335a1.133,1.133,0,0,1-.7,1.043h-38.157Zm2.018,19.846v16.4H-971.3v-.505c0-1.536,0-3.072,0-4.608a.977.977,0,0,1,1.089-1.1c1.008-.005,2.016.019,3.023-.012a2.734,2.734,0,0,0,1.047-.236,1.9,1.9,0,0,0,1.03-2.1,1.958,1.958,0,0,0-1.926-1.61c-1.057-.023-2.114,0-3.172-.008a.979.979,0,0,1-1.09-1.1c0-1.4,0-2.808,0-4.212v-.9Zm16.407-18.459h-.574c-1.519,0-3.038,0-4.558,0a.977.977,0,0,1-1.1-1.092c0-.908.005-1.817,0-2.725a2.022,2.022,0,0,0-1.957-2.125,2.021,2.021,0,0,0-2.005,2.127c-.007.892,0,1.784,0,2.675,0,.785-.36,1.14-1.154,1.141q-2.279,0-4.558,0h-.5v16.422h16.389v-4.231c-.779,0-1.521,0-2.263,0a3.953,3.953,0,0,1-3.526-5.737,3.8,3.8,0,0,1,3.5-2.187c.768-.016,1.536,0,2.313,0Zm2.015,34.853H-952.9v-16.419c-1.722,0-3.406,0-5.089,0a.986.986,0,0,1-1.115-1.129c0-.875,0-1.75,0-2.625a2.031,2.031,0,0,0-1.994-2.188,2.038,2.038,0,0,0-1.97,2.213c0,.859,0,1.717,0,2.576,0,.793-.356,1.153-1.14,1.154q-2.279,0-4.558,0h-.521v4.263c.762,0,1.5,0,2.239,0a3.94,3.94,0,0,1,3.981,3.939,3.942,3.942,0,0,1-3.982,3.988c-.738,0-1.477,0-2.238,0Z" transform="translate(0 -38.997)" fill="#fff"/>
      <path id="Trazado_197855" data-name="Trazado 197855" d="M-799.787-1534.526c0-1.7-.006-3.353.006-5a1.8,1.8,0,0,1,.14-.76.987.987,0,0,1,1-.489q7.01.011,14.02,0,2.031,0,4.062,0c.832,0,1.184.343,1.184,1.16q0,9.042,0,18.083c0,.823-.349,1.171-1.172,1.172q-2.948,0-5.9,0c-.8,0-1.153-.354-1.156-1.137,0-1.041.015-2.081-.008-3.121a1.979,1.979,0,0,0-1.413-1.886,1.866,1.866,0,0,0-2.163.776,2.819,2.819,0,0,0-.366,1.252c-.052,1-.013,2.013-.018,3.021a.977.977,0,0,1-1.1,1.1q-3,.005-5.994,0a.986.986,0,0,1-1.129-1.114c0-1.684,0-3.367,0-5.129h-1.875a3.954,3.954,0,0,1-4.019-3.26,3.977,3.977,0,0,1,3.741-4.665C-801.248-1534.535-800.555-1534.526-799.787-1534.526Z" transform="translate(-159.618 0)" fill="#fff"/>
    </g>
  </g>
</svg>
