<svg xmlns="http://www.w3.org/2000/svg" width="85" height="85" viewBox="0 0 85 85">
  <g id="Grupo_137126" data-name="Grupo 137126" transform="translate(-264.873 -5439)">
    <circle id="Elipse_6348" data-name="Elipse 6348" cx="42.5" cy="42.5" r="42.5" transform="translate(264.873 5439)" fill="#b13e8d"/>
    <g id="Grupo_136904" data-name="Grupo 136904" transform="translate(1512.683 7584.717)">
      <path id="Trazado_197856" data-name="Trazado 197856" d="M-1190.3-2076.844h-34.2v-12.362h-6.181v-33.688a1.584,1.584,0,0,0,.1-.28,7.715,7.715,0,0,1,7.527-6.415q15.651-.006,31.3,0a7.024,7.024,0,0,1,1.479.146,7.761,7.761,0,0,1,6.148,7.025,7.7,7.7,0,0,1-5.642,7.981.613.613,0,0,0-.543.725Q-1190.292-2095.276-1190.3-2076.844Zm-31.077-37.271v34.14h27.96v-34.14Zm4.654-3.113h.559q11.994,0,23.988,0a7.984,7.984,0,0,0,1.176-.1,4.651,4.651,0,0,0,3.76-4.962,4.648,4.648,0,0,0-4.813-4.208q-12.123-.008-24.246,0c-.125,0-.251.019-.405.031A7.885,7.885,0,0,1-1216.722-2117.228Zm-1.941-6.194a4.538,4.538,0,0,0-4.775-3.041,4.644,4.644,0,0,0-4.153,4.811q-.007,14.442,0,28.883c0,.148.019.3.028.432h3.094v-31.085Zm-2.718,3.116v2.779a4.593,4.593,0,0,0,2.764-2.779Z" fill="#fff"/>
      <path id="Trazado_197857" data-name="Trazado 197857" d="M-914.8-1990.545q0-14.622.01-29.243a2.285,2.285,0,0,1,.23-.973c1.354-2.747,2.73-5.484,4.1-8.223.081-.162.175-.318.294-.535.119.215.213.37.294.532,1.371,2.74,2.747,5.478,4.1,8.226a2.286,2.286,0,0,1,.23.974q.018,14.622.01,29.243Zm6.147-9.3v-15.389h-3.031v15.389Zm-3.025,3.124v3.046h3.02v-3.046Zm3.042-21.669a3.187,3.187,0,0,0-.021-1.142c-.435-1.011-.963-1.983-1.469-3a6.782,6.782,0,0,0-1.533,4.14Z" transform="translate(-272.409 -86.299)" fill="#fff"/>
      <path id="Trazado_197858" data-name="Trazado 197858" d="M-1136.871-1983.887l2.114-2.115,1.754,1.86,3.62-4.818,2.488,1.865-5.65,7.536Z" transform="translate(-80.901 -121.276)" fill="#fff"/>
      <path id="Trazado_197859" data-name="Trazado 197859" d="M-1136.83-1916.472l2.135-2.134,1.719,1.84,3.628-4.824,2.486,1.865-5.666,7.556Z" transform="translate(-80.936 -179.375)" fill="#fff"/>
      <path id="Trazado_197860" data-name="Trazado 197860" d="M-1137.035-1849.069l2.193-2.192,1.709,1.848,3.606-4.8,2.49,1.862-5.693,7.594Z" transform="translate(-80.76 -237.48)" fill="#fff"/>
      <path id="Trazado_197861" data-name="Trazado 197861" d="M-1041.312-1948.17v3.026h-9.411v-3.026Z" transform="translate(-155.193 -156.453)" fill="#fff"/>
      <path id="Trazado_197862" data-name="Trazado 197862" d="M-1041.312-1880.8v3.026h-9.411v-3.026Z" transform="translate(-155.193 -214.552)" fill="#fff"/>
      <path id="Trazado_197863" data-name="Trazado 197863" d="M-1050.855-1810.475v-3.028h9.411v3.028Z" transform="translate(-155.079 -272.586)" fill="#fff"/>
    </g>
  </g>
</svg>
